<?xml version="1.0" encoding="utf-8"?>
<!-- Generator: Adobe Illustrator 24.0.1, SVG Export Plug-In . SVG Version: 6.00 Build 0)  -->
<svg version="1.1" id="Layer_1" xmlns="http://www.w3.org/2000/svg" xmlns:xlink="http://www.w3.org/1999/xlink" x="0px" y="0px"
	 viewBox="0 0 737.2 1024" style="enable-background:new 0 0 737.2 1024;" xml:space="preserve">
<style type="text/css">
	.st0{opacity:0.24;fill:#6FD5DF;enable-background:new    ;}
	.st1{fill:#6FD5DF;}
	.st2{fill:#FFFFFF;}
	.st3{fill:url(#SVGID_1_);}
	.st4{fill:url(#SVGID_2_);}
	.st5{fill:url(#SVGID_3_);}
	.st6{fill:url(#SVGID_4_);}
	.st7{fill:url(#SVGID_5_);}
	.st8{fill:url(#SVGID_6_);}
	.st9{fill:url(#SVGID_7_);}
	.st10{fill:url(#SVGID_8_);}
	.st11{fill:url(#SVGID_9_);}
	.st12{fill:url(#SVGID_10_);}
	.st13{fill:url(#SVGID_11_);}
	.st14{fill:url(#SVGID_12_);}
	.st15{fill:url(#SVGID_13_);}
	.st16{fill:url(#SVGID_14_);}
	.st17{fill:url(#SVGID_15_);}
	.st18{fill:url(#SVGID_16_);}
	.st19{fill:#FD8469;}
</style>
<path class="st0" d="M535.3,651.5c-25.3,11.7-54.3,10.8-82.2,10c-27.9-0.8-57.1-1-81.8,11.7c-15.9,8.2-28.7,21.2-43.5,31.2
	c-26,17.6-58.5,25.2-89.7,22c-12.9-1.3-25.5-4.5-37.5-9.5c-16.8-7-31.9-17.4-48.1-25.8c-37.5-19.5-79.9-28.4-116.6-49.2
	C19.1,632.2,2.4,618.1,0,598.9c-1.1-8.5,0.9-17.1,4.1-25c11.6-28.6,38.8-47.9,66.8-60.5c28.1-12.6,58.3-20.2,85.6-34.4
	c16.1-8.5,31.5-19.2,48.9-24.8c15.6-5,31.1-4,46.7-9.5c29.7-10.4,62.3-17.3,93.6-12.1c7.6,1.2,15.1,3.2,22.4,6
	c46.9,17.8,76.6,65,121.2,87.9c15.5,8,32.5,12.8,47.9,20.8c15.5,8,30,20.2,35,36.9C580.5,611.2,560.6,639.8,535.3,651.5z"/>
<path class="st1" d="M272,622.4c-78.1,0-139.3-18.1-139.3-41.1s61.2-41.1,139.3-41.1s139.3,18.1,139.3,41.1S350.1,622.4,272,622.4z
	 M272,543.9c-73.5,0-135.6,17.1-135.6,37.4s62.1,37.4,135.6,37.4s135.6-17.1,135.6-37.4S345.5,543.9,272,543.9z"/>
<path class="st1" d="M276.3,661.4c-63.8,0-123.8-7.7-168.9-21.7c-45.8-14.2-71-33.3-71-54s25.2-39.8,71.1-54
	c45.2-14,105.1-21.7,168.9-21.7s123.8,7.7,168.9,21.7c45.9,14.2,71.1,33.4,71.1,54s-25.2,39.8-71.1,54
	C400,653.7,340,661.4,276.3,661.4z M276.3,514c-63.4,0-123,7.6-167.8,21.5c-43.4,13.4-68.4,31.8-68.4,50.2
	c0,18.5,24.9,36.8,68.4,50.3c44.8,13.9,104.4,21.5,167.8,21.5s123-7.6,167.8-21.5c43.5-13.5,68.4-31.8,68.4-50.3
	S487.5,549,444,535.5C399.3,521.7,339.7,514,276.3,514z"/>
<g id="TWXE3W">
	<path class="st1" d="M273.9,509.1c-29.1-0.4-53.1,23-53.4,52.1c-0.4,29.2,23,53.1,52.1,53.4c0.5,0,1.1,0,1.7,0
		c29.1-0.6,52.3-24.7,51.8-53.8C325.5,532.4,302.4,509.5,273.9,509.1z M281.8,533.4c0-0.2,0-0.3,0.1-0.4c0.1-0.2,0.3-0.5,0.5-0.6
		s0.5,0.2,0.8,0.3c-0.6,0.6-0.3,0.9,0.2,1.1c0.1,0.1,0.2,0.1,0.3,0.2c0.1,0.4,0.3,0.8,0.5,1.1c0.3,0.3,0.7,0.5,1.1,0.6
		c-0.3,0.3-0.7,0.6-1,0.8c-0.4,0.2-0.7,0.4-1.1,0.5c-0.3,0-0.6,0-1,0c0-0.1,0-0.1,0-0.2l0.7-0.4c-0.2-0.3-0.6-0.5-0.6-0.8
		c0-0.3,0.3-0.5,0.5-0.9c-0.3-0.5-0.7-0.7-1.1-0.5c-0.9,0.6-1,0.8-0.6,1.5c-0.6,0.2-1.2,0.5-1.8,0.7c-0.1-0.7,0.6-1.2,0-1.8
		c0.2-0.4,0.7-0.7,1.2-0.7h0.7C281.5,534.1,281.8,533.9,281.8,533.4z M266.6,520c1.2,0.2,2.5,0.3,3.7,0.4c0.5,0.1,0.9-0.1,1.2-0.4
		c0.1-0.2,0.5-0.2,0.7-0.2c1-0.2,1.9-0.3,2.9-0.4c0.5-0.1,1-0.1,1.5,0c1.2,0.2,2.4,0.4,3.5,0.6c0.2,0,0.4,0.1,0.5,0.2
		c-0.5,0-1,0-1.5,0.1c-0.3,0-0.6,0.1-0.9,0.2c-0.4,0.2-0.9,0.5-0.9,1.1c0,0.7-0.5,1.2-1.1,1.4c-0.6,0.2-1.3,0.5-1.9,0.8
		c-0.3,0.2-0.3,0.3,0,0.5s0.9,0.5,1.4,0.8c-0.8,0.3-0.8,0.3-2.3-0.4c0.2,0.4,0.4,0.7,0.7,1.1c-1,0.3-2,0.6-3.1,0.8
		c-1,0.2-1.9,0.6-2.6,1.2c-0.8,0.5-1.7,0.8-2.6,0.9c-0.5,0.1-0.9,0.2-0.9,0.8c0,0.2-0.2,0.5-0.4,0.7c-0.3,0.2-0.5,0.5-0.9,0.6
		c-0.7,0.5-1.8,0.4-2.3-0.4c-0.2-0.3-0.3-0.6-0.3-1c0-0.3,0-0.7,0-1c0.1-0.4,0.3-0.8,0.5-1.1c0.1-0.2,0.2-0.3,0.4-0.4
		c1-0.8,1.1-2.3,0.3-3.3c-0.3-0.3-0.6-0.6-1-0.7c-0.8-0.5-1.6-0.7-2.5-0.8c-0.3-0.1-0.6-0.2-0.8-0.4c1.2-0.2,2.3-0.3,3.4-0.5
		c0.5-0.1,0.9-0.3,1.4-0.5C264,520,265.3,519.8,266.6,520L266.6,520z M278.2,528c0,0.3-0.1,0.5-0.3,0.7c-0.4,0.3-0.9,0.5-1.4,0.7
		c-0.4,0.2-1,0.1-1.3-0.3c-0.1-0.2-0.5-0.2-0.7-0.3c0-0.1,0-0.1,0-0.2c0.2-0.1,0.5-0.2,0.7-0.3c0.8-0.2,1.5-0.4,2.2-0.6
		C277.6,527.6,278.1,527.6,278.2,528L278.2,528z M251.9,521.6c0.3-0.1,0.7-0.2,1.1-0.3s0.8-0.2,1-0.7c0.1-0.2,0.3-0.4,0.5-0.5
		l0.5-0.1c0.6-0.1,1.1-0.2,1.7-0.3c0.5,0,0.9-0.1,1.4-0.2c0.8-0.3,1.7-0.4,2.6-0.4c0.3,0,0.5,0,0.8,0h0.8c0,0.1,0,0.1,0,0.2
		c-0.9,0.7-2,1.2-3.2,1.4c-1.6,0.3-3.2,0.9-4.5,1.8c-0.4,0.3-0.9,0.5-1.2-0.2l0,0c0-0.1-0.3-0.2-0.5-0.2c-0.4,0-0.9-0.1-1.3-0.2
		C251.6,521.8,251.8,521.7,251.9,521.6L251.9,521.6L251.9,521.6z M249.2,523.1c0,0-0.1,0-0.1-0.1c0.4-0.7,0.9-0.9,1.6-0.6
		c0.7,0.3,1.4,0.4,2.2,0.2c0,0,0.1,0.1,0.1,0.1c-0.1,0.2-0.2,0.4-0.3,0.4c-0.1,0-0.7,0.2-1.1,0.3c-0.2,0.1-0.3,0.2-0.3,0.4
		c0,0.1,0.2,0.3,0.3,0.3l0.5,0.1l3.7,1c0.1,0.1,0.2,0.2,0.2,0.3c0,0.2,0,0.4-0.1,0.5c-0.2,1,0,1.4,1.1,1.4c0,0.3-0.2,0.7-0.6,0.7
		c-0.7,0.2-1.4,0.4-1.9,0.6c-0.3,0.1-0.6,0.2-0.5,0.6c0,0.1-0.1,0.2-0.1,0.3c-0.6,0.4-1.3,0.4-1.9,0c-0.4-0.4-0.3-1,0.1-1.4
		c0.1-0.1,0.3-0.2,0.5-0.2c0.4-0.1,0.8-0.1,1.2-0.2c0.2,0,0.3-0.2,0.4-0.3c0-0.1-0.1-0.3-0.2-0.5c-0.8-0.7-1.7-1.2-2.8-1.4
		c-0.3,0-0.6-0.1-0.9-0.1c-0.7,0-1.5-0.1-2.2-0.2c-0.3,0-0.7,0-0.7-0.5c-0.1-0.4,0.2-0.7,0.5-0.8c0.1,0,0.1,0,0.2,0
		c0.5,0,1-0.1,1.5-0.2c0.2,0,0.5-0.2,0.6-0.3C249.7,523.3,249.5,523.1,249.2,523.1L249.2,523.1z M255.7,537.7
		c0.2,0.2,0.5,0.6,0.5,0.7c-0.1,0.4-0.5,0.6-0.9,0.6c-0.7-0.1-1.3-0.1-2-0.2c0.6-0.8,1.4-1.5,2.4-1.8l-0.5,0.4
		C255.3,537.5,255.5,537.6,255.7,537.7L255.7,537.7L255.7,537.7z M257.5,584.7c-0.5,0.3-1,0.8-1.5,1.2c-0.3,0.4-0.4,0.9-0.5,1.4
		c-0.2,0.9-0.4,1.8-0.7,2.6c-0.2,0.5-0.8,0.8-1.2,1.2c-0.6,0.8-1.6,1-2.5,0.5c-0.2,0.6,0.2,1,0.4,1.4c0.4,0.7,0.4,0.7-0.3,1.1
		c-0.6,0.4-1.1,0.9-1.6,1.4c-0.4,0.3-0.5,0.9-0.4,1.4c0,0.5-0.1,0.9-0.2,1.4c-0.1,0.2-0.1,0.5-0.1,0.7c0,0.5,0.2,0.9,0.2,1.4
		c0.1,0.8,0.1,1.5,0.2,2.3c0,0.3,0.1,0.5,0.4,0.5c0.2,0,0.3,0.2,0.4,0.3c0.2,0.4,0.4,0.9,0.6,1.4c-0.5,0.4-1.2,0.3-1.6-0.2
		c0,0,0,0,0,0c-0.3-0.5-0.7-0.9-1.3-1.2c-0.9-0.4-1.6-1.1-2.1-2c-0.6-0.9-0.9-1.9-0.9-3c0.2-0.8-0.2-1.5-1-1.8
		c-0.1,0-0.2-0.3-0.3-0.5c-0.1-0.7-0.1-1.5-0.2-2.2c-0.1-1.6-0.3-3.2-0.4-4.8c0-1.2,0-2.4,0-3.6c0-0.5,0-1.1,0-1.6
		c-0.1-1.4-1.1-2.6-2.5-3c-0.8-0.1-1.3-0.8-1.2-1.6c0-0.7-0.4-1.3-0.9-1.6c-0.8-0.4-1.4-1.2-1.7-2c-0.1-0.3-0.3-0.5-0.5-0.7
		c-0.4-0.4-0.6-1-0.5-1.6c0-0.4,0-0.8-0.1-1.2c-0.1-0.3-0.1-0.5-0.1-0.8c0.1-0.8,0.4-1.5,0.8-2.2c0.5-0.7,0.9-1.4,1.2-2.2
		c0.4-0.9,0.1-1.9-0.7-2.4c-0.2-0.1-0.5-0.1-0.8,0c-0.5,0.3-1.2,0.3-1.6-0.1c-1-0.6-1.8-1.5-2.4-2.5c-0.1-0.1-0.2-0.3-0.4-0.3
		c-0.2-0.1-0.5-0.2-0.8-0.2c-0.7,0-1.3-0.4-1.8-0.9c-0.6-0.6-1.4-0.9-2.2-0.8c-0.1,0-0.2,0-0.3,0c-1.6-0.4-3.1-1.3-4.2-2.5
		c-0.4-0.5-0.5-1-0.4-1.6c0.4-3.2,1.1-6.4,2.2-9.5c1.6-4.7,3.8-9.2,6.6-13.3c1.1-1.5,2.3-3,3.4-4.4c0.2-0.2,0.3-0.3,0.6-0.2
		c0.4,0.2,0.8,0.3,1.1,0.2c0.9-0.1,1.9-0.1,2.8-0.3c1.1-0.2,2.2-0.6,3.2-1c0.8-0.5,1.3-1.2,1.4-2.1c0.1-0.2,0.1-0.5,0.2-0.7
		c0.3-0.9,0.3-0.9,1.2-0.7c0.7,0.2,1.4,0.3,1.9,0.4c-0.5,0.2-1.1,0.4-1.6,0.6c-0.5,0.2-0.4,0.3-0.1,0.6c0.2,0.3,0.7,0.9,1.1,1.4
		c0.1,0.1,0.4,0.2,0.5,0.2c0.8-0.3,1.6-0.4,2.4-0.3c-0.2,0.4-0.5,0.7-0.8,1c-0.3,0.2-0.6,0.4-1,0.4c-0.9,0.2-1.9,0.3-2.9,0.5
		c-0.1,0.7-0.7,1.2-1.4,1.1c-1.2,0.2-2.4,0.7-3.4,1.5c-0.7,0.4-1,1.3-0.7,2c0.1,0.3,0.2,0.7,0.7,0.4c0.1,0,0.2,0,0.3,0.1
		c0.5,0.2,0.9,0.5,1.4,0.7s0.8,0.5,1.3,0.3c0.1,0,0.3,0,0.3,0c-0.1,0.8-0.2,1.5-0.4,2.2c0.6,0,1.1-0.2,1.4-0.7
		c0.9-1.4,1.8-2.6,2.8-3.8c0.1-0.2,0.3-0.4,0.4-0.6l0,0c0.5-1,1.6-1.5,2.8-1.2c0.6,0.1,1.1,0.2,1,1c0,0.1,0.3,0.3,0.5,0.3
		c0.8,0.1,1.7-0.1,2.4-0.6c0,0.1,0.1,0.2,0.1,0.4c0,0.2,0,0.3,0,0.5c-0.3,1.3,0.3,2.6,1.6,3.1l0.2,0.1c-0.9,0.9-2.1,1.4-3.4,1.5
		c-0.9,0-1.7,0.2-2.5,0.7c-0.6,0.3-1.3,0.5-1.9,0.7c-0.2,0.1-0.4,0.3-0.6,0.5l0.1,0.2l2.5-0.2c-0.1,0.6,0,1,0.6,1
		c0.2,0,0.4,0.4,0.7,0.6c-1.1,0.2-1.6,1.4-3,1.1l1.1-1c-0.5-0.6-0.6-0.6-1.3-0.2s-1.2,0.9-1.9,1.4c-0.2,0.1-0.3,0.3-0.5,0.3
		c-1.1,0.2-1.6,1.1-2.4,1.8l-0.1,0.2c-0.3,0.4-0.7,0.6-1.2,0.7c-0.2,0-0.4,0.1-0.6,0.2c-0.2,0.2-0.3,0.4-0.4,0.7
		c0.1,1-0.4,1.8-1.3,2.2c-0.8,0.4-1.5,0.8-2.2,1.4c-0.6,0.6-0.8,1.5-0.4,2.3c0.3,0.5,0.3,1.2,0,1.7c0,0.1-0.4,0.2-0.6,0.2
		s-0.3-0.2-0.4-0.3c-0.2-0.7-0.3-1.4-0.4-2.1c-0.1-0.2-0.2-0.5-0.4-0.7h-0.1c0,0.3,0,0.5,0,0.8c0,0-0.1,0.1-0.1,0.1
		c-0.2-0.2-0.4-0.4-0.6-0.6c-0.3-0.2-0.6-0.5-0.9-0.6c-0.3-0.2-0.7,0-0.9,0.3c-0.3,0.4-0.7,0.8-1.1,1.2c-0.3-0.3-0.6-0.7-0.9-1
		c-0.1-0.1-0.3-0.2-0.5-0.1c-0.7,0.1-1.3,0.5-1.7,1c-0.4,0.5-0.9,1-1.5,1.5c-0.5,0.4-0.6,1-0.4,1.6c0.1,0.2,0.1,0.5,0,0.7
		c-0.3,1.3,0.6,2.6,1.9,3c0.7,0.2,1.4-0.1,1.8-0.7c0.1-0.3,0.2-0.6,0.4-0.9c0.1-0.3,0.5-0.5,0.8-0.4c0,0,0.1,0,0.1,0
		c0.2,0.2,0.3,0.5,0.3,0.8c-0.1,0.5-0.3,1-0.5,1.5c-0.2,0.6,0,0.8,0.5,1s0.9,0.1,1.4,0.2c0.4,0,0.8,0.3,0.8,0.7c0,0.1,0,0.2,0,0.2
		c-0.1,0.7-0.1,1.3,0,2c0.1,0.4,0.3,0.7,0.6,1c0.2,0.1,0.5,0.1,0.7,0c0.4-0.3,0.9-0.3,1.4-0.1c0.2,0.1,0.4,0.1,0.5,0.2
		c0.8,0.2,1,0,1.6-0.5c0.4-0.3,0.8-0.6,1.2-0.8c0.1,0,0.3,0,0.4,0.1c0.1,0.1,0.1,0.3,0,0.4c-0.4,0.4-0.2,0.6,0.2,0.7l0.9,0.4
		c-0.6-1,0.2-1.3,0.6-1.9c0.1,0.1,0.3,0.2,0.4,0.3c0.5,0.6,1.3,0.9,2,0.8h0.1c1,0,2,0.4,2.8,1.1c1,0.9,2.3,1.5,3.6,1.8
		c0.6,0.1,1.1,0.5,1.4,1c0.2,0.4,0.6,0.8,0.8,1.2c0.4,0.6,0.3,1.1-0.4,1.4l-0.6,0.3c0.2,0.3,0.4,0.4,0.7,0.2
		c0.2-0.1,0.5-0.2,0.7-0.3c0.2,0,0.4,0.2,0.5,0.3c0.1,0.1-0.1,0.2-0.1,0.3c0,0.1-0.1,0.3,0,0.3c0.1,0.1,0.2,0.1,0.4,0.1
		c0.1,0,0.2-0.1,0.3-0.2c0.4-0.5,1.2-0.5,1.7-0.1c0,0,0.1,0.1,0.1,0.1c0.1,0.1,0.2,0.1,0.2,0.2c0.1,0.9,0.7,0.5,1.1,0.4
		c0.4-0.2,0.8-0.1,1.2,0.1c1,0.4,2,0.7,3,1.1c0.3,0.1,0.5,0.3,0.5,0.7c0.2,1.6-0.3,3.2-1.4,4.3c-0.1,0.1-0.2,0.2-0.3,0.2
		c-0.4,0.2-0.5,0.5-0.5,1c0,1,0,2-0.1,3.1c-0.1,0.6-0.4,1.2-0.6,1.8c-0.2,0.5-0.4,1-1.2,0.8c-0.2,0-0.5,0.1-0.6,0.2
		C257.8,584.5,257.6,584.7,257.5,584.7z M312.9,580.6c-0.4,1-0.7,2.1-1,3.2c-0.1,0.3-0.3,0.6-0.5,0.9c-0.5,1-0.5,1-1.6,0.8
		c-0.8-0.3-1.3-1.2-1-2c0.3-0.3,0.5-0.7,0.7-1.1c0.1-0.5,0.1-0.9,0-1.4c0-0.6,0.3-1.2,0.9-1.5c0.1,0,0.3-0.1,0.4-0.2
		c0.5-0.5,1.1-1.1,1.5-1.6c0.1-0.2,0.2-0.4,0.3-0.5C313.2,578.2,313.2,579.5,312.9,580.6L312.9,580.6L312.9,580.6z M322.9,553.4
		c-0.3-0.4-0.8-0.6-1.3-0.5c-1.7,0.1-3.4-0.2-5-0.8c-1.1-0.3-2.2-0.8-3.2-1.4c-0.8-0.4-1.7-0.7-2.6-0.9c0,0.1,0.1,0.3,0.1,0.4
		c-0.2,1.3,0.7,1.8,1.5,2.6c0.3,0.3,0.6,0.6,1,1l2.2-0.6c0.5-0.2,1.1,0,1.4,0.5c0.4,0.5,0.8,0.9,1.2,1.3c0.4,0.4,0.3,0.5-0.1,0.9
		c-1.2,0.7-2.3,1.5-3.2,2.5c-0.1,0.2-0.2,0.3-0.4,0.4c-0.7,0.5-1.4,0.9-2.1,1.4c-0.9,0.5-2.1,0.2-2.6-0.7c0-0.1-0.1-0.2-0.1-0.3
		c-0.3-1-0.8-2-1.5-2.8c-0.3-0.5-0.6-1.1-0.8-1.6c-0.3-0.6-0.8-1.1-1.4-1.4c-0.6-0.2-1-0.7-1.2-1.2c-0.3-0.8-0.7-1.5-1-2.3
		c-0.8,0.3-0.8,0.3-0.6,1.1c0.4,1.3,1,2.6,1.7,3.8c1.3,1.8,2.4,3.7,3.3,5.8c0.2,0.5,0.3,1.1,0.5,1.7c0.3,0.8,0.7,0.9,1.5,0.5
		c0.1-0.1,0.2-0.1,0.3-0.1h3c-0.1,0.8-0.3,1.6-0.5,2.4c-0.2,0.7-0.5,1.3-0.9,1.8c-0.7,0.6-1.4,1.1-2.2,1.6c-0.2,0.1-0.4,0.3-0.5,0.5
		c-0.9,1.6-1.7,3.1-2.5,4.7c-0.2,0.4-0.3,0.7,0,1c1.2,1.2,0.8,2.8,0.8,4.3c0,0.2-0.3,0.4-0.5,0.5c-1,0.4-1.8,1-2.5,1.8
		c-0.3,0.3-0.5,0.7-0.5,1.2c-0.2,1.3-0.6,2.5-1.2,3.6c-1,1.6-1.8,3.3-2.6,5c-0.1,0.4-0.5,0.6-0.9,0.7l-2.5,0.2
		c-0.4,0-0.7,0.1-1.1,0.1c-0.2,0-0.3,0-0.5-0.1c-0.3-0.2-0.6-0.5-0.8-0.7c0-0.8-0.2-1.7-0.6-2.4c-0.2-0.3-0.4-0.5-0.5-0.8
		c-0.6-0.8-0.9-1.8-0.9-2.8c0-0.5-0.2-1.1-0.5-1.5c-0.6-1-1-2.1-1.1-3.2c0-0.6,0.1-1.3,0.3-1.9c0.1-0.3,0.2-0.5,0.3-0.7
		c0.3-0.5,0.3-1.1,0.1-1.7c-0.4-1.9-1.2-3.7-2.4-5.3c-0.2-0.4-0.2-1,0-1.4c0.2-0.4,0.4-0.7,0.6-1.1c0.2-0.3,0.2-0.5-0.2-0.7
		c-0.4-0.1-0.6-0.4-0.7-0.8c0-0.1-0.3-0.3-0.5-0.3c-0.8,0.1-1.5-0.2-2-0.7c-0.3-0.3-0.8-0.3-1.3-0.3c-0.3,0-0.6,0.1-1,0.2l-4.5,1.1
		c-0.7,0.2-1.5-0.1-2-0.7c-0.1-0.2-0.3-0.3-0.4-0.4c-0.7-0.4-1.1-1.1-1.1-1.9c-0.1-0.3-0.3-0.6-0.6-0.8c-1.4-0.4-1.6-1.7-1.9-2.8
		c0-0.3,0-0.7,0.3-1c0.4-0.3,0.5-0.8,0.3-1.3c-0.5-1.1-0.4-2.5,0.3-3.5c0.4-0.8,0.9-1.4,1.5-1.9c0.3-0.2,0.3-0.6,0.6-0.8
		c0.8-0.7,1.3-1.6,1.5-2.6c0.2-0.4,0.5-0.8,0.9-1c0.5-0.5,1.1-1,1.7-1.5c0.3-0.3,0.5-0.3,0.7,0.1c0.1,0.2,0.3,0.2,0.5,0.3l2.5-0.3
		c0.2-0.1,0.5-0.1,0.7-0.2c1.2,0,2.4-0.2,3.5-0.8c0.2-0.1,0.5-0.1,0.8,0c0.1,0,0.1,0.4,0.1,0.6c0,0.6,0.3,1.1,0.8,1.5l1.2,1.2
		c0.1,0.1,0.2,0.2,0.3,0.2c0.8,0.1,1.7,0.3,2.5,0.4c0.4,0,0.7-0.2,0.8-0.7c0.1-0.5,0.6-0.7,0.9-1c0,0.1,0,0.1,0,0.2
		c0.2,0.2,0.4,0.3,0.6,0.5c0.4,0.2,0.9,0.5,1.4,0.6c0.4,0,0.7,0,1.1,0c0.2,0,0.4,0,0.6,0c0.9,0.1,1.8,0.2,2.6,0.4
		c0.3,0.1,0.6,0,0.8-0.2c0.8-0.4,1.2-1.3,0.9-2.2c-0.1-0.4-0.1-0.8-0.2-1.1c-0.6-0.2-1.2-0.2-1.7,0.1c-0.6,0.4-1.5,0.3-2-0.2
		c-0.9-0.5-1.5-1.4-1.8-2.4c0.9,0.4,1.2-0.1,1.6-0.8c-1.1,0.2-2,0.4-2.9,0.7c-0.3,0.1-0.5,0.4-0.4,0.7c0,0.1,0,0.1,0.1,0.2
		c0.1,0.1,0.1,0.2,0.1,0.4c0,0.2-0.1,0.4-0.2,0.6c-0.3-0.1-0.6-0.2-0.8-0.4c-0.1-0.2-0.3-0.7-0.7-0.8c-0.1,0-0.1-0.1-0.1-0.2
		c0.1-0.9-0.7-1.4-1.1-2c-0.2-0.2-0.4-0.3-0.6-0.3c-0.6,0-1.1-0.3-1.5-0.8c-0.1-0.2-0.3-0.4-0.5-0.5c-0.3-0.2-0.6-0.4-0.9,0
		c-0.3,0.2-0.3,0.7-0.1,1c0,0,0,0,0.1,0.1c0.5,0.6,1.1,1.1,1.9,1.4c0.5,0.2,0.8,0.6,1,1.1c-0.6,0.5-1.6,0.4-2.1-0.2
		c-0.1-0.1-0.2-0.2-0.2-0.4c-0.2-0.3-0.4-0.5-0.6-0.7c-0.4-0.5-0.7-0.9-1.1-1.3c-0.6-0.5-1.7-0.5-1.8,0.4c0,0.1,0,0.2-0.1,0.3
		l-0.4-0.1c-0.7-0.2-1.4,0-1.7,0.7c-0.1,0.2-0.3,0.4-0.5,0.6c-0.2,0.2-0.3,0.3-0.4,0.5c-0.2,0.8-0.8,1.4-1.6,1.6
		c-1,0.2-2.1,0.3-3.2,0.3c-0.2-0.1-0.4-0.2-0.5-0.5c-0.1-0.7-0.1-1.5,0-2.2c0.2-0.8,0.9-1.3,1.6-1.2h2.2c0.3,0,0.5-0.1,0.4-0.4
		c0-0.1,0-0.3,0-0.4c0.1-0.9,0.1-1-0.7-1.4c-0.2-0.1-0.5-0.2-0.7-0.4c-0.2-0.1-0.3-0.2-0.2-0.3c0-0.1,0.1-0.2,0.3-0.3
		c0.3-0.1,0.6-0.1,0.9-0.2c1.2,0,2.3-0.7,2.8-1.7c0.2-0.6,0.8-1,1.5-1.1c1.1-0.2,1.2-0.4,1.4-1.5c0.1-0.3,0.2-0.5,0.3-0.8h0.2
		c0.2,0.4,0.3,0.8,0.5,1.1c0.1,0.4,0.4,0.7,0.8,0.8c0.4,0,0.8,0,1.2,0c0.7-0.1,1.4-0.2,2.1-0.3c0.2,0,0.4,0,0.5-0.4
		c0.1-0.4,0.4-0.5,0.6-0.7c0.2-0.2,0.5-0.3,0.6-0.8c0.1-0.5,0.6-0.8,1.1-0.8c0.2,0,0.4,0.2,0.5,0.4c0.1,0.3,0.2,0.5,0.3,0.8
		c0.7-0.7,1-1.7,0.8-2.6c-0.3,0.1-0.6,0.1-0.9,0.2c-0.4,0.1-0.8,0.1-1.2,0c-1.1-0.2-1.4-0.8-0.7-1.8c0.2-0.3,0.5-1,0.4-1.1
		c-0.4-0.3-0.8,0.1-1.1,0.4c-0.8,0.6-1.3,1.4-1.6,2.3c-0.2,0.8-0.5,1.6-1,2.3c-0.2,0.3-0.8,0.4-1.2,0.5c-0.1,0-0.4-0.3-0.6-0.5
		c-0.2-0.2-0.3-0.5-0.4-0.7c0,0.1,0,0.1,0,0.2l-2.5,0.1c0-0.1-0.1-0.2-0.1-0.3c-0.4-1.8-0.5-1.5,1.2-2.2c0.5-0.3,1-0.7,1.4-1.1
		l1.1-1c0.1-0.1,0.1-0.1,0.2-0.2c1.1-1.5,2.9-1.8,4.6-2.1c1.5-0.1,3.1,0.2,4.5,0.8l2.5,0.7c-1.1,0.9-2.1,0-3.1,0.2
		c0,0-0.1,0.1,0,0.1c0.5,0.6,1.1,1.2,1.8,1.7c0.4,0.2,0.9,0,1.1-0.4c0-0.1,0-0.1,0.1-0.2c0.1-0.3,0.2-0.5,0.6-0.5
		c0.5,0,0.9-0.3,1.1-0.7c0.2-0.4,0.4-0.5,0.8-0.4c0,0.4,0.1,0.6,0.6,0.5c0.2,0,0.3-0.1,0.5-0.2c0.5-0.3,1.1-0.4,1.6-0.4
		c0.8,0,1.6-0.2,2.4-0.5c0.7-0.2,1.1-0.1,1.5,0.3c3.4,3.5,6.3,7.5,8.6,11.9c2.8,5.2,4.6,10.7,5.5,16.5c0,0.1,0,0.1,0,0.2
		C324.1,555.1,323.5,554.2,322.9,553.4L322.9,553.4L322.9,553.4z"/>
	<path class="st2" d="M325.4,554.8c-1.3,0.3-1.9-0.7-2.6-1.4c-0.3-0.4-0.8-0.6-1.3-0.5c-2.9,0-5.7-0.8-8.2-2.2
		c-0.8-0.5-1.7-0.7-2.6-0.9c0,0.1,0.1,0.3,0.1,0.4c-0.2,1.3,0.7,1.9,1.5,2.6c0.3,0.3,0.6,0.6,1,1l2.2-0.6c0.5-0.2,1.1,0,1.4,0.5
		c0.4,0.5,0.8,0.9,1.2,1.3c0.4,0.4,0.3,0.5-0.1,0.9c-1.2,0.7-2.3,1.5-3.2,2.5c-0.1,0.1-0.2,0.3-0.4,0.4c-0.7,0.5-1.4,0.9-2.1,1.4
		c-0.9,0.5-2.1,0.2-2.6-0.7c0-0.1-0.1-0.2-0.1-0.3c-0.3-1-0.8-2-1.5-2.8c-0.3-0.5-0.6-1-0.8-1.6c-0.3-0.6-0.8-1.2-1.4-1.4
		c-0.5-0.2-1-0.7-1.2-1.2c-0.3-0.8-0.7-1.6-1-2.3c-0.8,0.3-0.8,0.3-0.6,1.1c0.4,1.3,1,2.6,1.7,3.8c1.3,1.8,2.4,3.7,3.3,5.8
		c0.2,0.5,0.3,1.1,0.5,1.7c0.3,0.8,0.7,0.9,1.5,0.5c0.1-0.1,0.2-0.1,0.2-0.1h3c-0.2,0.8-0.2,1.6-0.5,2.4c-0.2,0.7-0.5,1.3-0.9,1.8
		c-0.7,0.6-1.4,1.1-2.2,1.6c-0.2,0.1-0.4,0.3-0.5,0.5c-0.8,1.5-1.6,3.1-2.5,4.7c-0.2,0.4-0.3,0.7,0,1c1.1,1.2,0.8,2.8,0.8,4.3
		c0,0.2-0.3,0.4-0.5,0.5c-0.9,0.4-1.8,1-2.5,1.8c-0.3,0.3-0.5,0.7-0.5,1.2c-0.1,1.3-0.6,2.5-1.2,3.6c-0.9,1.6-1.8,3.3-2.6,5
		c-0.1,0.4-0.5,0.6-0.9,0.7c-0.9,0-1.7,0.1-2.5,0.2c-0.4,0-0.7,0.1-1.1,0.1c-0.2,0-0.3,0-0.5-0.1c-0.3-0.2-0.6-0.5-0.8-0.7
		c0-0.8-0.2-1.7-0.6-2.4c-0.2-0.3-0.4-0.5-0.6-0.8c-0.5-0.8-0.9-1.7-0.9-2.7c0-0.5-0.2-1.1-0.5-1.5c-0.6-1-1-2.1-1.2-3.2
		c0-0.6,0.1-1.3,0.4-1.9c0.1-0.3,0.2-0.5,0.3-0.8c0.2-0.5,0.3-1.1,0.1-1.7c-0.4-1.9-1.2-3.7-2.4-5.3c-0.2-0.4-0.2-1,0-1.4
		c0.2-0.4,0.4-0.7,0.6-1.1c0.2-0.3,0.2-0.5-0.2-0.7c-0.4-0.1-0.6-0.4-0.7-0.8c-0.1-0.2-0.3-0.3-0.5-0.3c-0.7,0.1-1.5-0.2-2-0.7
		c-0.4-0.2-0.8-0.3-1.3-0.3c-0.3,0-0.7,0.1-1,0.2l-4.5,1.1c-0.7,0.2-1.5-0.1-2-0.6c-0.1-0.2-0.3-0.3-0.4-0.4
		c-0.7-0.4-1.1-1.1-1.1-1.9c-0.1-0.3-0.3-0.6-0.6-0.8c-1.4-0.4-1.5-1.7-1.9-2.8c-0.1-0.3,0-0.7,0.2-0.9c0.4-0.3,0.5-0.8,0.2-1.3
		c-0.5-1.2-0.4-2.5,0.3-3.5c0.4-0.8,0.9-1.4,1.5-1.9c0.3-0.2,0.3-0.6,0.6-0.8c0.8-0.7,1.3-1.6,1.5-2.6c0.2-0.4,0.5-0.8,0.9-1
		c0.5-0.5,1.1-1,1.7-1.5c0.3-0.3,0.5-0.3,0.7,0.1c0.1,0.2,0.3,0.2,0.4,0.3c0.8-0.1,1.7-0.2,2.5-0.3c0.2-0.1,0.5-0.1,0.8-0.1
		c1.2,0,2.4-0.2,3.5-0.8c0.2-0.1,0.5-0.1,0.8,0c0.1,0,0.1,0.4,0.1,0.6c0,0.6,0.3,1.1,0.8,1.5c0.4,0.4,0.8,0.8,1.2,1.2
		c0.1,0.1,0.1,0.2,0.2,0.2c0.8,0.1,1.7,0.3,2.5,0.4c0.4,0,0.7-0.2,0.9-0.7c0.1-0.5,0.5-0.7,0.8-1l0.1,0.2c0.2,0.2,0.4,0.3,0.6,0.5
		c0.4,0.2,0.9,0.4,1.4,0.6c0.4,0,0.7,0,1.1,0c0.2,0,0.4,0,0.6,0c0.9,0.1,1.8,0.2,2.6,0.4c0.3,0.1,0.6,0,0.8-0.2
		c0.8-0.4,1.2-1.3,0.9-2.2c-0.1-0.4-0.1-0.7-0.2-1.1c-0.6-0.2-1.2-0.2-1.7,0.1c-0.6,0.4-1.5,0.3-2-0.2c-0.9-0.5-1.5-1.4-1.8-2.4
		c0.8,0.4,1.2-0.1,1.6-0.8c-1.1,0.2-2,0.4-2.9,0.7c-0.3,0.1-0.5,0.4-0.5,0.7c0,0.1,0,0.2,0.1,0.2c0.1,0.1,0.1,0.2,0.1,0.4
		c0,0.2-0.1,0.4-0.2,0.6c-0.3-0.1-0.7-0.2-0.8-0.4s-0.3-0.7-0.7-0.8c-0.1,0-0.1-0.1-0.1-0.2c0.1-0.9-0.7-1.4-1.1-2
		c-0.1-0.2-0.4-0.2-0.6-0.3c-0.6,0-1.1-0.3-1.5-0.8c-0.1-0.2-0.3-0.4-0.5-0.5c-0.3-0.2-0.6-0.4-0.9,0c-0.3,0.2-0.3,0.7-0.1,1
		c0,0,0,0.1,0.1,0.1c0.5,0.6,1.1,1.1,1.9,1.4c0.5,0.2,0.8,0.6,1,1.1c-0.6,0.5-1.6,0.4-2.1-0.2c-0.1-0.1-0.2-0.2-0.2-0.4
		c-0.2-0.3-0.4-0.5-0.6-0.7c-0.4-0.5-0.7-0.9-1.1-1.3c-0.6-0.5-1.7-0.5-1.8,0.4c0,0.1,0,0.2-0.1,0.3l-0.4-0.1
		c-0.6-0.2-1.4,0-1.7,0.7c-0.1,0.2-0.3,0.4-0.5,0.6c-0.2,0.2-0.3,0.3-0.4,0.5c-0.2,0.8-0.8,1.4-1.6,1.6c-1,0.2-2.1,0.3-3.2,0.3
		c-0.2-0.1-0.4-0.2-0.5-0.5c-0.1-0.7-0.1-1.5,0-2.2c0.1-0.8,0.8-1.3,1.6-1.2c0.7,0,1.5,0,2.2,0c0.3,0,0.5-0.1,0.4-0.4
		c0-0.1,0-0.3,0-0.4c0.1-0.9,0.1-1-0.7-1.4c-0.2-0.1-0.5-0.2-0.7-0.4c-0.2-0.1-0.3-0.2-0.2-0.3c0-0.1,0.1-0.2,0.3-0.3
		c0.3-0.1,0.6-0.1,0.9-0.2c1.2,0,2.3-0.7,2.8-1.7c0.2-0.6,0.8-1,1.5-1.1c1.1-0.2,1.2-0.4,1.4-1.5c0.1-0.3,0.2-0.5,0.3-0.8h0.2
		c0.2,0.4,0.3,0.8,0.4,1.1c0.1,0.5,0.3,0.8,0.8,0.8c0.4,0,0.8,0,1.2,0c0.7-0.1,1.4-0.2,2.1-0.3c0.3,0,0.4,0,0.5-0.4s0.4-0.5,0.6-0.7
		c0.2-0.2,0.5-0.3,0.6-0.8c0-0.5,0.7-0.9,1.1-0.8c0.2,0.1,0.4,0.2,0.5,0.4c0.1,0.2,0.2,0.5,0.3,0.8c0.7-0.7,1-1.7,0.8-2.6
		c-0.3,0.1-0.6,0.2-0.9,0.2c-0.4,0.1-0.8,0.1-1.2,0c-1.1-0.2-1.4-0.8-0.7-1.8c0.2-0.3,0.5-1,0.4-1.1c-0.4-0.3-0.8,0.1-1.1,0.4
		c-0.8,0.6-1.3,1.4-1.6,2.3c-0.2,0.8-0.5,1.6-1,2.3c-0.2,0.3-0.8,0.4-1.2,0.5c-0.2,0-0.4-0.3-0.6-0.5c-0.2-0.2-0.3-0.5-0.4-0.7v0.2
		l-2.5,0.1c0-0.1-0.1-0.2-0.1-0.3c-0.3-1.8-0.5-1.5,1.2-2.2c0.5-0.3,1-0.7,1.4-1.1l1.1-1c0.1,0,0.1-0.1,0.2-0.2
		c1.1-1.5,2.9-1.8,4.6-2.1c1.6-0.1,3.1,0.2,4.5,0.8c0.8,0.2,1.5,0.5,2.5,0.7c-1.1,0.9-2.1,0-3.1,0.2v0.1c0.5,0.6,1.1,1.2,1.8,1.7
		c0.4,0.3,1.1,0,1.2-0.6s0.2-0.5,0.6-0.5c0.5,0,0.9-0.3,1.1-0.7c0.2-0.4,0.4-0.5,0.8-0.4c0,0.4,0.1,0.6,0.6,0.5
		c0.2,0,0.3-0.1,0.4-0.2c0.5-0.3,1.1-0.4,1.7-0.4c0.8,0,1.6-0.2,2.4-0.5c0.5-0.2,1.1-0.1,1.5,0.3c3.4,3.5,6.3,7.5,8.6,11.9
		C322.6,543.5,324.5,549.1,325.4,554.8L325.4,554.8z"/>
	<path class="st2" d="M243.3,534.6l-0.4,2.2c0.6,0,1.1-0.2,1.4-0.7c0.9-1.3,1.8-2.5,2.8-3.8c0.1-0.2,0.3-0.4,0.4-0.6
		c0.5-1,1.6-1.5,2.8-1.2c0.6,0.1,1.1,0.2,1,1c0,0.1,0.3,0.3,0.4,0.3c0.8,0.1,1.7-0.1,2.4-0.6c0.1,0.1,0.1,0.2,0.1,0.4
		c0,0.2,0,0.3,0,0.5c-0.3,1.3,0.3,2.6,1.6,3.1l0.2,0.1c-0.9,0.9-2.1,1.4-3.4,1.5c-0.9,0-1.7,0.2-2.5,0.7c-0.6,0.3-1.3,0.5-2,0.7
		c-0.2,0.2-0.4,0.3-0.6,0.5l0.1,0.2l2.5-0.2c-0.1,0.6,0,1,0.6,1c0.2,0,0.4,0.3,0.8,0.6c-1.1,0.2-1.6,1.4-3,1.1l1.1-1
		c-0.5-0.5-0.6-0.6-1.3-0.2c-0.7,0.4-1.2,0.9-1.9,1.4c-0.2,0.1-0.3,0.3-0.5,0.4c-1.1,0.2-1.6,1.1-2.3,1.8c-0.3,0.4-0.8,0.7-1.4,0.8
		c-0.2,0-0.4,0.1-0.6,0.2c-0.2,0.2-0.3,0.4-0.4,0.7c0.1,1-0.4,1.8-1.3,2.2c-0.8,0.4-1.5,0.9-2.2,1.4c-0.6,0.6-0.8,1.5-0.4,2.3
		c0.2,0.5,0.2,1.2,0,1.7c0,0.1-0.4,0.2-0.6,0.3s-0.3-0.2-0.4-0.4c-0.2-0.7-0.3-1.4-0.5-2.1c-0.1-0.2-0.2-0.5-0.4-0.7l-0.1,0.1v0.8
		l-0.1,0.1c-0.2-0.2-0.4-0.4-0.6-0.6c-0.3-0.2-0.6-0.5-0.9-0.7c-0.3-0.2-0.7,0-0.9,0.3c-0.3,0.4-0.7,0.8-1.1,1.2
		c-0.3-0.3-0.6-0.7-0.9-1c-0.1-0.1-0.3-0.2-0.5-0.1c-0.7,0.1-1.2,0.5-1.7,1c-0.4,0.5-0.9,1-1.5,1.5c-0.5,0.4-0.7,1-0.4,1.6
		c0.1,0.2,0.1,0.5,0,0.7c-0.3,1.3,0.6,2.7,1.9,3c0.7,0.2,1.4-0.1,1.8-0.7c0.1-0.3,0.2-0.6,0.4-0.9c0.1-0.3,0.5-0.5,0.8-0.4
		c0,0,0.1,0,0.1,0c0.2,0.1,0.3,0.6,0.3,0.8c-0.1,0.5-0.3,1-0.5,1.5c-0.2,0.6,0,0.8,0.6,1s0.9,0.1,1.4,0.2c0.4,0,0.8,0.3,0.8,0.8
		c0,0.1,0,0.1,0,0.2c-0.1,0.6-0.1,1.3,0,1.9c0.1,0.4,0.3,0.7,0.6,1c0.2,0.1,0.5,0.1,0.7,0c0.4-0.3,0.9-0.3,1.4-0.1l0.5,0.1
		c0.8,0.2,1,0,1.5-0.5c0.4-0.3,0.8-0.6,1.2-0.8c0.1,0,0.3,0,0.4,0.1c0.1,0.1,0.1,0.3,0,0.4c-0.4,0.4-0.2,0.6,0.2,0.7l0.9,0.4
		c-0.6-1,0.2-1.3,0.6-1.9c0.1,0.1,0.3,0.2,0.4,0.3c0.5,0.6,1.3,0.9,2.1,0.8c1.1,0,2.1,0.4,2.8,1.1c1,0.9,2.3,1.5,3.6,1.8
		c0.6,0.1,1.1,0.5,1.4,1c0.2,0.4,0.6,0.8,0.8,1.2c0.3,0.4,0.3,0.9-0.1,1.2c-0.1,0.1-0.2,0.1-0.3,0.2l-0.6,0.3
		c0.2,0.3,0.4,0.4,0.7,0.2c0.2-0.1,0.5-0.2,0.7-0.3c0.2,0,0.4,0.1,0.5,0.2c0,0-0.1,0.2-0.1,0.4c0,0.1-0.1,0.3,0,0.3
		c0.1,0.1,0.2,0.1,0.4,0.1c0.1,0,0.2-0.1,0.3-0.2c0.4-0.5,1.1-0.5,1.6-0.1c0,0,0.1,0.1,0.1,0.1c0.1,0,0.2,0.1,0.2,0.2
		c0.1,0.9,0.7,0.5,1.1,0.4c0.4-0.2,0.8-0.1,1.2,0.1c1,0.4,2,0.8,3,1.1c0.3,0.1,0.5,0.4,0.5,0.7c0.2,1.6-0.3,3.1-1.4,4.3
		c-0.1,0.1-0.2,0.2-0.3,0.2c-0.4,0.2-0.5,0.5-0.5,1c0,1,0,2-0.1,3c-0.1,0.6-0.4,1.2-0.6,1.8c-0.2,0.5-0.4,1-1.2,0.8
		c-0.3,0-0.8,0.3-1.1,0.5c-0.5,0.3-1,0.8-1.5,1.2c-0.3,0.4-0.4,0.9-0.5,1.4c-0.2,0.9-0.4,1.8-0.7,2.6c-0.2,0.5-0.8,0.8-1.2,1.2
		c-0.6,0.8-1.6,1-2.5,0.5c-0.2,0.6,0.2,1,0.4,1.4c0.4,0.7,0.4,0.6-0.2,1.1c-0.6,0.4-1.1,0.9-1.6,1.4c-0.4,0.4-0.5,0.9-0.4,1.4
		c0,0.5-0.1,0.9-0.2,1.4c-0.1,0.2-0.1,0.5-0.1,0.7c0,0.5,0.2,0.9,0.3,1.4c0.1,0.8,0.1,1.5,0.2,2.3c0,0.3,0.1,0.5,0.5,0.5
		c0.1,0,0.3,0.2,0.4,0.3c0.2,0.4,0.4,0.9,0.6,1.4c-0.5,0.4-1.2,0.3-1.6-0.2l0,0c-0.3-0.5-0.7-0.9-1.3-1.2c-0.9-0.4-1.6-1.1-2-2
		c-0.6-0.9-0.9-1.9-0.9-3c0.2-0.8-0.2-1.5-1-1.8c-0.1,0-0.2-0.3-0.3-0.5c-0.1-0.8-0.1-1.5-0.2-2.3c-0.1-1.6-0.3-3.2-0.4-4.8
		c0-1.2,0-2.4,0-3.6c0-0.5,0-1.1,0-1.6c-0.1-1.4-1.1-2.6-2.5-3c-0.8-0.1-1.3-0.8-1.2-1.6c0-0.7-0.4-1.3-0.9-1.6
		c-0.8-0.5-1.4-1.2-1.7-2c-0.1-0.2-0.3-0.5-0.5-0.7c-0.4-0.4-0.6-1-0.5-1.6c0-0.4,0-0.8-0.1-1.2c-0.1-0.3-0.1-0.5-0.1-0.8
		c0.1-0.8,0.4-1.5,0.8-2.1c0.5-0.7,0.9-1.4,1.2-2.2c0.3-0.9,0.1-1.9-0.7-2.4c-0.2-0.1-0.5-0.1-0.8,0c-0.5,0.3-1.2,0.3-1.7-0.1
		c-1-0.6-1.8-1.5-2.4-2.5c-0.1-0.2-0.2-0.3-0.4-0.3c-0.2-0.1-0.5-0.1-0.8-0.2c-0.7,0-1.3-0.3-1.8-0.9c-0.6-0.6-1.4-0.9-2.2-0.8
		c-0.1,0-0.2,0-0.3,0c-1.6-0.4-3.1-1.3-4.2-2.5c-0.4-0.5-0.5-1-0.4-1.6c0.4-3.2,1.1-6.4,2.2-9.4c1.6-4.7,3.8-9.2,6.7-13.3
		c1.1-1.5,2.3-3,3.4-4.4c0.2-0.2,0.4-0.3,0.6-0.1c0.4,0.2,0.8,0.3,1.2,0.2c0.9-0.1,1.9-0.1,2.8-0.3c1.1-0.2,2.2-0.6,3.3-1
		c0.8-0.5,1.3-1.2,1.5-2.1c0.1-0.2,0.1-0.5,0.2-0.7c0.3-0.9,0.3-0.9,1.2-0.7l1.9,0.4c-0.5,0.2-1.1,0.4-1.6,0.6
		c-0.3,0.1-0.4,0.3-0.1,0.6c0.2,0.3,0.7,0.9,1.1,1.4c0.1,0.1,0.3,0.2,0.5,0.2c0.8-0.3,1.6-0.4,2.4-0.3c-0.2,0.4-0.4,0.7-0.7,1
		c-0.3,0.2-0.6,0.4-1,0.4c-0.9,0.2-1.9,0.3-2.9,0.5c-0.1,0.7-0.7,1.2-1.4,1.2c-1.2,0.2-2.4,0.7-3.4,1.5c-0.7,0.4-1,1.2-0.7,2
		c0.1,0.3,0.2,0.7,0.7,0.5c0.1,0,0.2,0,0.3,0.1c0.4,0.2,0.9,0.5,1.4,0.7s0.8,0.5,1.3,0.3C243.1,534.6,243.2,534.6,243.3,534.6z"/>
	<path class="st2" d="M258,521.7c1.2-0.2,2.3-0.3,3.4-0.6c0.5-0.1,0.9-0.3,1.4-0.5c1.2-0.6,2.5-0.8,3.8-0.7c1.2,0.2,2.5,0.3,3.7,0.4
		c0.5,0.1,0.9-0.1,1.3-0.4c0.1-0.2,0.5-0.2,0.7-0.2c1-0.2,1.9-0.3,2.9-0.4c0.5-0.1,1-0.1,1.5,0c1.2,0.2,2.4,0.4,3.5,0.6
		c0.2,0,0.4,0.1,0.5,0.2c-0.5,0-1,0-1.5,0.1c-0.3,0-0.6,0.1-0.9,0.2c-0.4,0.2-0.9,0.5-0.9,1.1c0,0.7-0.5,1.2-1.1,1.4
		c-0.6,0.2-1.3,0.5-1.9,0.8c-0.3,0.2-0.3,0.3,0,0.5l1.4,0.8c-0.8,0.3-0.8,0.3-2.3-0.4l0.7,1.1c-1,0.3-2,0.6-3.1,0.8
		c-1,0.2-1.9,0.6-2.6,1.2c-0.8,0.5-1.7,0.8-2.6,0.9c-0.5,0.1-0.9,0.2-0.9,0.8c-0.1,0.3-0.2,0.5-0.4,0.7c-0.3,0.2-0.5,0.4-0.8,0.6
		c-0.7,0.5-1.8,0.4-2.3-0.3c-0.2-0.3-0.3-0.7-0.3-1c0-0.3,0-0.7,0-1c0.1-0.4,0.2-0.8,0.5-1.1c0.1-0.2,0.2-0.3,0.4-0.4
		c1-0.8,1.1-2.3,0.3-3.3c-0.3-0.3-0.6-0.6-1-0.7c-0.7-0.5-1.6-0.7-2.4-0.8C258.6,522,258.3,521.9,258,521.7z"/>
	<path class="st2" d="M249,523.1c0.4-0.7,0.8-0.9,1.5-0.6c0.7,0.4,1.5,0.4,2.2,0.2l0.1,0.1c-0.1,0.2-0.2,0.4-0.3,0.4
		c-0.1,0.1-0.7,0.2-1,0.3c-0.2,0.1-0.3,0.2-0.3,0.4c0,0.1,0.2,0.3,0.3,0.3l4.1,1.2c0.1,0.1,0.2,0.2,0.2,0.3c0,0.2,0,0.4-0.1,0.5
		c-0.2,1,0,1.4,1.1,1.4c0,0.3-0.2,0.7-0.6,0.7c-0.7,0.2-1.4,0.4-2,0.6c-0.3,0.1-0.6,0.2-0.5,0.6c0,0.1-0.1,0.2-0.1,0.3
		c-0.6,0.4-1.3,0.4-1.9,0c-0.4-0.4-0.3-1,0.1-1.4c0.1-0.1,0.3-0.2,0.5-0.2c0.4-0.1,0.8-0.1,1.2-0.2c0.2,0,0.3-0.2,0.4-0.3
		c0-0.1-0.1-0.3-0.2-0.4c-1-0.9-2.3-1.4-3.7-1.5c-0.8,0-1.5-0.1-2.3-0.2c-0.3,0-0.7,0-0.8-0.5c-0.1-0.4,0.2-0.7,0.6-0.8
		c0.1,0,0.1,0,0.2,0c0.5,0,1-0.1,1.5-0.2c0.2,0,0.5-0.2,0.6-0.3c0.1-0.4-0.1-0.6-0.6-0.6C249.1,523.1,249,523.1,249,523.1z"/>
	<path class="st2" d="M312.7,577.1c0.5,1.1,0.5,2.4,0.2,3.5c-0.4,1-0.7,2.1-1,3.2c-0.1,0.3-0.3,0.6-0.4,0.9c-0.5,1-0.5,1-1.6,0.8
		c-0.8-0.3-1.3-1.2-1-2c0,0,0,0,0,0c0.3-0.3,0.5-0.7,0.7-1.1c0.1-0.5,0.1-0.9,0-1.4c0-0.6,0.3-1.2,0.9-1.5c0.1,0,0.3-0.1,0.4-0.2
		c0.5-0.5,1.1-1.1,1.5-1.6C312.5,577.4,312.6,577.3,312.7,577.1z"/>
	<path class="st2" d="M262.2,519.3c-0.9,0.7-2,1.2-3.2,1.4c-1.6,0.3-3.2,0.9-4.5,1.8c-0.4,0.3-0.9,0.5-1.2-0.2
		c-0.1-0.1-0.3-0.2-0.5-0.2c-0.4,0-0.9-0.1-1.3-0.2c0.1-0.1,0.3-0.2,0.4-0.3c0.4-0.1,0.7-0.2,1.1-0.3c0.4-0.1,0.9-0.2,1-0.7
		c0.1-0.2,0.3-0.4,0.5-0.5c0.7-0.2,1.5-0.3,2.2-0.4c0.5,0,0.9-0.1,1.4-0.2c0.8-0.3,1.7-0.4,2.6-0.4c0.3,0,0.5,0,0.8,0h0.8
		L262.2,519.3z"/>
	<path class="st2" d="M282.6,534.9c-0.3-0.5-0.8-0.7-1.1-0.5c-0.9,0.6-1,0.8-0.6,1.5l-1.8,0.7c-0.1-0.6,0.6-1.2,0-1.8
		c0.2-0.4,0.7-0.7,1.2-0.7h0.7c0.4,0,0.7-0.2,0.6-0.6c0-0.2,0-0.3,0.1-0.4c0.1-0.2,0.3-0.5,0.5-0.6s0.5,0.2,0.8,0.3
		c-0.5,0.6-0.3,0.9,0.2,1.1c0.1,0.1,0.2,0.1,0.3,0.2c0.1,0.4,0.3,0.8,0.5,1.1c0.3,0.3,0.7,0.5,1.1,0.6c-0.3,0.3-0.7,0.5-1,0.8
		c-0.4,0.2-0.7,0.4-1.1,0.5c-0.3,0-0.6,0-1,0V537l0.7-0.4c-0.2-0.3-0.6-0.5-0.6-0.8C282.1,535.5,282.4,535.2,282.6,534.9z"/>
	<path class="st2" d="M274.4,528.6c0.2-0.1,0.5-0.2,0.7-0.3c0.7-0.2,1.5-0.4,2.2-0.6c0.4-0.1,0.8-0.1,0.9,0.3
		c0.1,0.4-0.1,0.6-0.3,0.7c-0.4,0.3-0.9,0.5-1.4,0.7c-0.4,0.2-1,0.1-1.3-0.3c-0.1-0.2-0.5-0.2-0.7-0.4L274.4,528.6z"/>
	<path class="st2" d="M253.2,538.8c0.6-0.8,1.4-1.5,2.4-1.8l-0.5,0.4c0.2,0.1,0.4,0.1,0.5,0.3s0.5,0.6,0.5,0.7
		c-0.1,0.4-0.5,0.6-0.9,0.6C254.6,538.9,253.9,538.9,253.2,538.8z"/>
</g>
<linearGradient id="SVGID_1_" gradientUnits="userSpaceOnUse" x1="282.2469" y1="610.3153" x2="195.7904" y2="699.8908" gradientTransform="matrix(1 0 0 1 -1.36 -56.98)">
	<stop  offset="0" style="stop-color:#000000;stop-opacity:0"/>
	<stop  offset="0.99" style="stop-color:#000000"/>
</linearGradient>
<path class="st3" d="M301.2,606.5l-0.1,0.6c-25,15-57.4,6.9-72.4-18s-6.9-57.4,18.1-72.4c5.7-3.4,12-5.7,18.5-6.8
	c-3.7,3.1-7.2,6.5-10.2,10.3c-0.6,0.7-1.2,1.5-1.8,2.3c-0.6,0.8-0.9,1.3-1.4,1.9c-0.4,0.7-0.7,1-1,1.5c-1.2,1.9-2.4,3.9-3.4,5.9l0,0
	c-1.9,3.8-3.2,7.9-4,12.2c-1.1,6.4-0.6,13.1,1.6,19.2c1.1,3.1,2.4,6.2,4.1,9c2.6,4.4,5.5,8.5,8.8,12.4
	C277.9,607.7,301.2,606.5,301.2,606.5z"/>
<path class="st1" d="M519.8,596.8c-1.5,5.6-8,4.6-8,4.6s-38.5,0.7-39.2,0s-0.2-2.9-0.1-3.7l0.1-0.3h11c0,0,5.2-2.8-3.3-14.9
	c-7.2-10.3,19.8-10.8,28.6-10.6c1.7,0,2.8,0,2.8,0S521.2,591.2,519.8,596.8z"/>
<path class="st1" d="M515.2,592.8c-1.4,5.6-8.1,4.5-8.1,4.5s-24.4,0.5-34.7,0.3l0.1-0.3h11c0,0,5.2-2.8-3.3-14.9
	c-7.2-10.3,19.8-10.8,28.6-10.6C511.5,577.8,516.3,588.8,515.2,592.8z"/>
<linearGradient id="SVGID_2_" gradientUnits="userSpaceOnUse" x1="499.064" y1="660.0339" x2="487.8516" y2="627.2761" gradientTransform="matrix(1 0 0 1 -1.36 -56.98)">
	<stop  offset="0" style="stop-color:#000000;stop-opacity:0"/>
	<stop  offset="0.99" style="stop-color:#000000"/>
</linearGradient>
<path class="st4" d="M516.8,593.7c-1.4,5.6-9.6,3.7-9.6,3.7s-24.4,0.5-34.7,0.3l0.1-0.3h11c0,0,5.2-2.8-3.3-14.9
	c-7.2-10.3,19.8-10.8,28.6-10.6C511.5,577.8,517.8,589.7,516.8,593.7z"/>
<path class="st1" d="M451,516.5h82.3c4.3,0,7.7,3.5,7.7,7.7v50.1c0,4.3-3.5,7.7-7.7,7.7H451c-4.3,0-7.7-3.5-7.7-7.7v-50.1
	C443.3,519.9,446.7,516.5,451,516.5z"/>
<linearGradient id="SVGID_3_" gradientUnits="userSpaceOnUse" x1="586.3958" y1="543.8069" x2="428.4466" y2="549.6191" gradientTransform="matrix(1 0 0 1 0 2)">
	<stop  offset="0" style="stop-color:#000000;stop-opacity:0"/>
	<stop  offset="0.99" style="stop-color:#000000"/>
</linearGradient>
<path class="st5" d="M451,516.5h82.3c4.3,0,7.7,3.5,7.7,7.7v50.1c0,4.3-3.5,7.7-7.7,7.7H451c-4.3,0-7.7-3.5-7.7-7.7v-50.1
	C443.3,519.9,446.7,516.5,451,516.5z"/>
<path class="st1" d="M448.9,516.5h82.3c4.3,0,7.7,3.5,7.7,7.7v50.1c0,4.3-3.5,7.7-7.7,7.7h-82.3c-4.3,0-7.7-3.5-7.7-7.7v-50.1
	C441.2,519.9,444.7,516.5,448.9,516.5z"/>
<linearGradient id="SVGID_4_" gradientUnits="userSpaceOnUse" x1="484.7948" y1="503.268" x2="500.5692" y2="634.8626" gradientTransform="matrix(1 0 0 1 0 2)">
	<stop  offset="2.000000e-02" style="stop-color:#FFFFFF;stop-opacity:0"/>
	<stop  offset="0.32" style="stop-color:#FFFFFF;stop-opacity:0.39"/>
	<stop  offset="0.68" style="stop-color:#FFFFFF;stop-opacity:0.68"/>
	<stop  offset="1" style="stop-color:#FFFFFF"/>
</linearGradient>
<path class="st6" d="M448.9,516.5h82.3c4.3,0,7.7,3.5,7.7,7.7v50.1c0,4.3-3.5,7.7-7.7,7.7h-82.3c-4.3,0-7.7-3.5-7.7-7.7v-50.1
	C441.2,519.9,444.7,516.5,448.9,516.5z"/>
<path class="st1" d="M538.9,567.8l0.1,6.5c0,4.3-3.5,7.7-7.7,7.7h0h-82.3c-4.3,0-7.7-3.5-7.7-7.7l0,0v-6.5H538.9z"/>
<linearGradient id="SVGID_5_" gradientUnits="userSpaceOnUse" x1="490.0449" y1="596.9396" x2="529.1646" y2="611.5734" gradientTransform="matrix(1 0 0 1 0 2)">
	<stop  offset="0" style="stop-color:#000000;stop-opacity:0"/>
	<stop  offset="0.99" style="stop-color:#000000"/>
</linearGradient>
<rect x="472.5" y="597.7" class="st7" width="38.4" height="3.6"/>
<linearGradient id="SVGID_6_" gradientUnits="userSpaceOnUse" x1="520.6276" y1="657.8624" x2="501.6379" y2="646.1416" gradientTransform="matrix(1 0 0 1 -1.36 -56.98)">
	<stop  offset="0" style="stop-color:#000000;stop-opacity:0"/>
	<stop  offset="0.99" style="stop-color:#000000"/>
</linearGradient>
<path class="st8" d="M516.8,593.7l0.4,6.5c-1.9,1.2-4.1,1.7-6.3,1.2v-3.7C510.8,597.7,516.3,599.3,516.8,593.7z"/>
<path class="st1" d="M59.4,555.6c1.1,4.2,6.1,3.5,6.1,3.5s29.2,0.5,29.7,0s0.2-2.2,0-2.8c0-0.1,0-0.1,0-0.2h-8.3c0,0-3.9-2,2.5-11.3
	c5.5-7.8-15-8.2-21.7-8.1c-1.3,0-2.1,0-2.1,0S58.3,551.3,59.4,555.6z"/>
<path class="st1" d="M62.8,552.6c1.1,4.2,6.1,3.5,6.1,3.5s18.5,0.4,26.3,0.2c0-0.1,0-0.1,0-0.2h-8.4c0,0-3.9-2,2.5-11.3
	c5.5-7.8-15-8.2-21.7-8.1C65.6,541.2,62,549.6,62.8,552.6z"/>
<linearGradient id="SVGID_7_" gradientUnits="userSpaceOnUse" x1="-3050.2644" y1="617.3525" x2="-3058.7561" y2="592.5231" gradientTransform="matrix(-1 0 0 1 -2974.1299 -56.98)">
	<stop  offset="0" style="stop-color:#000000;stop-opacity:0"/>
	<stop  offset="0.99" style="stop-color:#000000"/>
</linearGradient>
<path class="st9" d="M61.6,553.3c1.1,4.2,7.3,2.8,7.3,2.8s18.5,0.4,26.3,0.2c0-0.1,0-0.1,0-0.2h-8.4c0,0-3.9-2,2.5-11.3
	c5.5-7.8-15-8.2-21.7-8.1C65.6,541.2,60.8,550.2,61.6,553.3z"/>
<path class="st1" d="M49.2,494.7h62.4c3.2,0,5.9,2.6,5.9,5.9v38c0,3.2-2.6,5.9-5.9,5.9H49.2c-3.2,0-5.9-2.6-5.9-5.9v-38
	C43.3,497.4,45.9,494.7,49.2,494.7z"/>
<linearGradient id="SVGID_8_" gradientUnits="userSpaceOnUse" x1="-2983.0076" y1="573.9462" x2="-3102.73" y2="578.3431" gradientTransform="matrix(-1 0 0 1 -2974.1201 -56.98)">
	<stop  offset="0" style="stop-color:#000000;stop-opacity:0"/>
	<stop  offset="0.99" style="stop-color:#000000"/>
</linearGradient>
<path class="st10" d="M49.2,494.7h62.4c3.2,0,5.9,2.6,5.9,5.9v38c0,3.2-2.6,5.9-5.9,5.9H49.2c-3.2,0-5.9-2.6-5.9-5.9v-38
	C43.3,497.4,45.9,494.7,49.2,494.7z"/>
<path class="st1" d="M50.7,494.7h62.4c3.2,0,5.9,2.6,5.9,5.9v38c0,3.2-2.6,5.9-5.9,5.9H50.7c-3.2,0-5.9-2.6-5.9-5.9v-38
	C44.8,497.4,47.5,494.7,50.7,494.7z"/>
<linearGradient id="SVGID_9_" gradientUnits="userSpaceOnUse" x1="-3060.0085" y1="543.2167" x2="-3048.054" y2="642.9603" gradientTransform="matrix(-1 0 0 1 -2974.1201 -56.98)">
	<stop  offset="2.000000e-02" style="stop-color:#FFFFFF;stop-opacity:0"/>
	<stop  offset="0.32" style="stop-color:#FFFFFF;stop-opacity:0.39"/>
	<stop  offset="0.68" style="stop-color:#FFFFFF;stop-opacity:0.68"/>
	<stop  offset="1" style="stop-color:#FFFFFF"/>
</linearGradient>
<path class="st11" d="M50.7,494.7h62.4c3.2,0,5.9,2.6,5.9,5.9v38c0,3.2-2.6,5.9-5.9,5.9H50.7c-3.2,0-5.9-2.6-5.9-5.9v-38
	C44.8,497.4,47.5,494.7,50.7,494.7z"/>
<path class="st1" d="M44.9,533.6v5c0,3.2,2.6,5.9,5.9,5.9l0,0h62.3c3.2,0,5.9-2.6,5.9-5.9l0,0v-5H44.9z"/>
<linearGradient id="SVGID_10_" gradientUnits="userSpaceOnUse" x1="-3056.0391" y1="614.2141" x2="-3026.3867" y2="625.3027" gradientTransform="matrix(-1 0 0 1 -2974.1199 -56.98)">
	<stop  offset="0" style="stop-color:#000000;stop-opacity:0"/>
	<stop  offset="0.99" style="stop-color:#000000"/>
</linearGradient>
<rect x="66.2" y="556.3" class="st12" width="29.1" height="2.8"/>
<linearGradient id="SVGID_11_" gradientUnits="userSpaceOnUse" x1="-3033.9248" y1="615.7485" x2="-3048.3252" y2="606.8721" gradientTransform="matrix(-1 0 0 1 -2974.1299 -56.98)">
	<stop  offset="0" style="stop-color:#000000;stop-opacity:0"/>
	<stop  offset="0.99" style="stop-color:#000000"/>
</linearGradient>
<path class="st13" d="M61.6,553.3l-0.3,5c1.4,0.9,3.1,1.3,4.8,0.9v-2.8C66.2,556.4,62,557.4,61.6,553.3z"/>
<path class="st1" d="M369.4,524.3l-38-5.7c-1.3-0.2-2.2-1.2-2.3-2.5l-2.8-30.9c-0.1-1.5,1-2.9,2.5-3c0.2,0,0.5,0,0.7,0l38.1,5.7
	c1.3,0.2,2.3,1.2,2.4,2.5l2.7,30.9c0.1,1.5-0.9,2.9-2.5,3C369.8,524.3,369.6,524.3,369.4,524.3z"/>
<linearGradient id="SVGID_12_" gradientUnits="userSpaceOnUse" x1="224.4519" y1="256.3613" x2="247.6325" y2="406.5746" gradientTransform="matrix(0.99 0.15 -0.15 0.99 165.532 165.73)">
	<stop  offset="0" style="stop-color:#000000;stop-opacity:0"/>
	<stop  offset="0.99" style="stop-color:#000000"/>
</linearGradient>
<path class="st14" d="M367.5,520.8l-34.4-5.1c-1.1-0.2-2-1.1-2.1-2.2l-2.6-26.8c-0.1-1.3,0.9-2.5,2.2-2.6c0.2,0,0.4,0,0.6,0
	l34.4,5.1c1.1,0.1,2,1,2.1,2.2l2.6,26.8c0.1,1.3-0.9,2.5-2.2,2.6C367.9,520.8,367.7,520.8,367.5,520.8z"/>
<path class="st1" d="M332,517.5l49.6,7.4c0.9,0.1,1.6,1,1.4,1.9l0,0l0,0c-0.1,0.9-1,1.6-1.9,1.4l0,0l-49.6-7.4
	c-0.9-0.1-1.5-1-1.4-1.9l0,0l0,0C330.2,518,331.1,517.4,332,517.5C332,517.5,332,517.5,332,517.5z"/>
<path class="st1" d="M353.7,520.8l39.9,6c0.8,0.1,1.4,0.9,1.3,1.7l0,0.3c-0.1,0.8-0.9,1.4-1.7,1.3l-39.9-6c-0.8-0.1-1.4-0.9-1.3-1.7
	l0-0.3C352.1,521.2,352.9,520.7,353.7,520.8z"/>
<linearGradient id="SVGID_13_" gradientUnits="userSpaceOnUse" x1="259.9707" y1="311.4438" x2="260.5066" y2="355.9911" gradientTransform="matrix(0.989 0.1478 -0.1478 0.989 164.4888 163.4299)">
	<stop  offset="0" style="stop-color:#000000;stop-opacity:0"/>
	<stop  offset="0.99" style="stop-color:#000000"/>
</linearGradient>
<path class="st15" d="M353.7,520.8l39.9,6c0.8,0.1,1.4,0.9,1.3,1.7l0,0.3c-0.1,0.8-0.9,1.4-1.7,1.3l-39.9-6
	c-0.8-0.1-1.4-0.9-1.3-1.7l0-0.3C352.1,521.2,352.9,520.7,353.7,520.8z"/>
<path class="st1" d="M172.4,575.6l-33.2,12.6c-1.1,0.4-2.4,0-3-1L120,563.5c-0.8-1.2-0.5-2.8,0.7-3.5c0.2-0.1,0.3-0.2,0.5-0.3
	l33.2-12.6c1.1-0.4,2.4,0,3,1l16.1,23.7c0.8,1.2,0.5,2.8-0.7,3.6C172.7,575.4,172.5,575.5,172.4,575.6z"/>
<linearGradient id="SVGID_14_" gradientUnits="userSpaceOnUse" x1="258.0709" y1="1188.3093" x2="279.5063" y2="1327.104" gradientTransform="matrix(0.94 -0.35 0.35 0.94 -531.988 -495.39)">
	<stop  offset="0" style="stop-color:#000000;stop-opacity:0"/>
	<stop  offset="0.99" style="stop-color:#000000"/>
</linearGradient>
<path class="st16" d="M169.3,573.6l-30,11.4c-1,0.4-2.1,0.1-2.8-0.8l-14.1-20.5c-0.7-1-0.4-2.4,0.6-3.1c0.2-0.1,0.3-0.2,0.5-0.3
	l30-11.4c1-0.4,2.1-0.1,2.8,0.8l14.2,20.5c0.7,1,0.4,2.4-0.6,3.1C169.6,573.4,169.5,573.5,169.3,573.6z"/>
<path class="st1" d="M139.2,587l43.3-16.4c0.8-0.3,1.7,0.1,2,0.9l0,0c0.3,0.8-0.1,1.7-0.9,2l-43.3,16.4c-0.8,0.3-1.7,0-2-0.8
	c0,0,0,0,0,0l0,0C137.9,588.2,138.3,587.3,139.2,587C139.1,587,139.2,587,139.2,587z"/>
<path class="st1" d="M158.2,579.8l34.8-13.2c0.7-0.3,1.6,0.1,1.8,0.8l0.1,0.3c0.3,0.7-0.1,1.5-0.8,1.8l-34.8,13.2
	c-0.7,0.3-1.6-0.1-1.8-0.8l-0.1-0.3C157.1,580.9,157.4,580,158.2,579.8z"/>
<linearGradient id="SVGID_15_" gradientUnits="userSpaceOnUse" x1="286.1311" y1="1242.9973" x2="286.6257" y2="1284.1646" gradientTransform="matrix(0.9351 -0.3543 0.3543 0.9351 -537.1345 -499.841)">
	<stop  offset="0" style="stop-color:#000000;stop-opacity:0"/>
	<stop  offset="0.99" style="stop-color:#000000"/>
</linearGradient>
<path class="st17" d="M158.2,579.8l34.8-13.2c0.7-0.3,1.6,0.1,1.8,0.8l0.1,0.3c0.3,0.7-0.1,1.5-0.8,1.8l-34.8,13.2
	c-0.7,0.3-1.6-0.1-1.8-0.8l-0.1-0.3C157.1,580.9,157.4,580,158.2,579.8z"/>
<path class="st1" d="M171.2,593.6l32.8-3.1c4.9-0.5,9.3,3.2,9.8,8.1l7.8,83.1c0.5,4.9-3.2,9.3-8.1,9.8l-32.8,3.1
	c-4.9,0.5-9.3-3.2-9.8-8.1l-7.8-83.1C162.7,598.4,166.3,594.1,171.2,593.6z"/>
<linearGradient id="SVGID_16_" gradientUnits="userSpaceOnUse" x1="238.1559" y1="909.7548" x2="238.5819" y2="956.9265" gradientTransform="matrix(0.9956 -9.360000e-02 9.360000e-02 0.9956 -126.9054 -212.3681)">
	<stop  offset="0" style="stop-color:#000000;stop-opacity:0"/>
	<stop  offset="0.99" style="stop-color:#000000"/>
</linearGradient>
<path class="st18" d="M171.2,593.6l32.8-3.1c4.9-0.5,9.3,3.2,9.8,8.1l7.8,83.1c0.5,4.9-3.2,9.3-8.1,9.8l-32.8,3.1
	c-4.9,0.5-9.3-3.2-9.8-8.1l-7.8-83.1C162.7,598.4,166.3,594.1,171.2,593.6z"/>
<path class="st1" d="M171.1,593.5l33-3.1c4.9-0.5,9.2,3.1,9.7,8l7.6,81.1c0.5,4.9-3.1,9.2-8,9.7l-33,3.1c-4.9,0.5-9.2-3.1-9.7-8
	l-7.6-81.1C162.7,598.3,166.3,594,171.1,593.5z"/>
<path class="st2" d="M173.1,595.6l29.7-2.8c4.4-0.4,8.3,2.8,8.7,7.2l6.9,72.8c0.4,4.4-2.8,8.3-7.2,8.7l-29.7,2.8
	c-4.4,0.4-8.3-2.8-8.7-7.2l-6.9-72.8C165.5,599.9,168.8,596,173.1,595.6z"/>
<path class="st1" d="M253.1,496.8c-2.3,0-4.2-1.8-4.3-4.1c0-1.3,0.5-2.5,1.5-3.3c6.4-5.4,22.4-12.5,37-1.4c1.9,1.3,2.4,4,1,5.9
	c-1.3,1.9-4,2.4-5.9,1c-0.1-0.1-0.2-0.1-0.3-0.2c-12.9-9.8-26,0.7-26.6,1.1C255,496.4,254.1,496.8,253.1,496.8z"/>
<path class="st1" d="M243.2,483.2c-1.1,0-2.2-0.4-3-1.2c-1.6-1.6-1.6-4.3,0-5.9c0.2-0.2,24.5-24.1,55.5-1.9c1.9,1.4,2.3,4,1,5.9
	c-1.4,1.9-4,2.3-5.9,1c-25.1-17.9-43.9,0.2-44.6,1C245.4,482.8,244.3,483.3,243.2,483.2z"/>
<path class="st1" d="M305.9,467.5c-0.9,0-1.8-0.3-2.5-0.8c-37.3-27.2-69.1-1.3-70.4-0.2c-1.8,1.5-4.5,1.1-5.9-0.7
	c-1.4-1.8-1.2-4.3,0.5-5.8c0.4-0.3,38-31.4,80.8-0.2c1.9,1.4,2.3,4,0.9,5.9C308.5,466.9,307.2,467.5,305.9,467.5L305.9,467.5z"/>
<path class="st19" d="M736.7-0.5v1025h-608l109.4-298.2c31.2,3.2,63.6-4.4,89.7-22c14.8-10,27.6-23,43.5-31.2
	c24.7-12.8,54-12.5,81.8-11.7c27.9,0.8,56.9,1.7,82.2-10c25.3-11.7,45.2-40.3,37.1-67c-5-16.7-19.6-28.9-35-36.9
	c-15.5-8-32.4-12.9-47.9-20.8c-44.6-23-74.3-70.2-121.2-87.9c-7.4-2.8-14.8-4.8-22.4-6L504.7-0.5H736.7z"/>
</svg>
