<?xml version="1.0" encoding="utf-8"?>
<!-- Generator: Adobe Illustrator 24.0.1, SVG Export Plug-In . SVG Version: 6.00 Build 0)  -->
<svg version="1.1" id="Layer_1" xmlns="http://www.w3.org/2000/svg" xmlns:xlink="http://www.w3.org/1999/xlink" x="0px" y="0px"
	 viewBox="0 0 414 1514" style="enable-background:new 0 0 414 1514;" xml:space="preserve">
<style type="text/css">
	.st0{fill:#FD8469;}
	.st1{opacity:0.24;fill:#6FD5DF;enable-background:new    ;}
	.st2{fill:#6FD5DF;}
	.st3{fill:#FFFFFF;}
	.st4{fill:url(#SVGID_1_);}
	.st5{fill:url(#SVGID_2_);}
	.st6{fill:url(#SVGID_3_);}
	.st7{fill:url(#SVGID_4_);}
	.st8{fill:url(#SVGID_5_);}
	.st9{fill:url(#SVGID_6_);}
	.st10{fill:url(#SVGID_7_);}
	.st11{fill:url(#SVGID_8_);}
	.st12{fill:url(#SVGID_9_);}
	.st13{fill:url(#SVGID_10_);}
	.st14{fill:url(#SVGID_11_);}
	.st15{fill:url(#SVGID_12_);}
	.st16{fill:url(#SVGID_13_);}
	.st17{fill:url(#SVGID_14_);}
	.st18{fill:url(#SVGID_15_);}
	.st19{fill:url(#SVGID_16_);}
</style>
<path class="st0" d="M414,0v1514H0V444.3l103.3-143.8c8.1,3,16,6.2,23.6,10.2c9.6,5,18.6,11.2,28.6,15.4
	c24.4,10.2,53.8,7.4,75.7-7.5c8.8-6,16.5-13.7,25.9-18.5c14.7-7.6,32.1-7.5,48.7-7c16.6,0.5,33.9,1,48.9-5.9
	c15.1-7,26.9-24,22.1-39.9c-3-9.9-11.7-17.2-20.9-22c-9.2-4.8-19.3-7.7-28.5-12.4c-26.6-13.7-44.3-41.8-72.2-52.4
	c-16.2-6.2-33.6-5.5-50.2-1.8L319.1,0H414z"/>
<path class="st1" d="M354.9,287.1c-15.1,7-32.4,6.4-48.9,5.9c-16.6-0.5-34-0.6-48.7,7c-9.5,4.9-17.1,12.6-25.9,18.5
	c-21.9,14.8-51.3,17.7-75.7,7.5c-10-4.2-19-10.4-28.6-15.4c-7.6-4-15.6-7.2-23.6-10.2c-15.5-5.8-31.4-10.9-45.8-19.1
	c-10-5.7-19.9-14-21.4-25.5c-0.6-5,0.5-10.2,2.4-14.9c6.9-17,23.1-28.5,39.8-36c16.7-7.5,34.7-12,51-20.5c9.6-5,18.8-11.5,29.1-14.7
	c9.3-3,18.5-2.4,27.8-5.6c6.1-2.1,12.4-4,18.8-5.4c16.7-3.7,34-4.4,50.2,1.8c27.9,10.6,45.6,38.7,72.2,52.4
	c9.2,4.7,19.3,7.6,28.5,12.4c9.2,4.8,17.9,12,20.9,22C381.8,263.1,369.9,280.2,354.9,287.1z"/>
<path class="st2" d="M198.1,269.8c-46.5,0-83-10.8-83-24.5c0-13.7,36.4-24.5,83-24.5s82.9,10.8,82.9,24.5
	C281,259.1,244.6,269.8,198.1,269.8z M198.1,223.1c-43.8,0-80.7,10.2-80.7,22.3c0,12.1,37,22.3,80.7,22.3
	c43.8,0,80.7-10.2,80.7-22.3C278.8,233.3,241.8,223.1,198.1,223.1z"/>
<path class="st2" d="M200.6,293.1c-38,0-73.7-4.6-100.6-12.9c-27.3-8.5-42.3-19.9-42.3-32.1s15-23.7,42.3-32.1
	c26.9-8.3,62.6-12.9,100.6-12.9s73.7,4.6,100.6,12.9c27.3,8.5,42.3,19.9,42.3,32.1s-15,23.7-42.3,32.1
	C274.3,288.5,238.6,293.1,200.6,293.1z M200.6,205.3c-37.8,0-73.2,4.5-99.9,12.8C74.9,226.1,60,237,60,248c0,11,14.8,21.9,40.7,29.9
	c26.7,8.3,62.2,12.8,99.9,12.8s73.2-4.5,99.9-12.8c25.9-8,40.7-18.9,40.7-29.9c0-11-14.8-21.9-40.7-29.9
	C273.9,209.9,238.4,205.3,200.6,205.3z"/>
<path class="st2" d="M199.2,202.4c-17.4-0.2-31.6,13.7-31.8,31.1c-0.2,17.4,13.7,31.6,31.1,31.8c0.3,0,0.7,0,1,0
	c17.4-0.3,31.2-14.7,30.8-32C229.9,216.2,216.2,202.6,199.2,202.4z M203.9,216.9c0-0.1,0-0.2,0-0.3c0.1-0.1,0.2-0.3,0.3-0.3
	c0.1,0,0.3,0.1,0.4,0.2c-0.3,0.3-0.2,0.5,0.1,0.7c0.1,0,0.1,0.1,0.2,0.1c0.1,0.2,0.2,0.4,0.3,0.7c0.2,0.2,0.4,0.3,0.6,0.4
	c-0.2,0.2-0.4,0.3-0.6,0.5c-0.2,0.1-0.4,0.2-0.7,0.3c-0.2,0-0.4,0-0.6,0c0,0,0-0.1,0-0.1l0.4-0.2c-0.1-0.2-0.3-0.3-0.4-0.5
	c0-0.2,0.2-0.3,0.3-0.5c-0.2-0.3-0.4-0.4-0.6-0.3c-0.6,0.4-0.6,0.5-0.3,0.9c-0.4,0.1-0.7,0.3-1.1,0.4c-0.1-0.4,0.4-0.7,0-1.1
	c0.2-0.3,0.4-0.4,0.7-0.4h0.4C203.8,217.3,203.9,217.1,203.9,216.9z M194.9,208.8c0.7,0.1,1.5,0.2,2.2,0.2c0.3,0,0.6,0,0.7-0.2
	c0.1-0.1,0.3-0.1,0.4-0.1c0.6-0.1,1.2-0.2,1.7-0.3c0.3,0,0.6,0,0.9,0c0.7,0.1,1.4,0.2,2.1,0.4c0.1,0,0.2,0.1,0.3,0.1
	c-0.3,0-0.6,0-0.9,0.1c-0.2,0-0.4,0.1-0.5,0.1c-0.3,0.1-0.5,0.3-0.5,0.7c0,0.4-0.3,0.7-0.7,0.8c-0.4,0.1-0.8,0.3-1.1,0.5
	c-0.2,0.1-0.2,0.2,0,0.3c0.2,0.1,0.5,0.3,0.8,0.5c-0.4,0.2-0.4,0.2-1.4-0.3c0.1,0.2,0.3,0.4,0.4,0.7c-0.6,0.2-1.2,0.3-1.8,0.5
	c-0.6,0.1-1.1,0.4-1.6,0.7c-0.4,0.3-1,0.5-1.5,0.5c-0.3,0.1-0.5,0.1-0.5,0.5c0,0.1-0.1,0.3-0.2,0.4c-0.2,0.1-0.3,0.3-0.5,0.4
	c-0.4,0.3-1.1,0.2-1.4-0.2c-0.1-0.2-0.2-0.4-0.2-0.6c0-0.2,0-0.4,0-0.6c0.1-0.2,0.2-0.5,0.3-0.7c0.1-0.1,0.1-0.2,0.2-0.2
	c0.6-0.5,0.7-1.4,0.2-1.9c-0.2-0.2-0.4-0.3-0.6-0.4c-0.4-0.3-0.9-0.4-1.5-0.5c-0.2-0.1-0.3-0.1-0.5-0.2c0.7-0.1,1.4-0.2,2-0.3
	c0.3-0.1,0.6-0.2,0.8-0.3C193.4,208.9,194.1,208.8,194.9,208.8z M201.8,213.6c0,0.2-0.1,0.3-0.2,0.4c-0.3,0.2-0.5,0.3-0.8,0.4
	c-0.3,0.1-0.6,0.1-0.8-0.2c-0.1-0.1-0.3-0.1-0.4-0.2c0,0,0-0.1,0-0.1c0.1-0.1,0.3-0.1,0.4-0.2c0.4-0.1,0.9-0.2,1.3-0.3
	C201.4,213.4,201.7,213.4,201.8,213.6L201.8,213.6L201.8,213.6z M186.1,209.8c0.2-0.1,0.4-0.1,0.6-0.2c0.2-0.1,0.5-0.1,0.6-0.4
	c0.1-0.1,0.2-0.2,0.3-0.3l0.3-0.1c0.3-0.1,0.7-0.1,1-0.2c0.3,0,0.5-0.1,0.8-0.1c0.5-0.2,1-0.3,1.5-0.2c0.2,0,0.3,0,0.5,0h0.5
	c0,0,0,0.1,0,0.1c-0.6,0.4-1.2,0.7-1.9,0.8c-1,0.2-1.9,0.5-2.7,1.1c-0.3,0.2-0.5,0.3-0.7-0.1c0-0.1-0.2-0.1-0.3-0.1
	c-0.3,0-0.5-0.1-0.8-0.1C186,210,186,209.9,186.1,209.8z M184.5,210.7C184.5,210.7,184.4,210.7,184.5,210.7c0.2-0.5,0.4-0.6,0.8-0.4
	c0.4,0.2,0.9,0.2,1.3,0.1c0,0,0,0,0.1,0.1c-0.1,0.1-0.1,0.2-0.2,0.3c-0.1,0-0.4,0.1-0.6,0.2c-0.1,0-0.2,0.1-0.2,0.2
	c0,0,0.1,0.2,0.2,0.2l0.3,0.1l2.2,0.6c0.1,0,0.1,0.1,0.1,0.2c0,0.1,0,0.2,0,0.3c-0.1,0.6,0,0.8,0.6,0.8c0,0.2-0.1,0.4-0.3,0.4
	c-0.4,0.1-0.8,0.2-1.2,0.4c-0.2,0.1-0.4,0.1-0.3,0.4c0,0.1,0,0.1-0.1,0.2c-0.3,0.2-0.8,0.2-1.1,0c-0.2-0.2-0.2-0.6,0-0.8
	c0.1-0.1,0.2-0.1,0.3-0.1c0.2-0.1,0.5-0.1,0.7-0.1c0.1,0,0.2-0.1,0.3-0.2c0-0.1-0.1-0.2-0.1-0.3c-0.4-0.4-1-0.7-1.6-0.8
	c-0.2,0-0.4,0-0.6-0.1c-0.4,0-0.9-0.1-1.3-0.1c-0.2,0-0.4,0-0.4-0.3c0-0.2,0.1-0.4,0.3-0.5c0,0,0.1,0,0.1,0c0.3,0,0.6,0,0.9-0.1
	c0.1,0,0.3-0.1,0.3-0.2C184.8,210.9,184.7,210.7,184.5,210.7L184.5,210.7z M188.4,219.4c0.1,0.1,0.3,0.3,0.3,0.4
	c-0.1,0.2-0.3,0.4-0.5,0.3c-0.4,0-0.8-0.1-1.2-0.1c0.3-0.5,0.8-0.9,1.4-1.1l-0.3,0.3C188.2,219.3,188.3,219.3,188.4,219.4
	L188.4,219.4z M189.5,247.4c-0.3,0.2-0.6,0.5-0.9,0.7c-0.2,0.3-0.3,0.5-0.3,0.8c-0.1,0.5-0.3,1-0.4,1.5c-0.1,0.3-0.5,0.5-0.7,0.7
	c-0.3,0.5-1,0.6-1.5,0.3c-0.1,0.4,0.1,0.6,0.3,0.8c0.2,0.4,0.2,0.4-0.2,0.6c-0.3,0.3-0.6,0.5-0.9,0.8c-0.2,0.2-0.3,0.5-0.2,0.8
	c0,0.3,0,0.5-0.1,0.8c0,0.1-0.1,0.3-0.1,0.4c0,0.3,0.1,0.5,0.1,0.8c0.1,0.4,0.1,0.9,0.1,1.4c0,0.2,0.1,0.3,0.3,0.3
	c0.1,0,0.2,0.1,0.2,0.2c0.1,0.3,0.2,0.5,0.3,0.8c-0.3,0.2-0.7,0.2-0.9-0.1c0,0,0,0,0,0c-0.2-0.3-0.4-0.6-0.8-0.7
	c-0.5-0.2-1-0.7-1.2-1.2c-0.4-0.5-0.5-1.1-0.5-1.8c0.1-0.4-0.1-0.9-0.6-1.1c-0.1,0-0.1-0.2-0.2-0.3c0-0.4-0.1-0.9-0.1-1.3
	c-0.1-1-0.2-1.9-0.3-2.9c0-0.7,0-1.4,0-2.1c0-0.3,0-0.6,0-1c-0.1-0.9-0.6-1.6-1.5-1.8c-0.4-0.1-0.8-0.5-0.7-0.9
	c0-0.4-0.2-0.8-0.6-0.9c-0.5-0.3-0.8-0.7-1-1.2c-0.1-0.2-0.2-0.3-0.3-0.4c-0.3-0.2-0.4-0.6-0.3-1c0-0.2,0-0.5,0-0.7
	c0-0.2,0-0.3,0-0.5c0.1-0.5,0.2-0.9,0.5-1.3c0.3-0.4,0.5-0.9,0.7-1.3c0.2-0.5,0-1.1-0.4-1.4c-0.2-0.1-0.3-0.1-0.5,0
	c-0.3,0.2-0.7,0.2-1-0.1c-0.6-0.4-1.1-0.9-1.4-1.5c-0.1-0.1-0.1-0.2-0.2-0.2c-0.1-0.1-0.3-0.1-0.4-0.1c-0.4,0-0.8-0.2-1.1-0.5
	c-0.3-0.4-0.8-0.5-1.3-0.5c-0.1,0-0.1,0-0.2,0c-1-0.2-1.8-0.8-2.5-1.5c-0.2-0.3-0.3-0.6-0.2-1c0.2-1.9,0.7-3.8,1.3-5.6
	c0.9-2.8,2.3-5.5,4-7.9c0.6-0.9,1.4-1.8,2-2.6c0.1-0.1,0.2-0.2,0.4-0.1c0.2,0.1,0.5,0.2,0.7,0.1c0.6-0.1,1.1,0,1.7-0.2
	c0.7-0.1,1.3-0.3,1.9-0.6c0.5-0.3,0.8-0.7,0.9-1.3c0-0.1,0.1-0.3,0.1-0.4c0.2-0.5,0.2-0.5,0.7-0.4c0.4,0.1,0.8,0.2,1.1,0.3
	c-0.3,0.1-0.7,0.2-1,0.4s-0.2,0.2-0.1,0.4c0.1,0.2,0.4,0.5,0.7,0.8c0.1,0.1,0.2,0.1,0.3,0.1c0.5-0.2,1-0.3,1.5-0.2
	c-0.1,0.2-0.3,0.4-0.4,0.6c-0.2,0.1-0.4,0.2-0.6,0.3c-0.6,0.1-1.1,0.2-1.7,0.3c-0.1,0.4-0.4,0.7-0.8,0.7c-0.7,0.1-1.4,0.4-2,0.9
	c-0.4,0.2-0.6,0.7-0.4,1.2c0.1,0.2,0.1,0.4,0.4,0.3c0,0,0.1,0,0.2,0.1c0.3,0.1,0.5,0.3,0.8,0.4c0.3,0.1,0.5,0.3,0.8,0.2
	c0.1,0,0.2,0,0.2,0c-0.1,0.5-0.1,0.9-0.2,1.3c0.3,0,0.6-0.1,0.8-0.4c0.5-0.8,1.1-1.5,1.6-2.3c0.1-0.1,0.2-0.2,0.2-0.3
	c0.3-0.6,1-0.9,1.6-0.7c0.4,0.1,0.6,0.1,0.6,0.6c0,0.1,0.2,0.2,0.3,0.2c0.5,0,1-0.1,1.4-0.3c0,0.1,0,0.1,0.1,0.2c0,0.1,0,0.2,0,0.3
	c-0.2,0.8,0.2,1.6,0.9,1.9l0.1,0.1c-0.5,0.5-1.3,0.8-2,0.9c-0.5,0-1,0.1-1.5,0.4c-0.4,0.2-0.8,0.3-1.2,0.4c-0.1,0.1-0.3,0.2-0.4,0.3
	l0,0.1l1.5-0.1c-0.1,0.4,0,0.6,0.4,0.6c0.1,0,0.3,0.2,0.4,0.4c-0.6,0.1-1,0.8-1.8,0.7l0.6-0.6c-0.3-0.3-0.4-0.4-0.8-0.1
	c-0.4,0.3-0.7,0.5-1.1,0.8c-0.1,0.1-0.2,0.2-0.3,0.2c-0.7,0.1-1,0.7-1.4,1.1l-0.1,0.1c-0.2,0.2-0.4,0.4-0.7,0.4
	c-0.1,0-0.3,0-0.4,0.1c-0.1,0.1-0.2,0.2-0.2,0.4c0,0.6-0.3,1.1-0.8,1.3c-0.5,0.2-0.9,0.5-1.3,0.8c-0.4,0.4-0.5,0.9-0.3,1.4
	c0.2,0.3,0.2,0.7,0,1c0,0.1-0.2,0.1-0.3,0.1s-0.2-0.1-0.2-0.2c-0.1-0.4-0.2-0.8-0.3-1.2c-0.1-0.1-0.1-0.3-0.2-0.4h-0.1
	c0,0.2,0,0.3,0,0.5c0,0,0,0-0.1,0.1c-0.1-0.1-0.2-0.2-0.3-0.4c-0.2-0.1-0.3-0.3-0.5-0.4c-0.2-0.1-0.4,0-0.5,0.2
	c-0.2,0.3-0.4,0.5-0.6,0.7c-0.2-0.2-0.4-0.4-0.5-0.6c-0.1-0.1-0.2-0.1-0.3-0.1c-0.4,0.1-0.8,0.3-1,0.6c-0.3,0.3-0.6,0.6-0.9,0.9
	c-0.3,0.2-0.4,0.6-0.2,0.9c0,0.1,0,0.3,0,0.4c-0.2,0.8,0.3,1.6,1.1,1.8c0.4,0.1,0.9,0,1.1-0.4c0.1-0.2,0.1-0.4,0.2-0.5
	c0.1-0.2,0.3-0.3,0.5-0.3c0,0,0,0,0,0c0.1,0.1,0.2,0.3,0.2,0.5c-0.1,0.3-0.2,0.6-0.3,0.9c-0.1,0.3,0,0.5,0.3,0.6
	c0.3,0.1,0.5,0.1,0.8,0.1c0.3,0,0.5,0.2,0.5,0.4c0,0,0,0.1,0,0.1c0,0.4,0,0.8,0,1.2c0.1,0.2,0.2,0.4,0.4,0.6c0.1,0.1,0.3,0.1,0.4,0
	c0.2-0.2,0.5-0.2,0.8-0.1c0.1,0,0.2,0.1,0.3,0.1c0.5,0.1,0.6,0,0.9-0.3c0.2-0.2,0.4-0.4,0.7-0.5c0.1,0,0.2,0,0.2,0.1
	c0,0.1,0,0.2,0,0.2c-0.3,0.2-0.1,0.3,0.1,0.4l0.6,0.2c-0.4-0.6,0.1-0.8,0.3-1.1c0.1,0.1,0.2,0.1,0.2,0.2c0.3,0.3,0.8,0.5,1.2,0.5
	h0.1c0.6,0,1.2,0.2,1.6,0.7c0.6,0.5,1.4,0.9,2.2,1.1c0.3,0.1,0.6,0.3,0.8,0.6c0.1,0.2,0.3,0.5,0.5,0.7c0.2,0.4,0.2,0.6-0.2,0.8
	l-0.4,0.2c0.1,0.2,0.2,0.2,0.4,0.1c0.1-0.1,0.3-0.1,0.4-0.2c0.1,0,0.2,0.1,0.3,0.2c0.1,0.1,0,0.1-0.1,0.2c0,0.1-0.1,0.2,0,0.2
	c0.1,0,0.1,0.1,0.2,0.1c0.1,0,0.1,0,0.2-0.1c0.3-0.3,0.7-0.3,1-0.1c0,0,0,0,0.1,0.1c0,0,0.1,0.1,0.1,0.1c0,0.5,0.4,0.3,0.7,0.2
	c0.2-0.1,0.5-0.1,0.7,0c0.6,0.2,1.2,0.4,1.8,0.7c0.2,0.1,0.3,0.2,0.3,0.4c0.1,0.9-0.2,1.9-0.8,2.6c0,0.1-0.1,0.1-0.2,0.1
	c-0.3,0.1-0.3,0.3-0.3,0.6c0,0.6,0,1.2-0.1,1.8c-0.1,0.4-0.2,0.7-0.4,1.1c-0.1,0.3-0.3,0.6-0.7,0.5c-0.1,0-0.3,0-0.4,0.1
	C189.6,247.3,189.5,247.4,189.5,247.4z M222.4,245c-0.2,0.6-0.4,1.3-0.6,1.9c-0.1,0.2-0.2,0.4-0.3,0.5c-0.3,0.6-0.3,0.6-0.9,0.5
	c-0.5-0.2-0.8-0.7-0.6-1.2c0.2-0.2,0.3-0.4,0.4-0.7c0.1-0.3,0.1-0.5,0-0.8c0-0.4,0.2-0.7,0.6-0.9c0.1,0,0.2,0,0.2-0.1
	c0.3-0.3,0.6-0.6,0.9-1c0.1-0.1,0.1-0.2,0.2-0.3C222.6,243.5,222.6,244.3,222.4,245L222.4,245L222.4,245z M228.4,228.8
	c-0.2-0.2-0.5-0.4-0.8-0.3c-1,0.1-2-0.1-3-0.5c-0.7-0.2-1.3-0.4-1.9-0.8c-0.5-0.3-1-0.4-1.6-0.5c0,0.1,0,0.2,0.1,0.3
	c-0.1,0.8,0.4,1.1,0.9,1.5c0.2,0.2,0.4,0.4,0.6,0.6l1.3-0.4c0.3-0.1,0.7,0,0.8,0.3c0.2,0.3,0.5,0.5,0.7,0.8c0.2,0.3,0.2,0.3-0.1,0.5
	c-0.7,0.4-1.4,0.9-1.9,1.5c-0.1,0.1-0.1,0.2-0.2,0.2c-0.4,0.3-0.8,0.5-1.3,0.8c-0.5,0.3-1.3,0.1-1.6-0.4c0,0-0.1-0.1-0.1-0.2
	c-0.2-0.6-0.5-1.2-0.9-1.6c-0.2-0.3-0.4-0.6-0.5-1c-0.2-0.4-0.5-0.6-0.8-0.8c-0.3-0.1-0.6-0.4-0.7-0.7c-0.2-0.5-0.4-0.9-0.6-1.4
	c-0.5,0.2-0.5,0.2-0.3,0.7c0.2,0.8,0.6,1.5,1,2.2c0.8,1.1,1.4,2.2,2,3.4c0.1,0.3,0.2,0.7,0.3,1c0.2,0.5,0.4,0.5,0.9,0.3
	c0.1,0,0.1-0.1,0.2-0.1h1.8c-0.1,0.5-0.2,0.9-0.3,1.4c-0.1,0.4-0.3,0.8-0.6,1.1c-0.4,0.3-0.8,0.7-1.3,0.9c-0.1,0.1-0.2,0.2-0.3,0.3
	c-0.5,0.9-1,1.9-1.5,2.8c-0.1,0.2-0.2,0.4,0,0.6c0.7,0.7,0.5,1.6,0.5,2.5c0,0.1-0.2,0.2-0.3,0.3c-0.6,0.3-1.1,0.6-1.5,1.1
	c-0.2,0.2-0.3,0.4-0.3,0.7c-0.1,0.8-0.3,1.5-0.7,2.1c-0.6,1-1.1,2-1.6,2.9c-0.1,0.2-0.3,0.4-0.5,0.4l-1.5,0.1
	c-0.2,0-0.4,0.1-0.7,0.1c-0.1,0-0.2,0-0.3-0.1c-0.2-0.1-0.3-0.3-0.5-0.4c0-0.5-0.1-1-0.4-1.4c-0.1-0.2-0.2-0.3-0.3-0.4
	c-0.3-0.5-0.5-1-0.5-1.6c0-0.3-0.1-0.6-0.3-0.9c-0.4-0.6-0.6-1.2-0.7-1.9c0-0.4,0.1-0.8,0.2-1.1c0-0.2,0.1-0.3,0.2-0.4
	c0.2-0.3,0.2-0.7,0.1-1c-0.2-1.1-0.7-2.2-1.4-3.1c-0.1-0.3-0.1-0.6,0-0.8c0.1-0.2,0.2-0.4,0.4-0.6c0.1-0.2,0.1-0.3-0.1-0.4
	c-0.2-0.1-0.4-0.2-0.4-0.5c0-0.1-0.2-0.2-0.3-0.2c-0.4,0-0.9-0.1-1.2-0.4c-0.2-0.2-0.5-0.2-0.8-0.2c-0.2,0-0.4,0.1-0.6,0.1l-2.7,0.6
	c-0.4,0.1-0.9,0-1.2-0.4c-0.1-0.1-0.2-0.2-0.3-0.2c-0.4-0.2-0.6-0.7-0.7-1.1c0-0.2-0.2-0.4-0.3-0.5c-0.8-0.3-0.9-1-1.2-1.6
	c0-0.2,0-0.4,0.2-0.6c0.2-0.2,0.3-0.5,0.2-0.8c-0.3-0.7-0.2-1.5,0.2-2.1c0.2-0.4,0.5-0.8,0.9-1.1c0.2-0.1,0.2-0.4,0.3-0.5
	c0.4-0.4,0.8-1,0.9-1.6c0.1-0.2,0.3-0.5,0.5-0.6c0.3-0.3,0.7-0.6,1-0.9c0.2-0.2,0.3-0.2,0.4,0c0.1,0.1,0.2,0.1,0.3,0.2l1.5-0.2
	c0.1,0,0.3-0.1,0.4-0.1c0.7,0,1.4-0.1,2.1-0.4c0.1-0.1,0.3-0.1,0.5,0c0,0,0,0.2,0,0.3c0,0.3,0.2,0.7,0.4,0.9l0.7,0.7
	c0,0,0.1,0.1,0.2,0.1c0.5,0.1,1,0.2,1.5,0.2c0.2,0,0.4-0.1,0.5-0.4c0.1-0.3,0.3-0.4,0.5-0.6c0,0,0,0.1,0,0.1
	c0.1,0.1,0.2,0.2,0.3,0.3c0.3,0.1,0.5,0.3,0.8,0.4c0.2,0,0.4,0,0.6,0c0.1,0,0.2,0,0.4,0c0.5,0.1,1,0.1,1.6,0.2c0.2,0,0.4,0,0.5-0.1
	c0.5-0.2,0.7-0.8,0.5-1.3c-0.1-0.2-0.1-0.4-0.1-0.7c-0.3-0.1-0.7-0.1-1,0.1c-0.4,0.2-0.9,0.2-1.2-0.1c-0.5-0.3-0.9-0.8-1.1-1.4
	c0.5,0.3,0.7-0.1,0.9-0.5c-0.6,0.1-1.2,0.3-1.8,0.4c-0.2,0-0.3,0.2-0.3,0.4c0,0,0,0.1,0,0.1c0,0.1,0.1,0.1,0.1,0.2
	c0,0.1-0.1,0.3-0.1,0.4c-0.2-0.1-0.4-0.1-0.5-0.2c-0.1-0.1-0.2-0.4-0.4-0.5c0,0-0.1-0.1-0.1-0.1c0-0.5-0.4-0.8-0.6-1.2
	c-0.1-0.1-0.2-0.2-0.4-0.2c-0.4,0-0.7-0.2-0.9-0.5c-0.1-0.1-0.2-0.2-0.3-0.3c-0.2-0.1-0.4-0.2-0.5,0c-0.2,0.1-0.2,0.4,0,0.6
	c0,0,0,0,0,0c0.3,0.4,0.7,0.6,1.1,0.8c0.3,0.1,0.5,0.4,0.6,0.6c-0.4,0.3-0.9,0.2-1.3-0.1c0-0.1-0.1-0.1-0.1-0.2
	c-0.1-0.2-0.2-0.3-0.4-0.4c-0.2-0.3-0.4-0.5-0.7-0.8c-0.3-0.3-1-0.3-1.1,0.3c0,0.1,0,0.1,0,0.2l-0.2-0.1c-0.4-0.1-0.8,0-1,0.4
	c-0.1,0.1-0.2,0.2-0.3,0.3c-0.1,0.1-0.2,0.2-0.2,0.3c-0.1,0.5-0.5,0.9-1,1c-0.6,0.1-1.3,0.2-1.9,0.2c-0.1,0-0.2-0.1-0.3-0.3
	c0-0.4,0-0.9,0-1.3c0.1-0.4,0.5-0.8,1-0.7h1.3c0.2,0,0.3-0.1,0.3-0.3c0-0.1,0-0.2,0-0.2c0.1-0.5,0.1-0.6-0.4-0.9
	c-0.1-0.1-0.3-0.1-0.4-0.2c-0.1-0.1-0.2-0.1-0.1-0.2c0-0.1,0.1-0.1,0.2-0.2c0.2,0,0.3-0.1,0.5-0.1c0.7,0,1.4-0.4,1.6-1
	c0.1-0.4,0.5-0.6,0.9-0.7c0.6-0.1,0.7-0.3,0.8-0.9c0-0.2,0.1-0.3,0.2-0.5h0.1c0.1,0.2,0.2,0.4,0.3,0.7c0,0.2,0.2,0.4,0.5,0.5
	c0.2,0,0.5,0,0.7,0c0.4-0.1,0.8-0.1,1.2-0.2c0.1,0,0.2,0,0.3-0.2c0-0.2,0.2-0.3,0.4-0.4c0.1-0.1,0.3-0.2,0.3-0.5
	c0.1-0.3,0.4-0.5,0.7-0.5c0.1,0,0.3,0.1,0.3,0.2c0.1,0.2,0.1,0.3,0.2,0.5c0.4-0.4,0.6-1,0.5-1.6c-0.2,0-0.3,0.1-0.5,0.1
	c-0.2,0-0.5,0-0.7,0c-0.7-0.1-0.8-0.5-0.4-1c0.1-0.2,0.3-0.6,0.2-0.7c-0.3-0.2-0.5,0-0.7,0.2c-0.4,0.4-0.8,0.9-0.9,1.4
	c-0.1,0.5-0.3,0.9-0.6,1.4c-0.1,0.2-0.4,0.3-0.7,0.3c-0.1,0-0.2-0.2-0.3-0.3c-0.1-0.1-0.2-0.3-0.3-0.4c0,0,0,0.1,0,0.1l-1.5,0.1
	c0-0.1,0-0.1-0.1-0.2c-0.2-1-0.3-0.9,0.7-1.3c0.3-0.2,0.6-0.4,0.8-0.7l0.7-0.6c0,0,0.1-0.1,0.1-0.1c0.7-0.9,1.7-1.1,2.7-1.2
	c0.9,0,1.8,0.1,2.7,0.5l1.5,0.4c-0.7,0.5-1.3,0-1.8,0.1c0,0,0,0.1,0,0.1c0.3,0.4,0.7,0.7,1,1c0.3,0.1,0.6,0,0.7-0.2c0,0,0-0.1,0-0.1
	c0.1-0.2,0.1-0.3,0.4-0.3c0.3,0,0.5-0.2,0.6-0.4c0.1-0.2,0.3-0.3,0.5-0.2c0,0.3,0.1,0.4,0.3,0.3c0.1,0,0.2-0.1,0.3-0.1
	c0.3-0.2,0.6-0.3,1-0.2c0.5,0,1-0.1,1.4-0.3c0.4-0.1,0.7-0.1,0.9,0.2c2,2.1,3.8,4.5,5.1,7.1c1.6,3.1,2.7,6.4,3.3,9.8
	c0,0,0,0.1,0,0.1C229.1,229.8,228.8,229.2,228.4,228.8L228.4,228.8L228.4,228.8z"/>
<path class="st3" d="M229.9,229.6c-0.8,0.2-1.1-0.4-1.5-0.8c-0.2-0.2-0.5-0.4-0.8-0.3c-1.7,0-3.4-0.4-4.9-1.3
	c-0.5-0.3-1-0.4-1.6-0.5c0,0.1,0,0.2,0.1,0.2c-0.1,0.8,0.4,1.1,0.9,1.5c0.2,0.2,0.4,0.4,0.6,0.6l1.3-0.4c0.3-0.1,0.7,0,0.8,0.3
	c0.2,0.3,0.5,0.5,0.7,0.8c0.2,0.3,0.2,0.3-0.1,0.5c-0.7,0.4-1.3,0.9-1.9,1.5c-0.1,0.1-0.1,0.2-0.2,0.2c-0.4,0.3-0.8,0.5-1.3,0.8
	c-0.5,0.3-1.2,0.1-1.6-0.4c0-0.1-0.1-0.1-0.1-0.2c-0.2-0.6-0.5-1.2-0.9-1.6c-0.2-0.3-0.4-0.6-0.5-1c-0.2-0.4-0.4-0.7-0.8-0.9
	c-0.3-0.1-0.6-0.4-0.7-0.7c-0.2-0.5-0.4-0.9-0.6-1.4c-0.5,0.2-0.5,0.2-0.3,0.7c0.2,0.8,0.6,1.5,1,2.2c0.8,1.1,1.4,2.2,2,3.4
	c0.1,0.3,0.2,0.7,0.3,1c0.2,0.5,0.4,0.5,0.9,0.3c0,0,0.1-0.1,0.1-0.1h1.8c-0.1,0.5-0.1,1-0.3,1.4c-0.1,0.4-0.3,0.8-0.6,1.1
	c-0.4,0.3-0.8,0.7-1.3,0.9c-0.1,0.1-0.2,0.2-0.3,0.3c-0.5,0.9-1,1.9-1.5,2.8c-0.1,0.2-0.2,0.4,0,0.6c0.7,0.7,0.5,1.6,0.5,2.5
	c0,0.1-0.2,0.2-0.3,0.3c-0.6,0.3-1.1,0.6-1.5,1.1c-0.2,0.2-0.3,0.4-0.3,0.7c-0.1,0.8-0.3,1.5-0.7,2.1c-0.6,1-1.1,2-1.6,2.9
	c-0.1,0.2-0.3,0.4-0.5,0.4c-0.5,0-1,0-1.5,0.1c-0.2,0-0.4,0.1-0.7,0.1c-0.1,0-0.2,0-0.3-0.1c-0.2-0.1-0.3-0.3-0.5-0.4
	c0-0.5-0.1-1-0.4-1.4c-0.1-0.2-0.2-0.3-0.3-0.5c-0.3-0.5-0.5-1-0.5-1.6c0-0.3-0.1-0.6-0.3-0.9c-0.4-0.6-0.6-1.2-0.7-1.9
	c0-0.4,0.1-0.8,0.2-1.1c0-0.2,0.1-0.3,0.2-0.5c0.1-0.3,0.2-0.7,0.1-1c-0.2-1.1-0.7-2.2-1.4-3.1c-0.1-0.3-0.1-0.6,0-0.8
	c0.1-0.2,0.2-0.4,0.4-0.6c0.1-0.2,0.1-0.3-0.1-0.4c-0.2-0.1-0.4-0.2-0.4-0.5c-0.1-0.1-0.2-0.2-0.3-0.2c-0.4,0-0.9-0.1-1.2-0.4
	c-0.2-0.1-0.5-0.2-0.8-0.2c-0.2,0-0.4,0-0.6,0.1l-2.7,0.6c-0.4,0.1-0.9,0-1.2-0.4c-0.1-0.1-0.2-0.2-0.3-0.2
	c-0.4-0.2-0.6-0.7-0.7-1.1c0-0.2-0.2-0.4-0.3-0.5c-0.8-0.3-0.9-1-1.1-1.6c0-0.2,0-0.4,0.1-0.6c0.2-0.2,0.3-0.5,0.1-0.8
	c-0.3-0.7-0.2-1.5,0.2-2.1c0.2-0.4,0.5-0.8,0.9-1.1c0.2-0.1,0.2-0.4,0.3-0.5c0.4-0.4,0.8-1,0.9-1.6c0.1-0.2,0.3-0.5,0.5-0.6
	c0.3-0.3,0.7-0.6,1-0.9c0.2-0.2,0.3-0.2,0.4,0c0.1,0.1,0.2,0.1,0.3,0.2c0.5-0.1,1-0.1,1.5-0.2c0.1,0,0.3-0.1,0.5-0.1
	c0.7,0,1.4-0.1,2.1-0.4c0.1-0.1,0.3-0.1,0.5,0c0.1,0,0.1,0.2,0,0.3c0,0.3,0.2,0.7,0.4,0.9c0.2,0.2,0.5,0.5,0.7,0.7
	c0,0,0.1,0.1,0.1,0.1c0.5,0.1,1,0.2,1.5,0.2c0.3,0,0.4-0.1,0.5-0.4c0.1-0.3,0.3-0.4,0.5-0.6l0,0.1c0.1,0.1,0.2,0.2,0.4,0.3
	c0.3,0.1,0.5,0.3,0.8,0.4c0.2,0,0.4,0,0.6,0c0.1,0,0.2,0,0.4,0c0.5,0.1,1,0.1,1.6,0.2c0.2,0,0.4,0,0.5-0.1c0.5-0.2,0.7-0.8,0.5-1.3
	c0-0.2-0.1-0.4-0.1-0.7c-0.3-0.1-0.7-0.1-1,0.1c-0.4,0.2-0.9,0.2-1.2-0.1c-0.5-0.3-0.9-0.8-1.1-1.4c0.5,0.3,0.7-0.1,0.9-0.5
	c-0.6,0.1-1.2,0.3-1.8,0.4c-0.2,0-0.3,0.2-0.3,0.4c0,0,0,0.1,0.1,0.1c0,0.1,0.1,0.1,0.1,0.2c0,0.1-0.1,0.2-0.1,0.4
	c-0.2-0.1-0.4-0.1-0.5-0.2c-0.1-0.1-0.2-0.4-0.4-0.5c0,0-0.1-0.1-0.1-0.1c0-0.5-0.4-0.8-0.6-1.2c0-0.1-0.2-0.1-0.4-0.2
	c-0.3,0-0.7-0.2-0.9-0.4c-0.1-0.1-0.2-0.2-0.3-0.3c-0.2-0.1-0.4-0.2-0.6,0c-0.2,0.1-0.2,0.4,0,0.6c0,0,0,0,0,0
	c0.3,0.4,0.7,0.6,1.1,0.8c0.3,0.1,0.5,0.4,0.6,0.6c-0.4,0.3-0.9,0.2-1.3-0.1c-0.1-0.1-0.1-0.1-0.1-0.2c-0.1-0.2-0.2-0.3-0.4-0.4
	c-0.2-0.3-0.4-0.5-0.7-0.8c-0.3-0.3-1-0.3-1.1,0.3c0,0.1,0,0.1,0,0.2l-0.2-0.1c-0.4-0.2-0.8,0-1,0.4c-0.1,0.1-0.2,0.2-0.3,0.4
	c-0.1,0.1-0.2,0.2-0.2,0.3c-0.1,0.5-0.5,0.8-1,0.9c-0.6,0.1-1.3,0.2-1.9,0.2c-0.1,0-0.2-0.1-0.3-0.3c0-0.4,0-0.9,0-1.3
	c0.1-0.5,0.5-0.8,1-0.7c0.4,0,0.9,0,1.3,0c0.2,0,0.3-0.1,0.3-0.3c0-0.1,0-0.2,0-0.2c0.1-0.5,0.1-0.6-0.4-0.9
	c-0.1-0.1-0.3-0.1-0.4-0.2c-0.1-0.1-0.2-0.1-0.1-0.2c0-0.1,0.1-0.1,0.2-0.2c0.2,0,0.3-0.1,0.5-0.1c0.7,0,1.3-0.4,1.6-1
	c0.1-0.4,0.5-0.6,0.9-0.7c0.6-0.1,0.7-0.3,0.8-0.9c0-0.2,0.1-0.3,0.2-0.5h0.1c0.1,0.2,0.2,0.5,0.3,0.7c0.1,0.3,0.2,0.5,0.5,0.5
	c0.2,0,0.5,0,0.7,0c0.4,0,0.8-0.1,1.2-0.2c0.2,0,0.2,0,0.3-0.2c0.1-0.2,0.2-0.3,0.4-0.4c0.1-0.1,0.3-0.2,0.3-0.5
	c0-0.3,0.4-0.5,0.7-0.5c0.1,0,0.2,0.1,0.3,0.2c0.1,0.1,0.1,0.3,0.2,0.5c0.4-0.4,0.6-1,0.5-1.6c-0.2,0-0.3,0.1-0.5,0.1
	c-0.2,0-0.5,0-0.7,0c-0.7-0.1-0.8-0.5-0.4-1c0.1-0.2,0.3-0.6,0.2-0.7c-0.3-0.2-0.5,0.1-0.7,0.2c-0.4,0.4-0.8,0.9-0.9,1.4
	c-0.1,0.5-0.3,0.9-0.6,1.4c-0.1,0.2-0.4,0.3-0.7,0.3c-0.1,0-0.2-0.2-0.3-0.3c-0.1-0.1-0.2-0.3-0.3-0.4v0.1l-1.5,0.1
	c0-0.1,0-0.1-0.1-0.2c-0.2-1.1-0.3-0.9,0.7-1.3c0.3-0.2,0.6-0.4,0.8-0.7l0.7-0.6c0,0,0.1-0.1,0.1-0.1c0.7-0.9,1.7-1.1,2.7-1.2
	c0.9,0,1.9,0.1,2.7,0.5c0.5,0.1,0.9,0.3,1.5,0.4c-0.7,0.5-1.3,0-1.9,0.1v0.1c0.3,0.4,0.7,0.7,1.1,1c0.3,0.2,0.6,0,0.7-0.3
	c0.1-0.3,0.1-0.3,0.4-0.3c0.3,0,0.5-0.2,0.7-0.4c0.1-0.2,0.3-0.3,0.5-0.2c0,0.3,0.1,0.4,0.3,0.3c0.1,0,0.2-0.1,0.3-0.1
	c0.3-0.2,0.6-0.3,1-0.2c0.5,0,0.9-0.1,1.4-0.3c0.3-0.1,0.7-0.1,0.9,0.2c2,2.1,3.7,4.5,5.1,7.1C228.2,222.8,229.3,226.2,229.9,229.6
	L229.9,229.6z"/>
<path class="st3" d="M181,217.6l-0.2,1.3c0.3,0,0.6-0.1,0.8-0.4c0.5-0.8,1.1-1.5,1.6-2.3c0.1-0.1,0.2-0.2,0.2-0.4
	c0.3-0.6,1-0.9,1.6-0.7c0.4,0.1,0.6,0.1,0.6,0.6c0,0.1,0.2,0.2,0.3,0.2c0.5,0,1-0.1,1.4-0.3c0,0.1,0,0.1,0.1,0.2c0,0.1,0,0.2,0,0.3
	c-0.2,0.8,0.2,1.6,0.9,1.9l0.1,0.1c-0.5,0.5-1.3,0.8-2,0.9c-0.5,0-1,0.1-1.5,0.4c-0.4,0.2-0.8,0.3-1.2,0.4c-0.1,0.1-0.3,0.2-0.4,0.3
	l0,0.1l1.5-0.1c-0.1,0.4,0,0.6,0.4,0.6c0.1,0,0.3,0.2,0.4,0.3c-0.6,0.1-1,0.8-1.8,0.7l0.6-0.6c-0.3-0.3-0.4-0.4-0.8-0.1
	c-0.4,0.2-0.7,0.5-1.1,0.8c-0.1,0.1-0.2,0.2-0.3,0.2c-0.7,0.1-1,0.7-1.4,1.1c-0.2,0.3-0.5,0.4-0.8,0.5c-0.1,0-0.3,0-0.4,0.1
	c-0.1,0.1-0.2,0.2-0.2,0.4c0.1,0.6-0.3,1.1-0.8,1.3c-0.4,0.2-0.9,0.5-1.3,0.8c-0.4,0.4-0.4,0.9-0.2,1.4c0.1,0.3,0.1,0.7,0,1
	c0,0.1-0.2,0.1-0.3,0.2c-0.1,0-0.2-0.1-0.2-0.2c-0.1-0.4-0.2-0.8-0.3-1.2c-0.1-0.1-0.1-0.3-0.2-0.4l-0.1,0v0.5l-0.1,0.1
	c-0.1-0.1-0.2-0.2-0.3-0.3c-0.2-0.1-0.3-0.3-0.5-0.4c-0.2-0.1-0.4,0-0.5,0.2c-0.2,0.3-0.4,0.5-0.6,0.7c-0.2-0.2-0.4-0.4-0.5-0.6
	c-0.1-0.1-0.2-0.1-0.3-0.1c-0.4,0.1-0.7,0.3-1,0.6c-0.3,0.3-0.6,0.6-0.9,0.9c-0.3,0.2-0.4,0.6-0.2,0.9c0,0.1,0,0.3,0,0.4
	c-0.2,0.8,0.3,1.6,1.1,1.8c0.4,0.1,0.9,0,1.1-0.4c0.1-0.2,0.1-0.4,0.2-0.5c0.1-0.2,0.3-0.3,0.5-0.3c0,0,0,0,0,0
	c0.1,0.1,0.2,0.3,0.2,0.5c-0.1,0.3-0.2,0.6-0.3,0.9c-0.1,0.3,0,0.5,0.3,0.6s0.5,0.1,0.8,0.1c0.3,0,0.5,0.2,0.5,0.4c0,0,0,0.1,0,0.1
	c0,0.4,0,0.8,0,1.1c0.1,0.2,0.2,0.4,0.4,0.6c0.1,0.1,0.3,0.1,0.4,0c0.2-0.2,0.5-0.2,0.8-0.1l0.3,0.1c0.5,0.1,0.6,0,0.9-0.3
	c0.2-0.2,0.5-0.4,0.7-0.5c0.1,0,0.2,0,0.2,0.1c0,0.1,0,0.2,0,0.2c-0.3,0.2-0.1,0.3,0.1,0.4l0.6,0.2c-0.4-0.6,0.1-0.8,0.3-1.1
	c0.1,0,0.2,0.1,0.2,0.2c0.3,0.3,0.8,0.5,1.2,0.5c0.6,0,1.2,0.2,1.7,0.7c0.6,0.5,1.4,0.9,2.2,1.1c0.3,0.1,0.6,0.3,0.8,0.6
	c0.1,0.2,0.3,0.5,0.5,0.7c0.2,0.2,0.2,0.5,0,0.7c-0.1,0-0.1,0.1-0.2,0.1l-0.4,0.2c0.1,0.2,0.2,0.3,0.4,0.1c0.1-0.1,0.3-0.1,0.4-0.2
	c0.1,0,0.2,0.1,0.3,0.1c0,0,0,0.1-0.1,0.2c0,0.1-0.1,0.2,0,0.2c0.1,0,0.1,0.1,0.2,0.1c0.1,0,0.1,0,0.2-0.1c0.2-0.3,0.7-0.3,1-0.1
	c0,0,0,0,0.1,0.1c0,0,0.1,0.1,0.1,0.1c0,0.5,0.4,0.3,0.7,0.2c0.2-0.1,0.5-0.1,0.7,0c0.6,0.2,1.2,0.4,1.8,0.6c0.2,0,0.3,0.2,0.3,0.4
	c0.1,0.9-0.2,1.9-0.8,2.6c0,0.1-0.1,0.1-0.2,0.1c-0.3,0.1-0.3,0.3-0.3,0.6c0,0.6,0,1.2-0.1,1.8c-0.1,0.4-0.2,0.7-0.4,1.1
	c-0.1,0.3-0.3,0.6-0.7,0.5c-0.2,0-0.4,0.2-0.6,0.3c-0.3,0.2-0.6,0.5-0.9,0.7c-0.2,0.3-0.3,0.5-0.3,0.8c-0.1,0.5-0.3,1-0.4,1.5
	c-0.1,0.3-0.5,0.5-0.7,0.7c-0.3,0.5-1,0.6-1.5,0.3c-0.1,0.4,0.1,0.6,0.3,0.8c0.2,0.4,0.2,0.4-0.1,0.6c-0.3,0.3-0.6,0.5-0.9,0.8
	c-0.2,0.2-0.3,0.5-0.2,0.8c0,0.3,0,0.5-0.1,0.8c0,0.1-0.1,0.3-0.1,0.4c0,0.3,0.1,0.5,0.2,0.8c0.1,0.5,0.1,0.9,0.1,1.4
	c0,0.2,0.1,0.3,0.3,0.3c0.1,0,0.2,0.1,0.2,0.2c0.1,0.3,0.2,0.5,0.3,0.8c-0.3,0.2-0.7,0.2-0.9-0.1c0,0,0,0,0,0
	c-0.2-0.3-0.4-0.6-0.8-0.7c-0.5-0.2-1-0.7-1.2-1.2c-0.4-0.5-0.6-1.1-0.5-1.8c0.1-0.5-0.1-0.9-0.6-1.1c-0.1,0-0.1-0.2-0.2-0.3
	c0-0.4-0.1-0.9-0.1-1.3c-0.1-1-0.2-1.9-0.3-2.9c0-0.7,0-1.4,0-2.1c0-0.3,0-0.6,0-1c-0.1-0.9-0.6-1.6-1.5-1.8
	c-0.4-0.1-0.8-0.5-0.7-0.9c0-0.4-0.2-0.8-0.6-0.9c-0.5-0.3-0.8-0.7-1-1.2c-0.1-0.1-0.2-0.3-0.3-0.4c-0.3-0.2-0.4-0.6-0.3-1
	c0-0.2,0-0.5,0-0.7c0-0.2,0-0.3,0-0.5c0.1-0.5,0.2-0.9,0.5-1.3c0.3-0.4,0.5-0.9,0.7-1.3c0.2-0.5,0-1.1-0.4-1.4
	c-0.1-0.1-0.3-0.1-0.5,0c-0.3,0.2-0.7,0.2-1-0.1c-0.6-0.4-1.1-0.9-1.4-1.5c-0.1-0.1-0.1-0.2-0.2-0.2c-0.1,0-0.3-0.1-0.4-0.1
	c-0.4,0-0.8-0.2-1.1-0.5c-0.3-0.4-0.8-0.5-1.3-0.5c-0.1,0-0.1,0-0.2,0c-0.9-0.3-1.8-0.8-2.5-1.5c-0.2-0.3-0.3-0.6-0.2-1
	c0.3-1.9,0.7-3.8,1.3-5.6c0.9-2.8,2.3-5.5,4-7.9c0.6-0.9,1.4-1.8,2-2.6c0.1-0.1,0.2-0.2,0.4-0.1c0.2,0.1,0.5,0.2,0.7,0.1
	c0.6-0.1,1.1,0,1.6-0.2c0.7-0.1,1.3-0.3,1.9-0.6c0.5-0.3,0.8-0.7,0.9-1.3c0-0.1,0.1-0.3,0.1-0.4c0.2-0.5,0.2-0.5,0.7-0.4l1.1,0.3
	c-0.3,0.1-0.7,0.2-1,0.4c-0.2,0.1-0.2,0.2-0.1,0.4c0.1,0.2,0.4,0.6,0.7,0.8c0.1,0.1,0.2,0.1,0.3,0.1c0.5-0.2,1-0.3,1.4-0.2
	c-0.1,0.2-0.3,0.4-0.4,0.6c-0.2,0.1-0.4,0.2-0.6,0.3c-0.6,0.1-1.1,0.2-1.7,0.3c-0.1,0.4-0.4,0.7-0.8,0.7c-0.7,0.1-1.4,0.4-2,0.9
	c-0.4,0.2-0.6,0.7-0.4,1.2c0.1,0.2,0.1,0.4,0.4,0.3c0,0,0.1,0,0.2,0.1c0.3,0.1,0.5,0.3,0.8,0.4c0.3,0.1,0.5,0.3,0.8,0.2
	C180.9,217.5,181,217.5,181,217.6z"/>
<path class="st3" d="M189.8,209.9c0.7-0.1,1.4-0.2,2-0.3c0.3-0.1,0.6-0.2,0.8-0.3c0.7-0.3,1.5-0.5,2.3-0.4c0.7,0.1,1.5,0.2,2.2,0.2
	c0.3,0,0.6,0,0.8-0.2c0.1-0.1,0.3-0.1,0.4-0.1c0.6-0.1,1.1-0.2,1.7-0.3c0.3,0,0.6,0,0.9,0c0.7,0.1,1.4,0.2,2.1,0.4
	c0.1,0,0.2,0.1,0.3,0.1c-0.3,0-0.6,0-0.9,0.1c-0.2,0-0.4,0.1-0.5,0.1c-0.3,0.1-0.5,0.3-0.5,0.7c0,0.4-0.3,0.7-0.7,0.8
	c-0.4,0.1-0.8,0.3-1.1,0.5c-0.2,0.1-0.2,0.2,0,0.3l0.8,0.5c-0.4,0.2-0.4,0.2-1.4-0.2l0.4,0.7c-0.6,0.2-1.2,0.3-1.8,0.5
	c-0.6,0.1-1.1,0.4-1.6,0.7c-0.4,0.3-1,0.5-1.5,0.5c-0.3,0-0.5,0.1-0.5,0.5c0,0.2-0.1,0.3-0.3,0.4c-0.2,0.1-0.3,0.3-0.5,0.4
	c-0.4,0.3-1.1,0.2-1.4-0.2c-0.1-0.2-0.2-0.4-0.2-0.6c0-0.2,0-0.4,0-0.6c0.1-0.2,0.1-0.5,0.3-0.7c0.1-0.1,0.1-0.2,0.2-0.2
	c0.6-0.5,0.7-1.4,0.2-1.9c-0.2-0.2-0.4-0.3-0.6-0.4c-0.4-0.3-0.9-0.4-1.4-0.5C190.1,210.1,189.9,210,189.8,209.9z"/>
<path class="st3" d="M184.4,210.7c0.2-0.4,0.5-0.5,0.9-0.3c0.4,0.2,0.9,0.2,1.3,0.1l0.1,0.1c-0.1,0.1-0.1,0.2-0.2,0.3
	c-0.1,0-0.4,0.1-0.6,0.2c-0.1,0-0.2,0.1-0.2,0.2c0,0.1,0.1,0.2,0.2,0.2l2.5,0.7c0.1,0,0.1,0.1,0.1,0.2c0,0.1,0,0.2-0.1,0.3
	c-0.1,0.6,0,0.8,0.6,0.8c0,0.2-0.1,0.4-0.3,0.4c-0.4,0.1-0.8,0.2-1.2,0.4c-0.2,0.1-0.4,0.1-0.3,0.4c0,0,0,0.1-0.1,0.2
	c-0.3,0.2-0.8,0.2-1.1,0c-0.2-0.2-0.2-0.6,0-0.8c0.1-0.1,0.2-0.1,0.3-0.1c0.2-0.1,0.5-0.1,0.7-0.1c0.1,0,0.2-0.1,0.3-0.2
	c0-0.1-0.1-0.2-0.1-0.3c-0.6-0.5-1.4-0.9-2.2-0.9c-0.5,0-0.9-0.1-1.4-0.1c-0.2,0-0.4,0-0.4-0.3c0-0.2,0.1-0.4,0.3-0.5
	c0,0,0.1,0,0.1,0c0.3,0,0.6,0,0.9-0.1c0.1,0,0.3-0.1,0.3-0.2C184.8,210.9,184.7,210.8,184.4,210.7
	C184.4,210.7,184.4,210.7,184.4,210.7z"/>
<path class="st3" d="M222.3,242.9c0.3,0.7,0.3,1.4,0.1,2.1c-0.2,0.6-0.4,1.3-0.6,1.9c-0.1,0.2-0.2,0.4-0.3,0.5
	c-0.3,0.6-0.3,0.6-0.9,0.5c-0.5-0.2-0.8-0.7-0.6-1.2v0c0.2-0.2,0.3-0.4,0.4-0.7c0.1-0.3,0.1-0.5,0-0.8c0-0.4,0.2-0.7,0.6-0.9
	c0.1,0,0.2-0.1,0.2-0.1c0.3-0.3,0.6-0.6,0.9-1C222.2,243.1,222.3,243,222.3,242.9z"/>
<path class="st3" d="M192.3,208.5c-0.6,0.4-1.2,0.7-1.9,0.8c-1,0.2-1.9,0.5-2.7,1.1c-0.3,0.2-0.5,0.3-0.7-0.1c0-0.1-0.2-0.1-0.3-0.1
	c-0.3,0-0.5-0.1-0.8-0.1c0.1-0.1,0.2-0.1,0.2-0.2c0.2-0.1,0.4-0.1,0.6-0.2c0.2-0.1,0.5-0.1,0.6-0.4c0.1-0.1,0.2-0.2,0.3-0.3
	c0.4-0.1,0.9-0.2,1.3-0.2c0.3,0,0.5,0,0.8-0.1c0.5-0.2,1-0.3,1.5-0.2c0.2,0,0.3,0,0.5,0L192.3,208.5L192.3,208.5z"/>
<path class="st3" d="M204.4,217.7c-0.2-0.3-0.5-0.4-0.6-0.3c-0.5,0.4-0.6,0.5-0.3,0.9l-1.1,0.4c-0.1-0.4,0.4-0.7,0-1.1
	c0.2-0.3,0.4-0.4,0.7-0.4h0.4c0.2,0,0.4-0.1,0.4-0.4c0-0.1,0-0.2,0-0.3c0.1-0.1,0.2-0.3,0.3-0.3c0.1,0,0.3,0.1,0.4,0.2
	c-0.3,0.3-0.2,0.5,0.1,0.7c0.1,0,0.1,0.1,0.2,0.1c0.1,0.2,0.2,0.4,0.3,0.7c0.2,0.2,0.4,0.3,0.7,0.4c-0.2,0.2-0.4,0.3-0.6,0.5
	c-0.2,0.1-0.4,0.2-0.7,0.3c-0.2,0-0.4,0-0.6,0V219l0.4-0.3c-0.1-0.2-0.4-0.3-0.4-0.5C204.1,218.1,204.3,217.9,204.4,217.7z"/>
<path class="st3" d="M199.5,214c0.1-0.1,0.3-0.1,0.4-0.2c0.4-0.1,0.9-0.2,1.3-0.3c0.2,0,0.5,0,0.5,0.2c0.1,0.2-0.1,0.3-0.2,0.4
	c-0.3,0.2-0.5,0.3-0.8,0.4c-0.3,0.1-0.6,0.1-0.8-0.2c-0.1-0.1-0.3-0.1-0.4-0.2L199.5,214z"/>
<path class="st3" d="M186.9,220.1c0.3-0.5,0.8-0.9,1.4-1.1l-0.3,0.3c0.1,0.1,0.3,0.1,0.3,0.2c0.1,0.1,0.3,0.3,0.3,0.4
	c-0.1,0.2-0.3,0.4-0.5,0.3C187.7,220.1,187.3,220.1,186.9,220.1z"/>
<linearGradient id="SVGID_1_" gradientUnits="userSpaceOnUse" x1="203.3842" y1="509.2818" x2="151.9042" y2="455.9448" gradientTransform="matrix(1 0 0 -1 0 738)">
	<stop  offset="0" style="stop-color:#000000;stop-opacity:0"/>
	<stop  offset="0.99" style="stop-color:#000000"/>
</linearGradient>
<path class="st4" d="M215.5,260.4l0,0.4c-14.9,8.9-34.2,4.1-43.1-10.8c-8.9-14.9-4.1-34.2,10.8-43.1c3.4-2,7.1-3.4,11-4.1
	c-2.2,1.8-4.3,3.9-6.1,6.1c-0.4,0.4-0.7,0.9-1.1,1.4c-0.3,0.5-0.6,0.8-0.8,1.2c-0.3,0.4-0.4,0.6-0.6,0.9c-0.7,1.1-1.4,2.3-2,3.5
	c-1.1,2.3-1.9,4.7-2.4,7.2c-0.7,3.8-0.3,7.8,0.9,11.5c0.6,1.9,1.5,3.7,2.5,5.4c1.5,2.6,3.3,5.1,5.2,7.4
	C201.6,261.1,215.5,260.4,215.5,260.4z"/>
<path class="st2" d="M345.6,254.6c-0.9,3.3-4.8,2.8-4.8,2.8s-22.9,0.4-23.4,0c-0.5-0.4-0.1-1.7,0-2.2l0-0.2h6.5c0,0,3.1-1.6-2-8.9
	c-4.3-6.1,11.8-6.4,17.1-6.3c1,0,1.6,0,1.6,0S346.5,251.2,345.6,254.6z"/>
<path class="st2" d="M342.9,252.2c-0.8,3.3-4.8,2.7-4.8,2.7s-14.5,0.3-20.7,0.2l0-0.2h6.5c0,0,3.1-1.6-2-8.9
	c-4.3-6.1,11.8-6.4,17.1-6.3C340.7,243.3,343.5,249.8,342.9,252.2z"/>
<linearGradient id="SVGID_2_" gradientUnits="userSpaceOnUse" x1="332.4876" y1="479.6786" x2="325.8116" y2="499.1846" gradientTransform="matrix(1 0 0 -1 0 738)">
	<stop  offset="0" style="stop-color:#000000;stop-opacity:0"/>
	<stop  offset="0.99" style="stop-color:#000000"/>
</linearGradient>
<path class="st5" d="M343.9,252.7c-0.9,3.3-5.7,2.2-5.7,2.2s-14.5,0.3-20.7,0.2l0-0.2h6.5c0,0,3.1-1.6-2-8.9
	c-4.3-6.1,11.8-6.4,17.1-6.3C340.7,243.3,344.5,250.3,343.9,252.7z"/>
<path class="st2" d="M304.7,206.8h49c2.5,0,4.6,2.1,4.6,4.6v29.8c0,2.5-2.1,4.6-4.6,4.6h-49c-2.5,0-4.6-2.1-4.6-4.6v-29.8
	C300.1,208.8,302.1,206.8,304.7,206.8z"/>
<linearGradient id="SVGID_3_" gradientUnits="userSpaceOnUse" x1="385.297" y1="513.7721" x2="291.247" y2="510.3111" gradientTransform="matrix(1 0 0 -1 0 738)">
	<stop  offset="0" style="stop-color:#000000;stop-opacity:0"/>
	<stop  offset="0.99" style="stop-color:#000000"/>
</linearGradient>
<path class="st6" d="M304.7,206.8h49c2.5,0,4.6,2.1,4.6,4.6v29.8c0,2.5-2.1,4.6-4.6,4.6h-49c-2.5,0-4.6-2.1-4.6-4.6v-29.8
	C300.1,208.8,302.1,206.8,304.7,206.8z"/>
<path class="st2" d="M303.4,206.8h49c2.5,0,4.6,2.1,4.6,4.6v29.8c0,2.5-2.1,4.6-4.6,4.6h-49c-2.5,0-4.6-2.1-4.6-4.6v-29.8
	C298.8,208.8,300.9,206.8,303.4,206.8z"/>
<linearGradient id="SVGID_4_" gradientUnits="userSpaceOnUse" x1="324.8032" y1="537.9042" x2="334.1962" y2="459.5471" gradientTransform="matrix(1 0 0 -1 0 738)">
	<stop  offset="2.000000e-02" style="stop-color:#FFFFFF;stop-opacity:0"/>
	<stop  offset="0.32" style="stop-color:#FFFFFF;stop-opacity:0.39"/>
	<stop  offset="0.68" style="stop-color:#FFFFFF;stop-opacity:0.68"/>
	<stop  offset="1" style="stop-color:#FFFFFF"/>
</linearGradient>
<path class="st7" d="M303.4,206.8h49c2.5,0,4.6,2.1,4.6,4.6v29.8c0,2.5-2.1,4.6-4.6,4.6h-49c-2.5,0-4.6-2.1-4.6-4.6v-29.8
	C298.8,208.8,300.9,206.8,303.4,206.8z"/>
<path class="st2" d="M357,237.3l0,3.9c0,2.5-2.1,4.6-4.6,4.6h0h-49c-2.5,0-4.6-2.1-4.6-4.6v-3.9H357z"/>
<linearGradient id="SVGID_5_" gradientUnits="userSpaceOnUse" x1="327.9274" y1="482.132" x2="351.2204" y2="473.4181" gradientTransform="matrix(1 0 0 -1 0 738)">
	<stop  offset="0" style="stop-color:#000000;stop-opacity:0"/>
	<stop  offset="0.99" style="stop-color:#000000"/>
</linearGradient>
<path class="st8" d="M340.3,255.1h-22.8v2.2h22.8V255.1z"/>
<linearGradient id="SVGID_6_" gradientUnits="userSpaceOnUse" x1="345.3278" y1="480.9733" x2="334.0208" y2="487.9523" gradientTransform="matrix(1 0 0 -1 0 738)">
	<stop  offset="0" style="stop-color:#000000;stop-opacity:0"/>
	<stop  offset="0.99" style="stop-color:#000000"/>
</linearGradient>
<path class="st9" d="M343.9,252.7l0.2,3.9c-1.1,0.7-2.5,1-3.8,0.7v-2.2C340.3,255.1,343.5,256.1,343.9,252.7z"/>
<path class="st2" d="M71.5,230.1c0.7,2.5,3.7,2.1,3.7,2.1s17.4,0.3,17.7,0c0.3-0.3,0.1-1.3,0-1.6c0,0,0-0.1,0-0.1h-5
	c0,0-2.3-1.2,1.5-6.7c3.3-4.6-9-4.9-12.9-4.8c-0.8,0-1.2,0-1.2,0S70.8,227.5,71.5,230.1z"/>
<path class="st2" d="M73.5,228.3c0.6,2.5,3.6,2.1,3.6,2.1s11,0.2,15.7,0.1c0,0,0-0.1,0-0.1h-5c0,0-2.3-1.2,1.5-6.7
	c3.3-4.6-9-4.9-12.9-4.8C75.2,221.5,73.1,226.5,73.5,228.3z"/>
<linearGradient id="SVGID_7_" gradientUnits="userSpaceOnUse" x1="81.4669" y1="505.0917" x2="86.5233" y2="519.8767" gradientTransform="matrix(1 0 0 -1 0 738)">
	<stop  offset="0" style="stop-color:#000000;stop-opacity:0"/>
	<stop  offset="0.99" style="stop-color:#000000"/>
</linearGradient>
<path class="st10" d="M72.8,228.7c0.6,2.5,4.4,1.7,4.4,1.7s11,0.2,15.7,0.1c0,0,0-0.1,0-0.1h-5c0,0-2.3-1.2,1.5-6.7
	c3.3-4.6-9-4.9-12.9-4.8C75.2,221.5,72.4,226.8,72.8,228.7z"/>
<path class="st2" d="M65.4,193.8h37.1c1.9,0,3.5,1.6,3.5,3.5v22.6c0,1.9-1.6,3.5-3.5,3.5H65.4c-1.9,0-3.5-1.6-3.5-3.5v-22.6
	C61.9,195.4,63.5,193.8,65.4,193.8z"/>
<linearGradient id="SVGID_8_" gradientUnits="userSpaceOnUse" x1="41.4233" y1="530.9422" x2="112.711" y2="528.3242" gradientTransform="matrix(1 0 0 -1 0 738)">
	<stop  offset="0" style="stop-color:#000000;stop-opacity:0"/>
	<stop  offset="0.99" style="stop-color:#000000"/>
</linearGradient>
<path class="st11" d="M65.4,193.8h37.1c1.9,0,3.5,1.6,3.5,3.5v22.6c0,1.9-1.6,3.5-3.5,3.5H65.4c-1.9,0-3.5-1.6-3.5-3.5v-22.6
	C61.9,195.4,63.5,193.8,65.4,193.8z"/>
<path class="st2" d="M66.3,193.8h37.1c1.9,0,3.5,1.6,3.5,3.5v22.6c0,1.9-1.6,3.5-3.5,3.5H66.3c-1.9,0-3.5-1.6-3.5-3.5v-22.6
	C62.8,195.4,64.4,193.8,66.3,193.8z"/>
<linearGradient id="SVGID_9_" gradientUnits="userSpaceOnUse" x1="87.2744" y1="549.2358" x2="80.1562" y2="489.8439" gradientTransform="matrix(1 0 0 -1 0 738)">
	<stop  offset="2.000000e-02" style="stop-color:#FFFFFF;stop-opacity:0"/>
	<stop  offset="0.32" style="stop-color:#FFFFFF;stop-opacity:0.39"/>
	<stop  offset="0.68" style="stop-color:#FFFFFF;stop-opacity:0.68"/>
	<stop  offset="1" style="stop-color:#FFFFFF"/>
</linearGradient>
<path class="st12" d="M66.3,193.8h37.1c1.9,0,3.5,1.6,3.5,3.5v22.6c0,1.9-1.6,3.5-3.5,3.5H66.3c-1.9,0-3.5-1.6-3.5-3.5v-22.6
	C62.8,195.4,64.4,193.8,66.3,193.8z"/>
<path class="st2" d="M62.9,217v2.9c0,1.9,1.6,3.5,3.5,3.5h37.1c1.9,0,3.5-1.6,3.5-3.5V217H62.9z"/>
<linearGradient id="SVGID_10_" gradientUnits="userSpaceOnUse" x1="84.9101" y1="506.9595" x2="67.2537" y2="500.3575" gradientTransform="matrix(1 0 0 -1 0 738)">
	<stop  offset="0" style="stop-color:#000000;stop-opacity:0"/>
	<stop  offset="0.99" style="stop-color:#000000"/>
</linearGradient>
<path class="st13" d="M92.8,230.5H75.5v1.6h17.3V230.5z"/>
<linearGradient id="SVGID_11_" gradientUnits="userSpaceOnUse" x1="71.7338" y1="506.051" x2="80.3084" y2="511.336" gradientTransform="matrix(1 0 0 -1 0 738)">
	<stop  offset="0" style="stop-color:#000000;stop-opacity:0"/>
	<stop  offset="0.99" style="stop-color:#000000"/>
</linearGradient>
<path class="st14" d="M72.8,228.7l-0.2,2.9c0.8,0.6,1.9,0.7,2.9,0.5v-1.6C75.5,230.5,73.1,231.2,72.8,228.7z"/>
<path class="st2" d="M256.1,211.4l-22.6-3.4c-0.8-0.1-1.3-0.7-1.4-1.5l-1.6-18.4c-0.1-0.9,0.6-1.7,1.5-1.8c0.1,0,0.3,0,0.4,0
	l22.7,3.4c0.8,0.1,1.3,0.7,1.4,1.5l1.6,18.4c0.1,0.9-0.6,1.7-1.5,1.8C256.3,211.5,256.2,211.5,256.1,211.4z"/>
<linearGradient id="SVGID_12_" gradientUnits="userSpaceOnUse" x1="244.1143" y1="568.911" x2="244.3622" y2="478.291" gradientTransform="matrix(1 0 0 -1 0 738)">
	<stop  offset="0" style="stop-color:#000000;stop-opacity:0"/>
	<stop  offset="0.99" style="stop-color:#000000"/>
</linearGradient>
<path class="st15" d="M255,209.3l-20.5-3.1c-0.7-0.1-1.2-0.6-1.3-1.3l-1.5-16c-0.1-0.8,0.5-1.5,1.3-1.5c0.1,0,0.2,0,0.4,0l20.5,3.1
	c0.7,0.1,1.2,0.6,1.3,1.3l1.5,16c0.1,0.8-0.5,1.5-1.3,1.5C255.2,209.4,255.1,209.4,255,209.3z"/>
<path class="st2" d="M233.8,207.4l29.5,4.4c0.5,0.1,0.9,0.6,0.8,1.1c-0.1,0.5-0.6,0.9-1.1,0.8l-29.5-4.4c-0.5-0.1-0.9-0.6-0.8-1.1
	C232.8,207.7,233.3,207.3,233.8,207.4C233.8,207.4,233.8,207.4,233.8,207.4z"/>
<path class="st2" d="M246.8,209.3l23.8,3.6c0.5,0.1,0.8,0.5,0.8,1l0,0.2c-0.1,0.5-0.5,0.8-1,0.8l-23.8-3.6c-0.5-0.1-0.8-0.5-0.8-1
	l0-0.2C245.8,209.6,246.3,209.2,246.8,209.3z"/>
<linearGradient id="SVGID_13_" gradientUnits="userSpaceOnUse" x1="259.7575" y1="535.1575" x2="256.1525" y2="508.8775" gradientTransform="matrix(1 0 0 -1 0 738)">
	<stop  offset="0" style="stop-color:#000000;stop-opacity:0"/>
	<stop  offset="0.99" style="stop-color:#000000"/>
</linearGradient>
<path class="st16" d="M246.8,209.3l23.8,3.6c0.5,0.1,0.8,0.5,0.8,1l0,0.2c-0.1,0.5-0.5,0.8-1,0.8l-23.8-3.6c-0.5-0.1-0.8-0.5-0.8-1
	l0-0.2C245.8,209.6,246.3,209.2,246.8,209.3z"/>
<path class="st2" d="M138.8,242l-19.8,7.5c-0.7,0.3-1.4,0-1.8-0.6l-9.6-14.1c-0.5-0.7-0.3-1.6,0.4-2.1c0.1-0.1,0.2-0.1,0.3-0.2
	l19.8-7.5c0.7-0.2,1.4,0,1.8,0.6l9.6,14.1c0.5,0.7,0.3,1.7-0.4,2.1C139,241.9,138.9,241.9,138.8,242z"/>
<linearGradient id="SVGID_14_" gradientUnits="userSpaceOnUse" x1="111.4605" y1="522.4068" x2="152.3845" y2="449.1888" gradientTransform="matrix(1 0 0 -1 0 738)">
	<stop  offset="0" style="stop-color:#000000;stop-opacity:0"/>
	<stop  offset="0.99" style="stop-color:#000000"/>
</linearGradient>
<path class="st17" d="M136.9,240.8l-17.9,6.8c-0.6,0.3-1.3,0.1-1.6-0.5l-8.4-12.2c-0.4-0.6-0.3-1.4,0.4-1.8c0.1-0.1,0.2-0.1,0.3-0.2
	l17.9-6.8c0.6-0.2,1.3,0,1.6,0.5l8.5,12.2c0.4,0.6,0.2,1.4-0.4,1.8C137.1,240.7,137,240.7,136.9,240.8z"/>
<path class="st2" d="M119,248.7l25.8-9.8c0.5-0.2,1,0.1,1.2,0.5c0.2,0.5-0.1,1-0.5,1.2l-25.8,9.8c-0.5,0.2-1,0-1.2-0.5c0,0,0,0,0,0
	C118.3,249.5,118.5,248.9,119,248.7C119,248.8,119,248.8,119,248.7z"/>
<path class="st2" d="M130.3,244.5l20.7-7.9c0.4-0.2,0.9,0.1,1.1,0.5l0.1,0.2c0.2,0.4-0.1,0.9-0.5,1.1l-20.7,7.9
	c-0.4,0.2-0.9-0.1-1.1-0.5l-0.1-0.2C129.7,245.1,129.9,244.6,130.3,244.5z"/>
<linearGradient id="SVGID_15_" gradientUnits="userSpaceOnUse" x1="137.8499" y1="504.6512" x2="146.8109" y2="481.8332" gradientTransform="matrix(1 0 0 -1 0 738)">
	<stop  offset="0" style="stop-color:#000000;stop-opacity:0"/>
	<stop  offset="0.99" style="stop-color:#000000"/>
</linearGradient>
<path class="st18" d="M130.3,244.5l20.7-7.9c0.4-0.2,0.9,0.1,1.1,0.5l0.1,0.2c0.2,0.4-0.1,0.9-0.5,1.1l-20.7,7.9
	c-0.4,0.2-0.9-0.1-1.1-0.5l-0.1-0.2C129.7,245.1,129.9,244.6,130.3,244.5z"/>
<path class="st2" d="M138.1,252.7l19.5-1.8c2.9-0.3,5.5,1.9,5.8,4.8l4.6,49.5c0.3,2.9-1.9,5.5-4.8,5.8l-19.5,1.8
	c-2.9,0.3-5.5-1.9-5.8-4.8l-4.6-49.5C133,255.6,135.2,253,138.1,252.7z"/>
<linearGradient id="SVGID_16_" gradientUnits="userSpaceOnUse" x1="152.4505" y1="439.1631" x2="155.3315" y2="411.222" gradientTransform="matrix(1 0 0 -1 0 738)">
	<stop  offset="0" style="stop-color:#000000;stop-opacity:0"/>
	<stop  offset="0.99" style="stop-color:#000000"/>
</linearGradient>
<path class="st19" d="M138.1,252.7l19.5-1.8c2.9-0.3,5.5,1.9,5.8,4.8l4.6,49.5c0.3,2.9-1.9,5.5-4.8,5.8l-19.5,1.8
	c-2.9,0.3-5.5-1.9-5.8-4.8l-4.6-49.5C133,255.6,135.2,253,138.1,252.7z"/>
<path class="st2" d="M138,252.6l19.7-1.8c2.9-0.3,5.5,1.9,5.8,4.8l4.5,48.3c0.3,2.9-1.9,5.5-4.8,5.8l-19.7,1.8
	c-2.9,0.3-5.5-1.9-5.8-4.8l-4.5-48.3C133,255.5,135.1,252.9,138,252.6z"/>
<path class="st3" d="M139.2,253.9l17.7-1.7c2.6-0.2,4.9,1.7,5.2,4.3l4.1,43.4c0.2,2.6-1.7,4.9-4.3,5.2l-17.7,1.7
	c-2.6,0.2-4.9-1.7-5.2-4.3l-4.1-43.4C134.7,256.5,136.6,254.1,139.2,253.9z"/>
<path class="st2" d="M186.9,195c-1.4,0-2.5-1.1-2.5-2.4c0-0.8,0.3-1.5,0.9-2c3.8-3.2,13.4-7.4,22-0.8c1.1,0.8,1.4,2.3,0.6,3.5
	c-0.8,1.1-2.3,1.4-3.5,0.6c-0.1,0-0.1-0.1-0.2-0.1c-7.7-5.9-15.5,0.4-15.8,0.7C188,194.8,187.4,195,186.9,195z"/>
<path class="st2" d="M180.9,187c-0.7,0-1.3-0.3-1.8-0.7c-1-1-1-2.6,0-3.5c0.1-0.1,14.6-14.3,33-1.1c1.1,0.8,1.4,2.4,0.6,3.5
	c-0.8,1.1-2.4,1.4-3.5,0.6c-14.9-10.7-26.1,0.1-26.6,0.6C182.2,186.7,181.6,187,180.9,187z"/>
<path class="st2" d="M218.3,177.6c-0.5,0-1-0.2-1.5-0.5c-22.2-16.2-41.1-0.8-41.9-0.1c-1.1,0.9-2.7,0.7-3.5-0.4
	c-0.8-1-0.7-2.5,0.3-3.4c0.2-0.2,22.6-18.7,48.1-0.1c1.1,0.8,1.3,2.4,0.5,3.5C219.8,177.2,219.1,177.6,218.3,177.6z"/>
</svg>
