<svg width="414" height="736" viewBox="0 0 414 736" fill="none" xmlns="http://www.w3.org/2000/svg">
<path d="M414 0V736H0V444.273L103.304 300.445C111.363 303.464 119.332 306.695 126.949 310.672C136.563 315.687 145.595 321.865 155.585 326.062C179.951 336.297 209.397 333.425 231.3 318.608C240.12 312.652 247.762 304.936 257.212 300.06C271.939 292.459 289.342 292.598 305.926 293.089C322.511 293.58 339.807 294.112 354.87 287.149C369.933 280.186 381.764 263.144 376.961 247.255C373.966 237.322 365.302 230.073 356.089 225.286C346.876 220.5 336.78 217.62 327.551 212.875C300.985 199.195 283.287 171.098 255.355 160.511C239.146 154.325 221.793 154.972 205.11 158.695L319.091 0H414Z" fill="#FD8469"/>
<path opacity="0.24" d="M354.87 287.149C339.807 294.112 322.511 293.58 305.926 293.089C289.342 292.598 271.939 292.459 257.212 300.06C247.762 304.936 240.12 312.652 231.3 318.608C209.397 333.425 179.951 336.297 155.585 326.062C145.595 321.865 136.563 315.687 126.949 310.672C119.332 306.695 111.363 303.464 103.304 300.445C87.7745 294.611 71.9018 289.53 57.51 281.348C47.4955 275.662 37.5627 267.3 36.1309 255.845C35.5009 250.797 36.6464 245.651 38.5609 240.979C45.4827 223.953 61.6418 212.457 78.3655 204.979C95.0891 197.501 113.089 192.96 129.346 184.525C138.944 179.493 148.099 173.07 158.474 169.781C167.793 166.819 176.981 167.408 186.292 164.135C192.395 162.008 198.704 160.126 205.11 158.695C221.793 154.972 239.146 154.325 255.355 160.511C283.287 171.098 300.985 199.195 327.551 212.875C336.78 217.62 346.876 220.5 356.089 225.286C365.302 230.073 373.966 237.322 376.961 247.255C381.764 263.144 369.933 280.186 354.87 287.149Z" fill="#6FD5DF"/>
<path d="M198.098 269.845C151.576 269.845 115.143 259.085 115.143 245.348C115.143 231.611 151.576 220.86 198.098 220.86C244.62 220.86 281.045 231.619 281.045 245.348C281.045 259.077 244.612 269.845 198.098 269.845ZM198.098 223.077C154.334 223.077 117.36 233.28 117.36 245.348C117.36 257.416 154.334 267.627 198.098 267.627C241.863 267.627 278.828 257.425 278.828 245.348C278.828 233.272 241.846 223.077 198.098 223.077Z" fill="#6FD5DF"/>
<path d="M200.635 293.073C162.663 293.073 126.941 288.491 100.055 280.17C72.7609 271.718 57.7554 260.313 57.7554 248.04C57.7554 235.767 72.7854 224.362 100.08 215.91C126.965 207.597 162.687 203.007 200.659 203.007C238.631 203.007 274.361 207.597 301.238 215.91C328.541 224.362 343.571 235.775 343.571 248.04C343.571 260.305 328.541 271.718 301.238 280.17C274.336 288.491 238.615 293.073 200.635 293.073ZM200.635 205.315C162.884 205.315 127.407 209.864 100.743 218.119C74.8718 226.121 60.03 237.027 60.03 248.04C60.03 259.053 74.8718 269.959 100.743 277.969C127.407 286.225 162.925 290.765 200.635 290.765C238.345 290.765 273.87 286.225 300.535 277.969C326.405 269.959 341.239 259.053 341.239 248.04C341.239 237.027 326.405 226.121 300.535 218.119C273.87 209.888 238.394 205.315 200.635 205.315Z" fill="#6FD5DF"/>
<path d="M199.235 202.377C181.874 202.165 167.629 216.065 167.416 233.427C167.204 250.789 181.105 265.034 198.466 265.246C198.794 265.246 199.129 265.246 199.456 265.246C216.81 264.911 230.613 250.568 230.277 233.215C229.95 216.229 216.205 202.59 199.235 202.377ZM203.899 216.851C203.891 216.761 203.907 216.671 203.948 216.597C204.038 216.466 204.136 216.295 204.267 216.262C204.398 216.229 204.537 216.368 204.717 216.458C204.382 216.794 204.529 216.982 204.815 217.129C204.881 217.162 204.946 217.211 204.987 217.276C205.061 217.505 205.167 217.726 205.298 217.931C205.495 218.086 205.707 218.217 205.945 218.307C205.756 218.479 205.552 218.643 205.339 218.782C205.135 218.905 204.905 219.003 204.676 219.068C204.488 219.085 204.292 219.085 204.104 219.068C204.104 219.035 204.104 218.995 204.104 218.962L204.496 218.716C204.357 218.545 204.153 218.397 204.136 218.234C204.12 218.07 204.308 217.906 204.423 217.718C204.243 217.424 203.981 217.293 203.793 217.415C203.236 217.792 203.195 217.89 203.449 218.291C203.089 218.43 202.737 218.569 202.369 218.7C202.287 218.315 202.729 217.98 202.369 217.636C202.525 217.383 202.803 217.227 203.097 217.235H203.523C203.752 217.252 203.932 217.145 203.899 216.851ZM194.899 208.841C195.635 208.947 196.372 208.996 197.108 209.054C197.378 209.103 197.665 209.013 197.853 208.816C197.935 208.71 198.131 208.694 198.278 208.669C198.851 208.579 199.432 208.473 200.005 208.415C200.307 208.375 200.618 208.375 200.921 208.415C201.625 208.522 202.328 208.661 203.024 208.792C203.138 208.808 203.245 208.857 203.335 208.931C203.048 208.931 202.745 208.931 202.459 208.996C202.271 209.013 202.091 209.054 201.919 209.127C201.657 209.258 201.412 209.397 201.395 209.79C201.404 210.183 201.125 210.526 200.741 210.608C200.356 210.747 199.98 210.911 199.62 211.107C199.432 211.197 199.432 211.304 199.62 211.41C199.808 211.516 200.152 211.696 200.438 211.868C199.988 212.04 199.988 212.04 199.055 211.606C199.186 211.835 199.317 212.048 199.456 212.269C198.859 212.425 198.237 212.605 197.615 212.744C197.035 212.842 196.495 213.095 196.053 213.48C195.603 213.799 195.063 213.979 194.515 214.004C194.228 214.061 193.991 214.11 193.991 214.495C193.991 214.634 193.86 214.797 193.745 214.912C193.59 215.051 193.418 215.182 193.238 215.28C192.796 215.599 192.183 215.493 191.872 215.059C191.749 214.887 191.684 214.675 191.684 214.462C191.659 214.265 191.659 214.061 191.684 213.865C191.749 213.627 191.839 213.398 191.962 213.185C192.027 213.095 192.101 213.022 192.183 212.948C192.772 212.465 192.862 211.59 192.371 211.001C192.207 210.805 192.003 210.657 191.765 210.575C191.324 210.314 190.825 210.142 190.309 210.085C190.137 210.035 189.965 209.954 189.818 209.847C190.514 209.733 191.185 209.643 191.839 209.52C192.117 209.438 192.395 209.34 192.657 209.217C193.353 208.898 194.122 208.767 194.899 208.841ZM201.78 213.603C201.78 213.766 201.706 213.922 201.575 214.02C201.314 214.175 201.044 214.315 200.757 214.429C200.495 214.568 200.168 214.495 199.988 214.257C199.898 214.151 199.71 214.118 199.571 214.053C199.571 214.012 199.571 213.979 199.571 213.938C199.702 213.873 199.841 213.815 199.98 213.766C200.43 213.644 200.864 213.529 201.305 213.423C201.445 213.374 201.698 213.374 201.755 213.603H201.78V213.603ZM186.128 209.823C186.333 209.757 186.545 209.716 186.766 209.659C186.987 209.602 187.265 209.553 187.364 209.234C187.429 209.103 187.544 209.005 187.683 208.964L187.994 208.906C188.321 208.841 188.656 208.784 188.992 208.735C189.27 208.726 189.54 208.685 189.81 208.62C190.293 208.432 190.816 208.358 191.332 208.391C191.495 208.399 191.651 208.399 191.815 208.391H192.281C192.273 208.432 192.273 208.465 192.281 208.505C191.725 208.939 191.062 209.217 190.366 209.324C189.401 209.487 188.485 209.847 187.666 210.387C187.405 210.551 187.143 210.682 186.946 210.289C186.946 210.215 186.766 210.175 186.652 210.158C186.398 210.134 186.145 210.093 185.899 210.027C185.965 209.954 186.038 209.88 186.128 209.823ZM184.492 210.723C184.492 210.723 184.443 210.723 184.402 210.674C184.647 210.265 184.909 210.142 185.326 210.338C185.727 210.543 186.194 210.575 186.619 210.436C186.644 210.453 186.668 210.477 186.685 210.502C186.619 210.592 186.578 210.723 186.496 210.755C186.415 210.788 186.079 210.854 185.866 210.927C185.768 210.968 185.695 211.05 185.67 211.148C185.67 211.197 185.768 211.32 185.842 211.345L186.12 211.418L188.313 212.04C188.386 212.081 188.435 212.155 188.452 212.236C188.444 212.351 188.427 212.457 188.403 212.564C188.272 213.145 188.403 213.382 189.033 213.382C189.041 213.595 188.894 213.775 188.689 213.815C188.296 213.914 187.871 214.045 187.527 214.167C187.339 214.225 187.151 214.282 187.208 214.544C187.2 214.609 187.175 214.666 187.126 214.707C186.791 214.953 186.333 214.953 185.997 214.707C185.785 214.47 185.801 214.11 186.038 213.897C186.12 213.824 186.218 213.775 186.325 213.758C186.554 213.701 186.799 213.685 187.036 213.619C187.143 213.595 187.241 213.529 187.298 213.439C187.298 213.382 187.225 213.243 187.151 213.169C186.701 212.744 186.128 212.457 185.515 212.351C185.335 212.351 185.138 212.302 184.95 212.285C184.508 212.285 184.058 212.212 183.608 212.163C183.42 212.163 183.183 212.163 183.166 211.876C183.125 211.655 183.265 211.451 183.485 211.41C183.518 211.402 183.551 211.402 183.584 211.402C183.886 211.394 184.181 211.361 184.475 211.312C184.606 211.312 184.795 211.197 184.811 211.107C184.819 210.862 184.688 210.706 184.459 210.706L184.492 210.723ZM188.378 219.412C188.493 219.543 188.697 219.747 188.665 219.854C188.607 220.091 188.378 220.238 188.141 220.189C187.74 220.14 187.339 220.107 186.938 220.099C187.282 219.6 187.773 219.215 188.345 219.003L188.059 219.256C188.165 219.289 188.255 219.346 188.345 219.412H188.378ZM189.483 247.418C189.164 247.631 188.861 247.876 188.599 248.155C188.444 248.408 188.345 248.686 188.305 248.973C188.19 249.496 188.043 250.012 187.871 250.519C187.748 250.805 187.396 250.994 187.175 251.255C186.832 251.722 186.194 251.845 185.695 251.55C185.572 251.902 185.809 252.131 185.956 252.368C186.169 252.753 186.169 252.753 185.801 253.006C185.474 253.26 185.163 253.538 184.868 253.825C184.639 254.029 184.549 254.348 184.631 254.643C184.631 254.921 184.598 255.191 184.525 255.461C184.484 255.6 184.467 255.739 184.467 255.878C184.467 256.148 184.582 256.41 184.615 256.696C184.672 257.146 184.705 257.613 184.745 258.071C184.745 258.243 184.811 258.349 185.015 258.365C185.122 258.39 185.204 258.455 185.253 258.554C185.375 258.815 185.482 259.077 185.588 259.372C185.302 259.601 184.885 259.552 184.655 259.265C184.647 259.257 184.647 259.249 184.639 259.241C184.475 258.93 184.197 258.685 183.87 258.554C183.33 258.325 182.896 257.899 182.651 257.367C182.291 256.844 182.103 256.222 182.127 255.584C182.234 255.134 181.988 254.675 181.555 254.512C181.465 254.512 181.407 254.315 181.391 254.201C181.342 253.759 181.317 253.301 181.276 252.859C181.186 251.902 181.072 250.953 181.015 250.004C181.015 249.292 181.015 248.572 181.015 247.86C181.015 247.533 181.015 247.214 181.015 246.903C180.949 246.052 180.368 245.332 179.55 245.086C179.108 245.005 178.789 244.604 178.814 244.154C178.83 243.753 178.609 243.385 178.249 243.213C177.775 242.951 177.415 242.517 177.243 242.002C177.177 241.846 177.079 241.707 176.956 241.593C176.695 241.347 176.588 240.979 176.67 240.635C176.678 240.398 176.662 240.161 176.621 239.932C176.588 239.776 176.572 239.613 176.58 239.457C176.645 238.999 176.809 238.557 177.071 238.173C177.349 237.755 177.586 237.314 177.766 236.847C177.979 236.332 177.807 235.735 177.349 235.407C177.194 235.342 177.03 235.342 176.875 235.407C176.572 235.612 176.171 235.587 175.893 235.35C175.304 234.982 174.821 234.466 174.494 233.853C174.436 233.763 174.355 233.697 174.256 233.665C174.109 233.607 173.962 233.575 173.806 233.566C173.389 233.534 173.005 233.345 172.735 233.035C172.407 232.683 171.933 232.511 171.45 232.56C171.385 232.576 171.319 232.576 171.254 232.56C170.296 232.315 169.429 231.807 168.742 231.104C168.537 230.825 168.455 230.474 168.529 230.138C168.775 228.224 169.208 226.342 169.822 224.509C170.746 221.695 172.08 219.027 173.782 216.597C174.412 215.689 175.14 214.83 175.827 213.955C175.925 213.824 176.032 213.758 176.179 213.865C176.384 213.987 176.637 214.028 176.866 213.963C177.431 213.897 178.004 213.922 178.552 213.807C179.215 213.668 179.861 213.464 180.483 213.202C180.949 212.94 181.268 212.465 181.342 211.934C181.383 211.786 181.432 211.639 181.489 211.492C181.653 210.952 181.653 210.952 182.201 211.075C182.594 211.173 183.019 211.263 183.346 211.336C183.027 211.451 182.692 211.557 182.373 211.688C182.054 211.819 182.152 211.893 182.291 212.048C182.43 212.204 182.725 212.596 182.954 212.866C183.027 212.932 183.191 212.989 183.248 212.956C183.706 212.776 184.214 212.703 184.705 212.76C184.574 212.981 184.426 213.177 184.255 213.365C184.075 213.505 183.87 213.595 183.649 213.627C183.085 213.742 182.504 213.815 181.931 213.905C181.865 214.306 181.514 214.593 181.113 214.585C180.368 214.707 179.673 215.026 179.1 215.509C178.675 215.738 178.495 216.254 178.683 216.704C178.74 216.884 178.797 217.121 179.092 216.965C179.133 216.965 179.231 216.965 179.296 217.023C179.575 217.17 179.836 217.325 180.115 217.465C180.393 217.604 180.573 217.751 180.875 217.645C180.941 217.645 181.031 217.645 181.031 217.645C180.957 218.103 180.884 218.512 180.802 218.97C181.129 218.986 181.44 218.831 181.62 218.561C182.152 217.743 182.716 217.039 183.256 216.286C183.346 216.18 183.42 216.065 183.494 215.951C183.805 215.354 184.475 215.051 185.13 215.206C185.506 215.264 185.76 215.345 185.727 215.795C185.727 215.861 185.907 215.975 186.005 215.992C186.505 216.033 187.004 215.91 187.437 215.656C187.462 215.722 187.486 215.795 187.495 215.869C187.503 215.967 187.503 216.065 187.495 216.164C187.29 216.933 187.683 217.726 188.419 218.029L188.566 218.103C188.026 218.618 187.315 218.929 186.562 218.97C186.038 218.97 185.531 219.101 185.081 219.363C184.705 219.535 184.32 219.682 183.919 219.805C183.78 219.886 183.649 219.993 183.543 220.115L183.592 220.214L185.073 220.083C185.015 220.443 185.073 220.655 185.457 220.688C185.596 220.688 185.719 220.901 185.899 221.048C185.269 221.171 184.942 221.866 184.132 221.703L184.77 221.114C184.475 220.778 184.394 220.745 184.001 220.999C183.608 221.253 183.256 221.547 182.88 221.817C182.782 221.891 182.692 222.005 182.585 222.022C181.931 222.145 181.612 222.685 181.186 223.11L181.096 223.2C180.933 223.421 180.671 223.568 180.393 223.585C180.262 223.585 180.139 223.634 180.041 223.715C179.926 223.814 179.853 223.953 179.828 224.108C179.877 224.673 179.575 225.205 179.059 225.45C178.609 225.687 178.175 225.957 177.766 226.268C177.415 226.628 177.316 227.168 177.513 227.635C177.668 227.954 177.668 228.33 177.513 228.649C177.513 228.731 177.292 228.796 177.169 228.796C177.046 228.796 176.965 228.682 176.94 228.592C176.842 228.183 176.768 227.774 176.67 227.348C176.613 227.209 176.539 227.078 176.457 226.955H176.375C176.375 227.111 176.375 227.266 176.375 227.422C176.351 227.446 176.326 227.471 176.294 227.487C176.179 227.365 176.081 227.242 175.966 227.135C175.811 226.988 175.639 226.865 175.451 226.759C175.255 226.661 175.009 226.743 174.911 226.939C174.706 227.201 174.477 227.446 174.273 227.684C174.101 227.479 173.921 227.283 173.733 227.095C173.651 227.029 173.545 226.996 173.438 227.021C173.037 227.086 172.677 227.291 172.424 227.602C172.162 227.921 171.859 228.224 171.54 228.485C171.245 228.698 171.155 229.099 171.327 229.418C171.368 229.557 171.368 229.705 171.327 229.844C171.172 230.637 171.663 231.415 172.44 231.627C172.849 231.766 173.307 231.595 173.512 231.21C173.594 231.03 173.651 230.842 173.733 230.662C173.798 230.457 174.011 230.335 174.224 230.4C174.24 230.408 174.256 230.408 174.273 230.416C174.404 230.547 174.461 230.735 174.436 230.915C174.363 231.226 174.273 231.529 174.158 231.824C174.052 232.167 174.158 232.315 174.477 232.396C174.796 232.478 175.001 232.478 175.295 232.511C175.549 232.495 175.762 232.683 175.778 232.936C175.778 232.985 175.778 233.026 175.77 233.075C175.729 233.46 175.729 233.853 175.77 234.237C175.835 234.458 175.95 234.663 176.122 234.826C176.245 234.908 176.408 234.908 176.531 234.826C176.776 234.663 177.079 234.638 177.349 234.753C177.447 234.794 177.562 234.818 177.66 234.851C178.135 234.965 178.257 234.851 178.585 234.532C178.789 234.327 179.035 234.164 179.296 234.041C179.378 234.016 179.468 234.041 179.525 234.106C179.566 234.172 179.566 234.262 179.525 234.327C179.264 234.556 179.403 234.671 179.632 234.769L180.188 235.006C179.828 234.425 180.303 234.229 180.515 233.877C180.597 233.943 180.687 233.984 180.761 234.049C181.064 234.393 181.514 234.573 181.972 234.532H182.037C182.651 234.54 183.232 234.777 183.674 235.203C184.287 235.735 185.032 236.111 185.825 236.283C186.169 236.34 186.472 236.553 186.644 236.864C186.791 237.109 186.979 237.33 187.126 237.567C187.364 237.944 187.29 238.205 186.897 238.385L186.521 238.574C186.619 238.762 186.742 238.819 186.922 238.713C187.053 238.639 187.2 238.582 187.347 238.541C187.454 238.541 187.568 238.631 187.658 238.705C187.748 238.778 187.609 238.835 187.585 238.909C187.56 238.983 187.535 239.089 187.585 239.097C187.65 239.138 187.732 239.163 187.814 239.155C187.879 239.146 187.945 239.114 187.985 239.065C188.239 238.778 188.681 238.754 188.967 239.007C188.984 239.024 189.008 239.048 189.025 239.065C189.065 239.105 189.147 239.13 189.147 239.163C189.196 239.711 189.565 239.49 189.802 239.4C190.031 239.31 190.293 239.326 190.514 239.441C191.078 239.686 191.675 239.883 192.273 240.095C192.453 240.145 192.575 240.3 192.584 240.488C192.715 241.421 192.412 242.37 191.765 243.057C191.716 243.123 191.659 243.164 191.585 243.196C191.324 243.311 191.307 243.524 191.299 243.761C191.299 244.366 191.275 244.98 191.209 245.585C191.135 245.962 191.005 246.322 190.825 246.657C190.694 246.935 190.563 247.222 190.121 247.148C189.982 247.148 189.843 247.197 189.736 247.279C189.63 247.304 189.548 247.369 189.483 247.418ZM222.423 244.964C222.177 245.569 222.03 246.224 221.825 246.845C221.76 247.034 221.67 247.205 221.555 247.369C221.253 247.95 221.253 247.95 220.623 247.835C220.124 247.664 219.854 247.124 220.017 246.616C220.181 246.412 220.32 246.183 220.426 245.945C220.484 245.675 220.484 245.397 220.426 245.127C220.402 244.743 220.631 244.391 220.983 244.244C221.073 244.235 221.163 244.195 221.228 244.129C221.539 243.818 221.858 243.491 222.153 243.164C222.218 243.057 222.275 242.951 222.325 242.836C222.603 243.515 222.635 244.268 222.406 244.964H222.423V244.964ZM228.387 228.78C228.207 228.543 227.913 228.42 227.618 228.453C226.604 228.51 225.597 228.355 224.648 227.986C223.969 227.815 223.323 227.536 222.725 227.168C222.243 226.915 221.711 226.735 221.171 226.645C221.204 226.726 221.22 226.816 221.228 226.906C221.105 227.659 221.67 228.011 222.104 228.445C222.292 228.625 222.472 228.813 222.676 229.034L223.977 228.682C224.288 228.584 224.632 228.715 224.795 229.001C225.025 229.271 225.262 229.525 225.524 229.762C225.753 230.015 225.695 230.081 225.434 230.277C224.722 230.678 224.075 231.185 223.527 231.791C223.462 231.881 223.38 231.955 223.29 232.012C222.873 232.282 222.472 232.535 222.038 232.83C221.49 233.141 220.786 232.953 220.475 232.396C220.443 232.347 220.418 232.29 220.402 232.241C220.222 231.635 219.911 231.079 219.494 230.605C219.289 230.302 219.125 229.975 219.011 229.631C218.839 229.271 218.553 228.985 218.193 228.813C217.857 228.69 217.604 228.42 217.497 228.076C217.334 227.61 217.096 227.152 216.9 226.685C216.434 226.882 216.434 226.882 216.565 227.34C216.794 228.134 217.137 228.886 217.587 229.574C218.373 230.637 219.027 231.791 219.551 233.01C219.665 233.337 219.747 233.689 219.878 234.008C220.075 234.491 220.295 234.548 220.745 234.286C220.795 234.254 220.844 234.229 220.901 234.221H222.668C222.603 234.695 222.505 235.162 222.382 235.628C222.275 236.021 222.087 236.381 221.825 236.692C221.416 237.035 220.983 237.355 220.525 237.633C220.41 237.706 220.312 237.805 220.246 237.927C219.739 238.86 219.256 239.793 218.757 240.717C218.626 240.955 218.585 241.143 218.757 241.339C219.453 242.084 219.248 242.975 219.256 243.884C219.256 243.982 219.101 244.105 218.986 244.17C218.422 244.424 217.915 244.792 217.505 245.25C217.342 245.446 217.235 245.684 217.178 245.937C217.08 246.69 216.843 247.41 216.466 248.073C215.902 249.03 215.403 250.036 214.887 251.018C214.805 251.239 214.601 251.395 214.364 251.411L212.85 251.501C212.629 251.501 212.416 251.566 212.195 251.583C212.097 251.591 211.991 251.566 211.909 251.509C211.729 251.37 211.574 251.198 211.435 251.075C211.443 250.568 211.312 250.069 211.058 249.635C210.96 249.48 210.854 249.325 210.731 249.185C210.395 248.703 210.215 248.138 210.215 247.549C210.191 247.23 210.093 246.911 209.929 246.633C209.553 246.06 209.315 245.405 209.242 244.726C209.242 244.342 209.315 243.965 209.446 243.605C209.495 243.45 209.561 243.303 209.643 243.164C209.798 242.853 209.823 242.501 209.725 242.174C209.479 241.045 209.005 239.973 208.317 239.04C208.17 238.786 208.17 238.475 208.317 238.222C208.424 238.009 208.538 237.796 208.669 237.592C208.792 237.412 208.784 237.265 208.563 237.183C208.342 237.117 208.178 236.937 208.137 236.716C208.137 236.651 207.949 236.553 207.859 236.561C207.417 236.61 206.975 236.446 206.665 236.127C206.509 235.972 206.165 235.972 205.895 235.955C205.699 235.964 205.511 236.005 205.323 236.07L202.631 236.716C202.189 236.815 201.731 236.667 201.428 236.332C201.346 236.242 201.265 236.168 201.166 236.095C200.774 235.857 200.528 235.44 200.512 234.982C200.479 234.785 200.348 234.614 200.168 234.524C199.35 234.262 199.235 233.525 199.015 232.887C198.99 232.683 199.039 232.478 199.17 232.323C199.383 232.135 199.448 231.832 199.325 231.57C199.023 230.891 199.088 230.105 199.497 229.484C199.702 229.034 200.021 228.641 200.422 228.346C200.577 228.24 200.618 227.97 200.765 227.847C201.215 227.43 201.535 226.89 201.682 226.293C201.805 226.047 201.985 225.835 202.205 225.671C202.533 225.36 202.885 225.074 203.212 224.763C203.392 224.599 203.515 224.583 203.645 224.812C203.711 224.902 203.809 224.959 203.915 224.967L205.405 224.771C205.552 224.73 205.699 224.697 205.846 224.681C206.566 224.697 207.278 224.542 207.925 224.231C208.072 224.174 208.244 224.174 208.391 224.231C208.44 224.231 208.44 224.452 208.432 224.575C208.44 224.918 208.604 225.237 208.882 225.442L209.61 226.145C209.659 226.186 209.716 226.252 209.774 226.26C210.265 226.342 210.764 226.432 211.271 226.473C211.516 226.473 211.68 226.383 211.762 226.08C211.844 225.777 212.097 225.679 212.269 225.483C212.269 225.515 212.269 225.556 212.269 225.589C212.375 225.695 212.49 225.794 212.613 225.875C212.875 226.023 213.145 226.137 213.431 226.227C213.644 226.26 213.865 226.26 214.077 226.227C214.2 226.219 214.323 226.219 214.445 226.227C214.969 226.301 215.485 226.366 216.008 226.473C216.18 226.514 216.36 226.456 216.475 226.325C216.941 226.08 217.17 225.54 217.015 225.033C216.965 224.812 216.925 224.591 216.908 224.362C216.581 224.239 216.205 224.264 215.902 224.444C215.534 224.689 215.035 224.648 214.715 224.337C214.192 224.018 213.815 223.519 213.644 222.93C214.151 223.184 214.355 222.873 214.593 222.423C213.963 222.57 213.398 222.685 212.842 222.84C212.654 222.881 212.531 223.069 212.58 223.265C212.588 223.306 212.605 223.347 212.629 223.38C212.67 223.445 212.695 223.519 212.686 223.593C212.662 223.724 212.629 223.846 212.572 223.961C212.416 223.895 212.187 223.871 212.122 223.74C212.056 223.609 211.966 223.323 211.705 223.241C211.664 223.225 211.639 223.184 211.631 223.143C211.68 222.611 211.214 222.325 210.993 221.965C210.895 221.866 210.764 221.809 210.625 221.809C210.273 221.809 209.945 221.645 209.749 221.359C209.667 221.236 209.569 221.13 209.455 221.048C209.283 220.917 209.07 220.827 208.906 221.048C208.735 221.195 208.718 221.457 208.857 221.621C208.874 221.637 208.89 221.654 208.906 221.67C209.209 222.03 209.594 222.308 210.027 222.488C210.297 222.611 210.51 222.84 210.608 223.118C210.224 223.429 209.659 223.364 209.356 222.979C209.307 222.914 209.258 222.84 209.225 222.766C209.119 222.611 208.996 222.464 208.865 222.333C208.661 222.063 208.432 221.801 208.186 221.564C207.851 221.261 207.196 221.236 207.123 221.817C207.115 221.883 207.098 221.94 207.074 221.997L206.853 221.932C206.46 221.785 206.018 221.948 205.83 222.325C205.748 222.447 205.625 222.554 205.535 222.668C205.445 222.758 205.364 222.865 205.315 222.979C205.2 223.462 204.815 223.838 204.333 223.936C203.711 224.043 203.081 224.092 202.451 224.092C202.32 224.059 202.214 223.953 202.173 223.822C202.124 223.388 202.124 222.946 202.173 222.513C202.271 222.063 202.688 221.752 203.146 221.785H204.472C204.635 221.785 204.742 221.735 204.725 221.531C204.717 221.457 204.717 221.375 204.725 221.302C204.815 220.778 204.791 220.721 204.316 220.443C204.177 220.361 204.022 220.304 203.883 220.222C203.744 220.14 203.727 220.099 203.735 220.042C203.752 219.96 203.809 219.895 203.891 219.862C204.055 219.813 204.226 219.78 204.398 219.772C205.102 219.788 205.748 219.379 206.035 218.741C206.174 218.373 206.509 218.111 206.902 218.078C207.532 217.98 207.646 217.816 207.72 217.17C207.761 217.006 207.818 216.843 207.892 216.687H208.023C208.129 216.908 208.219 217.129 208.293 217.366C208.325 217.612 208.522 217.808 208.767 217.849C209.005 217.874 209.25 217.874 209.487 217.849C209.905 217.792 210.305 217.71 210.723 217.653C210.87 217.653 210.96 217.653 211.009 217.432C211.058 217.211 211.255 217.137 211.394 216.998C211.533 216.859 211.721 216.794 211.729 216.532C211.819 216.237 212.081 216.033 212.392 216.025C212.523 216.057 212.645 216.131 212.719 216.245C212.801 216.401 212.866 216.565 212.907 216.728C213.341 216.335 213.529 215.73 213.382 215.157C213.218 215.206 213.046 215.239 212.875 215.264C212.637 215.296 212.392 215.296 212.155 215.264C211.467 215.116 211.336 214.797 211.729 214.225C211.86 214.02 212.007 213.611 211.942 213.57C211.68 213.374 211.443 213.619 211.263 213.783C210.813 214.143 210.494 214.634 210.33 215.182C210.207 215.665 210.003 216.131 209.741 216.556C209.635 216.736 209.291 216.81 209.045 216.843C208.955 216.843 208.808 216.646 208.71 216.515C208.612 216.376 208.53 216.229 208.456 216.074C208.456 216.106 208.456 216.147 208.456 216.18L207 216.254C206.975 216.188 206.959 216.123 206.943 216.049C206.73 215.002 206.632 215.141 207.646 214.74C207.957 214.568 208.235 214.347 208.465 214.077L209.152 213.488C209.201 213.455 209.242 213.415 209.275 213.365C209.962 212.449 210.985 212.302 212.015 212.138C212.94 212.105 213.856 212.269 214.715 212.621L216.188 213.055C215.517 213.595 214.912 213.055 214.339 213.153C214.339 213.153 214.298 213.218 214.339 213.226C214.666 213.586 215.018 213.922 215.386 214.233C215.64 214.355 215.943 214.257 216.065 214.004C216.082 213.971 216.098 213.93 216.106 213.889C216.164 213.685 216.254 213.586 216.475 213.586C216.753 213.578 217.006 213.406 217.113 213.145C217.227 212.924 217.375 212.825 217.612 212.915C217.612 213.169 217.694 213.284 217.947 213.202C218.045 213.169 218.135 213.128 218.217 213.071C218.512 212.891 218.855 212.809 219.199 212.85C219.682 212.825 220.156 212.727 220.606 212.555C221.04 212.441 221.269 212.482 221.49 212.727C223.519 214.83 225.245 217.211 226.612 219.796C228.248 222.856 229.361 226.178 229.885 229.615C229.893 229.647 229.893 229.688 229.885 229.721C229.124 229.77 228.755 229.205 228.371 228.78H228.387V228.78Z" fill="#6FD5DF"/>
<path d="M229.893 229.606C229.115 229.77 228.772 229.205 228.363 228.788C228.183 228.543 227.888 228.42 227.594 228.461C225.867 228.461 224.174 228.011 222.685 227.144C222.202 226.882 221.678 226.702 221.13 226.628C221.163 226.71 221.179 226.792 221.187 226.874C221.065 227.635 221.621 227.986 222.063 228.42C222.251 228.6 222.423 228.788 222.635 229.009L223.936 228.657C224.247 228.551 224.591 228.682 224.755 228.968C224.975 229.238 225.221 229.5 225.475 229.737C225.712 229.991 225.655 230.065 225.385 230.253C224.673 230.654 224.035 231.161 223.486 231.766C223.421 231.848 223.339 231.922 223.249 231.979C222.832 232.257 222.431 232.519 221.997 232.797C221.457 233.116 220.762 232.928 220.443 232.388C220.41 232.331 220.385 232.274 220.361 232.216C220.181 231.611 219.87 231.055 219.453 230.58C219.248 230.285 219.085 229.958 218.97 229.615C218.815 229.238 218.52 228.927 218.152 228.755C217.825 228.633 217.563 228.363 217.456 228.027C217.293 227.545 217.064 227.095 216.859 226.628C216.393 226.825 216.393 226.825 216.515 227.283C216.753 228.068 217.096 228.821 217.546 229.516C218.332 230.58 218.986 231.734 219.51 232.953C219.625 233.28 219.706 233.632 219.837 233.951C220.042 234.434 220.255 234.491 220.705 234.229C220.745 234.196 220.795 234.172 220.852 234.164H222.627C222.529 234.646 222.48 235.129 222.341 235.579C222.235 235.972 222.046 236.332 221.785 236.635C221.375 236.978 220.942 237.297 220.484 237.575C220.369 237.649 220.271 237.755 220.197 237.87C219.698 238.795 219.224 239.735 218.716 240.66C218.585 240.897 218.545 241.085 218.716 241.282C219.404 242.026 219.207 242.918 219.215 243.826C219.215 243.916 219.06 244.047 218.945 244.113C218.381 244.366 217.882 244.735 217.465 245.193C217.301 245.389 217.195 245.626 217.137 245.88C217.047 246.633 216.802 247.361 216.417 248.015C215.861 248.981 215.362 249.979 214.855 250.961C214.765 251.182 214.56 251.337 214.323 251.354C213.815 251.354 213.316 251.403 212.809 251.444C212.588 251.444 212.375 251.509 212.155 251.525C212.056 251.534 211.958 251.509 211.876 251.452C211.688 251.313 211.533 251.141 211.394 251.018C211.394 250.511 211.271 250.02 211.025 249.578C210.919 249.423 210.813 249.267 210.69 249.12C210.363 248.654 210.183 248.105 210.175 247.533C210.15 247.205 210.052 246.895 209.888 246.608C209.512 246.035 209.275 245.381 209.193 244.702C209.201 244.317 209.275 243.941 209.414 243.589C209.455 243.425 209.52 243.27 209.61 243.131C209.757 242.82 209.782 242.476 209.675 242.149C209.438 241.02 208.955 239.948 208.276 239.015C208.129 238.762 208.129 238.451 208.276 238.197C208.383 237.976 208.505 237.772 208.636 237.567C208.759 237.379 208.751 237.24 208.522 237.158C208.301 237.101 208.145 236.913 208.113 236.692C208.047 236.594 207.941 236.536 207.826 236.536C207.385 236.585 206.951 236.422 206.64 236.103C206.403 235.972 206.141 235.906 205.871 235.931C205.675 235.939 205.478 235.98 205.29 236.045L202.598 236.692C202.156 236.79 201.698 236.643 201.395 236.315C201.314 236.225 201.232 236.144 201.134 236.07C200.741 235.833 200.495 235.407 200.479 234.949C200.438 234.753 200.315 234.589 200.135 234.499C199.317 234.237 199.211 233.501 198.99 232.863C198.957 232.666 199.006 232.462 199.137 232.306C199.35 232.118 199.407 231.807 199.285 231.554C198.99 230.875 199.064 230.089 199.465 229.467C199.669 229.017 199.988 228.625 200.389 228.33C200.545 228.224 200.585 227.954 200.733 227.831C201.183 227.414 201.502 226.874 201.649 226.276C201.772 226.031 201.952 225.818 202.173 225.655C202.5 225.344 202.852 225.057 203.179 224.746C203.359 224.583 203.482 224.558 203.621 224.795C203.678 224.885 203.776 224.943 203.883 224.951C204.374 224.894 204.873 224.82 205.372 224.746C205.519 224.705 205.666 224.681 205.822 224.665C206.534 224.673 207.245 224.525 207.892 224.215C208.039 224.157 208.203 224.157 208.35 224.215C208.407 224.215 208.407 224.444 208.399 224.558C208.399 224.902 208.571 225.221 208.849 225.425C209.086 225.663 209.34 225.892 209.585 226.121C209.626 226.17 209.675 226.235 209.733 226.244C210.232 226.325 210.731 226.415 211.23 226.456C211.484 226.456 211.647 226.366 211.737 226.064C211.827 225.761 212.056 225.663 212.228 225.466L212.277 225.573C212.384 225.679 212.498 225.777 212.629 225.859C212.891 226.006 213.161 226.121 213.447 226.211C213.66 226.235 213.881 226.235 214.094 226.211C214.216 226.203 214.339 226.203 214.462 226.211C214.977 226.285 215.509 226.35 216.025 226.456C216.196 226.497 216.376 226.44 216.491 226.309C216.957 226.064 217.186 225.524 217.031 225.016C216.982 224.795 216.949 224.575 216.933 224.354C216.597 224.223 216.229 224.255 215.918 224.427C215.542 224.673 215.059 224.624 214.732 224.321C214.208 224.002 213.832 223.503 213.66 222.914C214.159 223.167 214.372 222.856 214.609 222.406C213.979 222.554 213.415 222.668 212.858 222.832C212.67 222.873 212.555 223.053 212.588 223.241C212.596 223.282 212.613 223.331 212.645 223.364C212.686 223.429 212.703 223.511 212.703 223.585C212.678 223.707 212.637 223.83 212.596 223.945C212.433 223.879 212.204 223.846 212.138 223.732C212.073 223.617 211.975 223.306 211.729 223.225C211.688 223.208 211.655 223.167 211.647 223.126C211.696 222.595 211.23 222.308 211.009 221.948C210.96 221.85 210.772 221.801 210.641 221.793C210.297 221.793 209.97 221.621 209.765 221.343C209.684 221.22 209.585 221.122 209.471 221.032C209.299 220.893 209.086 220.803 208.915 221.032C208.743 221.171 208.726 221.425 208.865 221.596C208.882 221.613 208.898 221.629 208.915 221.645C209.217 222.005 209.602 222.284 210.035 222.464C210.305 222.586 210.518 222.815 210.616 223.094C210.232 223.405 209.675 223.339 209.365 222.955C209.315 222.889 209.266 222.815 209.234 222.742C209.127 222.586 209.013 222.447 208.882 222.308C208.669 222.038 208.44 221.776 208.195 221.531C207.859 221.236 207.205 221.212 207.131 221.793C207.123 221.858 207.106 221.915 207.082 221.973L206.861 221.907C206.468 221.752 206.035 221.924 205.838 222.292C205.756 222.423 205.634 222.521 205.544 222.644C205.445 222.734 205.372 222.84 205.315 222.963C205.208 223.437 204.832 223.805 204.349 223.904C203.719 224.018 203.089 224.067 202.451 224.067C202.32 224.026 202.214 223.92 202.181 223.789C202.132 223.355 202.132 222.922 202.181 222.488C202.271 222.038 202.68 221.719 203.138 221.76C203.58 221.76 204.022 221.76 204.464 221.76C204.635 221.76 204.742 221.703 204.725 221.506C204.717 221.433 204.717 221.351 204.725 221.277C204.815 220.762 204.791 220.696 204.316 220.418C204.177 220.336 204.022 220.279 203.883 220.197C203.744 220.115 203.727 220.075 203.735 220.017C203.752 219.935 203.809 219.87 203.891 219.837C204.063 219.788 204.235 219.764 204.406 219.747C205.11 219.772 205.756 219.363 206.043 218.716C206.182 218.348 206.517 218.086 206.91 218.054C207.54 217.955 207.646 217.792 207.728 217.145C207.769 216.982 207.826 216.818 207.9 216.663H208.039C208.145 216.884 208.227 217.113 208.301 217.342C208.366 217.612 208.505 217.792 208.775 217.816C209.013 217.849 209.258 217.849 209.495 217.816C209.913 217.767 210.314 217.685 210.731 217.636C210.886 217.636 210.976 217.636 211.025 217.407C211.075 217.178 211.263 217.113 211.402 216.974C211.541 216.835 211.729 216.769 211.737 216.499C211.745 216.229 212.171 215.967 212.408 216C212.539 216.033 212.654 216.115 212.727 216.229C212.809 216.376 212.875 216.54 212.915 216.704C213.341 216.303 213.521 215.705 213.39 215.133C213.218 215.182 213.046 215.223 212.875 215.239C212.637 215.28 212.4 215.28 212.163 215.239C211.475 215.092 211.345 214.781 211.737 214.2C211.868 214.004 212.007 213.586 211.95 213.537C211.688 213.349 211.451 213.595 211.271 213.758C210.829 214.118 210.502 214.609 210.338 215.157C210.215 215.64 210.011 216.106 209.749 216.532C209.635 216.712 209.299 216.785 209.054 216.818C208.955 216.818 208.816 216.622 208.718 216.491C208.628 216.352 208.538 216.205 208.465 216.049V216.155L207.008 216.229C207.008 216.147 206.959 216.09 206.943 216.025C206.738 214.969 206.64 215.116 207.646 214.715C207.949 214.544 208.227 214.323 208.465 214.061L209.152 213.455C209.193 213.423 209.234 213.39 209.275 213.349C209.962 212.425 210.985 212.277 212.015 212.114C212.94 212.081 213.865 212.245 214.724 212.605C215.182 212.727 215.64 212.875 216.188 213.03C215.525 213.562 214.912 213.03 214.331 213.128V213.202C214.658 213.554 215.01 213.889 215.386 214.2C215.64 214.388 216.025 214.2 216.115 213.865C216.205 213.529 216.254 213.562 216.466 213.562C216.753 213.554 217.006 213.382 217.121 213.12C217.227 212.899 217.375 212.801 217.612 212.891C217.612 213.153 217.694 213.259 217.947 213.177C218.037 213.145 218.127 213.104 218.209 213.046C218.512 212.866 218.855 212.793 219.207 212.825C219.682 212.801 220.156 212.703 220.606 212.539C220.909 212.392 221.269 212.457 221.498 212.695C223.527 214.805 225.245 217.186 226.62 219.772C228.24 222.84 229.336 226.162 229.852 229.59L229.893 229.606Z" fill="white"/>
<path d="M181.015 217.563L180.785 218.88C181.113 218.905 181.432 218.741 181.604 218.463C182.135 217.702 182.7 216.957 183.24 216.205C183.33 216.09 183.412 215.976 183.485 215.853C183.796 215.256 184.467 214.953 185.122 215.108C185.498 215.165 185.76 215.247 185.727 215.697C185.727 215.763 185.891 215.877 185.997 215.894C186.496 215.926 186.995 215.812 187.421 215.558C187.454 215.624 187.47 215.697 187.486 215.771C187.495 215.869 187.495 215.967 187.486 216.065C187.282 216.826 187.683 217.628 188.411 217.923L188.558 217.996C188.018 218.52 187.306 218.823 186.554 218.872C186.038 218.872 185.531 219.003 185.081 219.265C184.705 219.436 184.312 219.584 183.911 219.706C183.772 219.796 183.649 219.895 183.535 220.017L183.584 220.115L185.065 219.985C185.007 220.345 185.065 220.557 185.449 220.598C185.588 220.598 185.719 220.795 185.899 220.942C185.253 221.073 184.934 221.76 184.132 221.605L184.762 221.016C184.459 220.688 184.385 220.655 183.993 220.901C183.6 221.146 183.248 221.449 182.872 221.719C182.774 221.793 182.684 221.907 182.577 221.932C181.923 222.046 181.604 222.586 181.186 223.012C180.99 223.274 180.695 223.445 180.368 223.486C180.237 223.486 180.115 223.535 180.016 223.617C179.902 223.715 179.828 223.855 179.804 224.01C179.861 224.575 179.55 225.106 179.035 225.344C178.585 225.581 178.151 225.859 177.742 226.162C177.39 226.522 177.292 227.062 177.496 227.52C177.644 227.847 177.644 228.215 177.496 228.543C177.496 228.625 177.275 228.69 177.153 228.698C177.03 228.706 176.956 228.576 176.932 228.486C176.825 228.076 176.76 227.667 176.654 227.242C176.596 227.103 176.523 226.964 176.441 226.841L176.359 226.882V227.356L176.277 227.414C176.171 227.291 176.065 227.176 175.95 227.07C175.795 226.923 175.623 226.792 175.435 226.685C175.238 226.587 175.001 226.661 174.895 226.857C174.698 227.119 174.485 227.365 174.256 227.602C174.085 227.397 173.905 227.209 173.716 227.021C173.635 226.955 173.52 226.923 173.414 226.947C173.021 227.013 172.669 227.217 172.415 227.52C172.154 227.839 171.851 228.142 171.532 228.404C171.229 228.616 171.131 229.026 171.311 229.353C171.352 229.484 171.352 229.631 171.311 229.762C171.155 230.556 171.646 231.341 172.424 231.554C172.833 231.693 173.291 231.521 173.495 231.136C173.577 230.956 173.643 230.768 173.716 230.588C173.782 230.384 173.995 230.261 174.207 230.326C174.224 230.335 174.24 230.335 174.256 230.343C174.371 230.4 174.445 230.678 174.42 230.842C174.346 231.153 174.256 231.464 174.134 231.758C174.027 232.094 174.134 232.241 174.461 232.323C174.788 232.405 174.985 232.405 175.279 232.437C175.533 232.429 175.754 232.626 175.762 232.879C175.762 232.92 175.762 232.961 175.754 233.01C175.713 233.395 175.713 233.771 175.754 234.155C175.819 234.385 175.934 234.597 176.105 234.761C176.236 234.826 176.384 234.826 176.515 234.761C176.752 234.589 177.063 234.565 177.333 234.687L177.652 234.769C178.118 234.884 178.249 234.769 178.56 234.458C178.773 234.262 179.018 234.09 179.28 233.967C179.362 233.943 179.444 233.967 179.509 234.025C179.55 234.098 179.55 234.18 179.509 234.254C179.255 234.483 179.395 234.597 179.624 234.696L180.18 234.925C179.828 234.352 180.295 234.155 180.507 233.812C180.597 233.853 180.671 233.91 180.745 233.975C181.055 234.319 181.514 234.491 181.972 234.458C182.602 234.45 183.207 234.687 183.657 235.129C184.271 235.669 185.015 236.037 185.817 236.209C186.161 236.275 186.464 236.487 186.635 236.79C186.783 237.035 186.971 237.256 187.126 237.494C187.306 237.706 187.29 238.026 187.077 238.206C187.02 238.255 186.963 238.287 186.889 238.312L186.513 238.484C186.619 238.68 186.725 238.737 186.914 238.631C187.045 238.549 187.192 238.492 187.339 238.467C187.454 238.484 187.56 238.533 187.65 238.615C187.65 238.615 187.601 238.754 187.576 238.827C187.552 238.901 187.519 239.007 187.576 239.024C187.642 239.065 187.724 239.081 187.805 239.081C187.871 239.065 187.928 239.032 187.977 238.983C188.223 238.696 188.656 238.664 188.943 238.909C188.967 238.934 188.992 238.95 189.016 238.983C189.057 238.983 189.139 239.04 189.139 239.081C189.188 239.621 189.556 239.4 189.794 239.31C190.023 239.22 190.285 239.228 190.497 239.351C191.078 239.596 191.667 239.801 192.265 239.997C192.445 240.046 192.575 240.21 192.584 240.398C192.706 241.331 192.404 242.272 191.765 242.959C191.725 243.025 191.659 243.074 191.585 243.106C191.324 243.221 191.299 243.434 191.299 243.679C191.299 244.285 191.299 244.898 191.209 245.495C191.127 245.872 190.996 246.232 190.825 246.567C190.694 246.845 190.563 247.132 190.121 247.058C189.925 247.058 189.671 247.222 189.475 247.361C189.147 247.565 188.853 247.811 188.591 248.089C188.435 248.343 188.337 248.621 188.296 248.907C188.19 249.431 188.043 249.946 187.863 250.454C187.74 250.748 187.388 250.936 187.167 251.19C186.832 251.665 186.185 251.795 185.686 251.493C185.564 251.853 185.801 252.074 185.94 252.311C186.161 252.695 186.161 252.687 185.793 252.949C185.465 253.203 185.155 253.481 184.86 253.767C184.639 253.98 184.549 254.291 184.615 254.585C184.615 254.864 184.582 255.134 184.508 255.404C184.475 255.535 184.451 255.674 184.451 255.813C184.451 256.083 184.574 256.353 184.606 256.631C184.664 257.089 184.696 257.547 184.737 257.997C184.737 258.169 184.803 258.284 185.015 258.3C185.097 258.3 185.204 258.406 185.245 258.488C185.367 258.742 185.465 259.012 185.58 259.306C185.285 259.535 184.86 259.478 184.631 259.184C184.631 259.184 184.631 259.175 184.623 259.175C184.459 258.865 184.181 258.619 183.854 258.488C183.322 258.259 182.888 257.834 182.651 257.302C182.283 256.786 182.095 256.156 182.127 255.518C182.225 255.068 181.98 254.61 181.546 254.446C181.465 254.446 181.399 254.25 181.383 254.144C181.334 253.694 181.309 253.244 181.268 252.794C181.178 251.836 181.064 250.887 181.006 249.938C181.006 249.226 181.006 248.506 181.006 247.795C181.006 247.467 181.006 247.148 181.006 246.829C180.941 245.978 180.36 245.266 179.542 245.021C179.1 244.939 178.781 244.538 178.805 244.088C178.814 243.695 178.593 243.327 178.241 243.147C177.766 242.885 177.406 242.452 177.235 241.936C177.169 241.789 177.071 241.65 176.956 241.535C176.695 241.29 176.58 240.922 176.662 240.57C176.67 240.333 176.654 240.096 176.613 239.866C176.58 239.711 176.564 239.547 176.572 239.384C176.637 238.925 176.809 238.492 177.063 238.107C177.341 237.69 177.578 237.248 177.758 236.782C177.963 236.266 177.791 235.669 177.341 235.342C177.194 235.276 177.022 235.276 176.875 235.342C176.564 235.53 176.171 235.506 175.885 235.285C175.295 234.908 174.813 234.393 174.485 233.779C174.428 233.689 174.346 233.624 174.248 233.583C174.101 233.534 173.954 233.501 173.798 233.485C173.381 233.46 172.996 233.272 172.726 232.961C172.399 232.609 171.925 232.437 171.442 232.486C171.376 232.495 171.311 232.495 171.245 232.486C170.296 232.233 169.429 231.734 168.742 231.022C168.529 230.752 168.447 230.392 168.521 230.056C168.775 228.15 169.2 226.268 169.805 224.435C170.73 221.613 172.072 218.946 173.774 216.516C174.404 215.599 175.132 214.756 175.811 213.873C175.917 213.742 176.024 213.685 176.171 213.791C176.384 213.914 176.629 213.946 176.866 213.881C177.423 213.816 177.995 213.84 178.503 213.725C179.165 213.586 179.82 213.382 180.442 213.12C180.908 212.858 181.235 212.384 181.309 211.852C181.35 211.705 181.399 211.557 181.44 211.41C181.604 210.87 181.604 210.87 182.168 211.001L183.305 211.255C182.986 211.369 182.651 211.476 182.332 211.606C182.144 211.68 182.111 211.803 182.25 211.966C182.389 212.13 182.684 212.523 182.921 212.785C182.995 212.866 183.101 212.899 183.207 212.883C183.665 212.695 184.165 212.629 184.655 212.686C184.533 212.907 184.385 213.112 184.214 213.292C184.034 213.431 183.829 213.521 183.608 213.554C183.044 213.668 182.463 213.742 181.89 213.832C181.825 214.233 181.481 214.527 181.072 214.519C180.335 214.634 179.64 214.953 179.067 215.435C178.634 215.665 178.445 216.18 178.642 216.63C178.699 216.81 178.756 217.039 179.051 216.9C179.1 216.9 179.19 216.9 179.255 216.957C179.525 217.096 179.795 217.252 180.074 217.391C180.352 217.53 180.532 217.677 180.835 217.579C180.892 217.546 180.957 217.546 181.015 217.563Z" fill="white"/>
<path d="M189.761 209.888C190.465 209.774 191.135 209.684 191.79 209.553C192.068 209.479 192.346 209.381 192.608 209.258C193.312 208.915 194.097 208.767 194.875 208.833C195.603 208.939 196.339 208.988 197.075 209.046C197.354 209.095 197.64 209.005 197.828 208.8C197.902 208.702 198.106 208.686 198.254 208.661C198.826 208.571 199.399 208.465 199.98 208.407C200.283 208.366 200.594 208.366 200.896 208.407C201.6 208.522 202.304 208.653 203.007 208.784C203.122 208.8 203.228 208.849 203.31 208.923C203.015 208.923 202.721 208.923 202.435 208.988C202.246 209.005 202.066 209.046 201.895 209.119C201.633 209.25 201.387 209.397 201.379 209.782C201.371 210.175 201.101 210.51 200.716 210.6C200.332 210.747 199.964 210.911 199.595 211.099C199.399 211.189 199.399 211.296 199.595 211.402L200.414 211.852C199.964 212.032 199.964 212.032 199.031 211.606L199.432 212.261C198.826 212.416 198.213 212.596 197.591 212.736C197.018 212.842 196.478 213.096 196.028 213.472C195.578 213.791 195.038 213.971 194.49 213.996C194.204 214.045 193.966 214.102 193.975 214.495C193.934 214.658 193.852 214.797 193.721 214.904C193.565 215.043 193.402 215.165 193.222 215.272C192.788 215.591 192.166 215.501 191.847 215.059C191.716 214.879 191.651 214.666 191.659 214.454C191.635 214.257 191.635 214.061 191.659 213.865C191.716 213.627 191.806 213.398 191.929 213.186C191.986 213.087 192.06 213.006 192.15 212.94C192.739 212.457 192.829 211.582 192.338 210.993C192.175 210.796 191.97 210.649 191.733 210.567C191.291 210.297 190.8 210.134 190.285 210.076C190.096 210.052 189.916 209.986 189.761 209.888Z" fill="white"/>
<path d="M184.377 210.706C184.615 210.297 184.876 210.175 185.285 210.363C185.686 210.575 186.161 210.608 186.586 210.461L186.652 210.535C186.595 210.625 186.545 210.755 186.464 210.796C186.382 210.837 186.038 210.886 185.842 210.96C185.744 211.001 185.67 211.075 185.637 211.173C185.637 211.23 185.735 211.353 185.809 211.377L188.264 212.073C188.345 212.114 188.395 212.187 188.411 212.277C188.411 212.384 188.386 212.49 188.354 212.596C188.223 213.185 188.354 213.415 188.992 213.415C189 213.627 188.853 213.807 188.648 213.848C188.255 213.955 187.83 214.069 187.478 214.2C187.306 214.257 187.118 214.315 187.167 214.576C187.167 214.625 187.126 214.699 187.085 214.74C186.75 214.977 186.292 214.977 185.956 214.74C185.744 214.503 185.76 214.143 185.997 213.93C186.079 213.856 186.177 213.807 186.284 213.791C186.513 213.734 186.758 213.717 186.995 213.652C187.102 213.627 187.2 213.562 187.257 213.472C187.257 213.415 187.184 213.275 187.11 213.21C186.513 212.662 185.727 212.351 184.917 212.335C184.467 212.335 184.017 212.261 183.567 212.212C183.379 212.212 183.134 212.212 183.117 211.925C183.085 211.705 183.232 211.492 183.453 211.459C183.485 211.451 183.518 211.451 183.551 211.451C183.845 211.435 184.14 211.41 184.435 211.361C184.557 211.361 184.754 211.246 184.77 211.156C184.811 210.944 184.68 210.805 184.443 210.805C184.435 210.706 184.418 210.706 184.377 210.706Z" fill="white"/>
<path d="M222.308 242.861C222.586 243.532 222.627 244.276 222.406 244.964C222.161 245.569 222.014 246.224 221.809 246.845C221.735 247.034 221.654 247.205 221.547 247.377C221.236 247.95 221.236 247.95 220.606 247.835C220.107 247.672 219.829 247.132 220.001 246.625V246.616C220.165 246.412 220.295 246.183 220.41 245.945C220.467 245.675 220.467 245.397 220.41 245.127C220.385 244.743 220.606 244.391 220.966 244.252C221.056 244.235 221.138 244.186 221.212 244.129C221.531 243.81 221.842 243.491 222.136 243.164C222.202 243.074 222.259 242.967 222.308 242.861Z" fill="white"/>
<path d="M192.256 208.456C191.7 208.89 191.037 209.168 190.342 209.275C189.376 209.438 188.46 209.798 187.642 210.338C187.372 210.502 187.11 210.641 186.914 210.232C186.873 210.158 186.725 210.117 186.627 210.101C186.374 210.076 186.12 210.027 185.866 209.962C185.94 209.896 186.022 209.839 186.112 209.798C186.325 209.733 186.545 209.692 186.758 209.635C186.971 209.577 187.265 209.528 187.355 209.209C187.413 209.078 187.535 208.98 187.675 208.939C188.1 208.841 188.542 208.784 188.984 208.71C189.262 208.702 189.532 208.661 189.802 208.595C190.285 208.407 190.808 208.334 191.324 208.366C191.487 208.375 191.643 208.375 191.806 208.366H192.273L192.256 208.456Z" fill="white"/>
<path d="M204.415 217.718C204.226 217.432 203.956 217.301 203.768 217.424C203.22 217.8 203.179 217.898 203.433 218.299L202.353 218.708C202.271 218.332 202.713 217.988 202.353 217.645C202.508 217.391 202.786 217.235 203.081 217.244H203.506C203.735 217.244 203.915 217.154 203.883 216.867C203.875 216.777 203.891 216.695 203.932 216.614C204.022 216.483 204.12 216.303 204.251 216.278C204.382 216.254 204.521 216.385 204.701 216.475C204.374 216.81 204.513 216.998 204.799 217.145C204.865 217.178 204.93 217.227 204.971 217.293C205.045 217.522 205.151 217.743 205.282 217.947C205.478 218.103 205.699 218.234 205.936 218.324C205.74 218.495 205.535 218.651 205.323 218.798C205.118 218.929 204.897 219.019 204.66 219.085C204.472 219.109 204.275 219.109 204.087 219.085V218.978L204.488 218.725C204.349 218.553 204.136 218.405 204.12 218.242C204.104 218.078 204.3 217.915 204.415 217.718Z" fill="white"/>
<path d="M199.497 213.979C199.636 213.914 199.775 213.856 199.915 213.807C200.348 213.685 200.79 213.57 201.232 213.464C201.453 213.415 201.69 213.415 201.764 213.644C201.837 213.873 201.674 213.979 201.559 214.053C201.305 214.225 201.027 214.364 200.741 214.47C200.479 214.609 200.152 214.536 199.972 214.298C199.882 214.184 199.694 214.159 199.546 214.086L199.497 213.979Z" fill="white"/>
<path d="M186.905 220.091C187.249 219.592 187.74 219.215 188.313 219.003L188.026 219.256C188.157 219.314 188.28 219.338 188.337 219.412C188.395 219.485 188.665 219.747 188.632 219.854C188.575 220.091 188.345 220.238 188.108 220.189C187.724 220.124 187.331 220.124 186.905 220.091Z" fill="white"/>
<path d="M215.468 260.386L215.419 260.746C200.536 269.689 181.227 264.878 172.285 249.995C163.342 235.113 168.153 215.804 183.035 206.861C186.431 204.824 190.17 203.441 194.073 202.795C191.847 204.627 189.81 206.673 187.985 208.906C187.634 209.34 187.265 209.798 186.922 210.265C186.578 210.731 186.357 211.017 186.104 211.418C185.85 211.819 185.695 212.015 185.498 212.318C184.754 213.455 184.091 214.634 183.494 215.853C182.365 218.144 181.563 220.582 181.121 223.094C180.466 226.931 180.785 230.866 182.054 234.548C182.684 236.414 183.51 238.214 184.508 239.907C186.03 242.517 187.773 244.98 189.736 247.271C201.616 261.082 215.468 260.386 215.468 260.386Z" fill="url(#paint0_linear)"/>
<path d="M345.641 254.585C344.774 257.924 340.846 257.343 340.846 257.343C340.846 257.343 317.937 257.768 317.487 257.343C317.037 256.917 317.365 255.641 317.446 255.158L317.487 254.986H324.033C324.033 254.986 327.125 253.35 322.061 246.093C317.798 239.965 333.867 239.686 339.12 239.76C340.118 239.76 340.756 239.76 340.756 239.76C340.756 239.76 346.5 251.247 345.641 254.585Z" fill="#6FD5DF"/>
<path d="M342.916 252.245C342.098 255.575 338.097 254.954 338.097 254.954C338.097 254.954 323.575 255.24 317.422 255.125L317.463 254.954H324.008C324.008 254.954 327.101 253.317 322.036 246.06C317.774 239.932 333.843 239.654 339.095 239.727C340.732 243.254 343.546 249.848 342.916 252.245Z" fill="#6FD5DF"/>
<path d="M343.857 252.736C342.998 256.066 338.13 254.954 338.13 254.954C338.13 254.954 323.607 255.24 317.455 255.125L317.495 254.954H324.041C324.041 254.954 327.134 253.317 322.069 246.06C317.806 239.932 333.875 239.654 339.128 239.727C340.732 243.254 344.479 250.339 343.857 252.736Z" fill="url(#paint1_linear)"/>
<path d="M304.683 206.763H353.675C356.22 206.763 358.282 208.825 358.282 211.369V241.216C358.282 243.761 356.22 245.823 353.675 245.823H304.683C302.138 245.823 300.076 243.761 300.076 241.216V211.369C300.076 208.825 302.138 206.763 304.683 206.763Z" fill="#6FD5DF"/>
<path d="M304.683 206.763H353.675C356.22 206.763 358.282 208.825 358.282 211.369V241.216C358.282 243.761 356.22 245.823 353.675 245.823H304.683C302.138 245.823 300.076 243.761 300.076 241.216V211.369C300.076 208.825 302.138 206.763 304.683 206.763Z" fill="url(#paint2_linear)"/>
<path d="M303.447 206.763H352.44C354.985 206.763 357.046 208.825 357.046 211.369V241.216C357.046 243.761 354.985 245.823 352.44 245.823H303.447C300.903 245.823 298.841 243.761 298.841 241.216V211.369C298.841 208.825 300.903 206.763 303.447 206.763Z" fill="#6FD5DF"/>
<path d="M303.447 206.763H352.44C354.985 206.763 357.046 208.825 357.046 211.369V241.216C357.046 243.761 354.985 245.823 352.44 245.823H303.447C300.903 245.823 298.841 243.761 298.841 241.216V211.369C298.841 208.825 300.903 206.763 303.447 206.763Z" fill="url(#paint3_linear)"/>
<path d="M357.005 237.33L357.046 241.208C357.046 243.753 354.985 245.815 352.44 245.815H352.432H303.447C300.903 245.815 298.841 243.753 298.841 241.208V237.33H357.005Z" fill="#6FD5DF"/>
<path d="M340.306 255.142H317.463V257.31H340.306V255.142Z" fill="url(#paint4_linear)"/>
<path d="M343.857 252.736L344.07 256.623C342.965 257.359 341.599 257.605 340.306 257.31V255.134C340.306 255.134 343.546 256.066 343.857 252.736Z" fill="url(#paint5_linear)"/>
<path d="M71.4763 230.065C72.1391 232.593 75.1336 232.135 75.1336 232.135C75.1336 232.135 92.5118 232.454 92.8391 232.135C93.1663 231.815 92.9291 230.842 92.8391 230.498C92.8472 230.457 92.8472 230.416 92.8391 230.375H87.8727C87.8727 230.375 85.5327 229.156 89.37 223.634C92.6427 218.986 80.4191 218.774 76.4427 218.831C75.6818 218.831 75.2236 218.831 75.2236 218.831C75.2236 218.831 70.8463 227.536 71.4763 230.065Z" fill="#6FD5DF"/>
<path d="M73.5464 228.289C74.1927 230.817 77.1954 230.351 77.1954 230.351C77.1954 230.351 88.2082 230.564 92.8636 230.474C92.8718 230.433 92.8718 230.392 92.8636 230.351H87.8727C87.8727 230.351 85.5327 229.132 89.37 223.609C92.6427 218.962 80.4191 218.749 76.4427 218.806C75.1991 221.474 73.0718 226.473 73.5464 228.289Z" fill="#6FD5DF"/>
<path d="M72.8345 228.706C73.4809 231.235 77.1955 230.392 77.1955 230.392C77.1955 230.392 88.2082 230.605 92.8636 230.515C92.8718 230.474 92.8718 230.433 92.8636 230.392H87.8727C87.8727 230.392 85.5327 229.173 89.37 223.65C92.6427 219.003 80.4191 218.79 76.4427 218.847C75.1991 221.474 72.36 226.849 72.8345 228.706Z" fill="url(#paint6_linear)"/>
<path d="M65.3973 193.819H102.526C104.457 193.819 106.02 195.382 106.02 197.313V219.927C106.02 221.858 104.457 223.421 102.526 223.421H65.3973C63.4664 223.421 61.9037 221.858 61.9037 219.927V197.313C61.9037 195.382 63.4664 193.819 65.3973 193.819Z" fill="#6FD5DF"/>
<path d="M65.3973 193.819H102.526C104.457 193.819 106.02 195.382 106.02 197.313V219.927C106.02 221.858 104.457 223.421 102.526 223.421H65.3973C63.4664 223.421 61.9037 221.858 61.9037 219.927V197.313C61.9037 195.382 63.4664 193.819 65.3973 193.819Z" fill="url(#paint7_linear)"/>
<path d="M66.33 193.819H103.459C105.39 193.819 106.953 195.382 106.953 197.313V219.927C106.953 221.858 105.39 223.421 103.459 223.421H66.33C64.3991 223.421 62.8364 221.858 62.8364 219.927V197.313C62.8364 195.382 64.3991 193.819 66.33 193.819Z" fill="#6FD5DF"/>
<path d="M66.33 193.819H103.459C105.39 193.819 106.953 195.382 106.953 197.313V219.927C106.953 221.858 105.39 223.421 103.459 223.421H66.33C64.3991 223.421 62.8364 221.858 62.8364 219.927V197.313C62.8364 195.382 64.3991 193.819 66.33 193.819Z" fill="url(#paint8_linear)"/>
<path d="M62.8609 216.982V219.927C62.8609 221.858 64.4236 223.421 66.3545 223.421H103.459C105.39 223.421 106.953 221.858 106.953 219.927V216.982H62.8609Z" fill="#6FD5DF"/>
<path d="M92.8391 230.49H75.5264V232.135H92.8391V230.49Z" fill="url(#paint9_linear)"/>
<path d="M72.8345 228.706L72.6709 231.652C73.5136 232.208 74.5445 232.396 75.5264 232.176V230.539C75.5264 230.539 73.0636 231.161 72.8345 228.706Z" fill="url(#paint10_linear)"/>
<path d="M256.058 211.426L233.419 208.047C232.666 207.933 232.085 207.319 232.028 206.558L230.392 188.157C230.302 187.257 230.965 186.455 231.865 186.374C232.004 186.357 232.143 186.365 232.274 186.382L254.937 189.769C255.698 189.875 256.287 190.497 256.345 191.266L257.94 209.643C258.03 210.543 257.375 211.345 256.475 211.435C256.336 211.451 256.197 211.451 256.058 211.426Z" fill="#6FD5DF"/>
<path d="M254.978 209.332L234.524 206.28C233.853 206.19 233.329 205.65 233.255 204.979L231.717 189.008C231.66 188.206 232.257 187.519 233.059 187.462C233.174 187.454 233.296 187.462 233.411 187.478L253.865 190.53C254.536 190.62 255.06 191.16 255.134 191.831L256.672 207.81C256.729 208.604 256.132 209.291 255.338 209.348C255.215 209.365 255.093 209.356 254.978 209.332Z" fill="url(#paint11_linear)"/>
<path d="M233.836 207.401L263.373 211.819C263.921 211.901 264.305 212.416 264.215 212.965C264.134 213.513 263.618 213.897 263.07 213.807L233.534 209.389C232.985 209.307 232.609 208.8 232.691 208.252C232.765 207.704 233.264 207.319 233.812 207.393C233.82 207.401 233.828 207.401 233.836 207.401Z" fill="#6FD5DF"/>
<path d="M246.764 209.324L270.515 212.875C271.015 212.948 271.35 213.415 271.276 213.905L271.244 214.11C271.17 214.609 270.704 214.945 270.213 214.871L246.461 211.32C245.962 211.246 245.626 210.78 245.7 210.289L245.733 210.085C245.806 209.594 246.273 209.25 246.764 209.324Z" fill="#6FD5DF"/>
<path d="M246.764 209.324L270.515 212.875C271.015 212.948 271.35 213.415 271.276 213.905L271.244 214.11C271.17 214.609 270.704 214.945 270.213 214.871L246.461 211.32C245.962 211.246 245.626 210.78 245.7 210.289L245.733 210.085C245.806 209.594 246.273 209.25 246.764 209.324Z" fill="url(#paint12_linear)"/>
<path d="M138.755 241.961L118.972 249.447C118.317 249.701 117.573 249.464 117.18 248.883L107.566 234.769C107.092 234.074 107.272 233.125 107.967 232.65C108.065 232.585 108.172 232.527 108.286 232.486L128.07 224.992C128.733 224.746 129.477 224.984 129.878 225.565L139.459 239.662C139.942 240.365 139.762 241.323 139.058 241.797C138.96 241.863 138.862 241.92 138.755 241.961Z" fill="#6FD5DF"/>
<path d="M136.923 240.758L119.07 247.525C118.481 247.778 117.794 247.582 117.434 247.05L109.015 234.859C108.605 234.254 108.761 233.427 109.375 233.018C109.473 232.953 109.579 232.904 109.685 232.863L127.538 226.096C128.127 225.851 128.806 226.047 129.175 226.571L137.626 238.762C138.027 239.375 137.855 240.202 137.234 240.611C137.135 240.676 137.029 240.725 136.923 240.758Z" fill="url(#paint13_linear)"/>
<path d="M119.005 248.744L144.802 238.966C145.285 238.786 145.825 239.024 146.005 239.506C146.185 239.989 145.947 240.529 145.465 240.709L119.667 250.486C119.193 250.683 118.653 250.454 118.465 249.979C118.465 249.971 118.456 249.963 118.456 249.955C118.268 249.48 118.497 248.94 118.972 248.752C118.98 248.752 118.996 248.752 119.005 248.744Z" fill="#6FD5DF"/>
<path d="M130.312 244.456L151.053 236.602C151.486 236.438 151.977 236.659 152.141 237.093L152.206 237.265C152.37 237.698 152.149 238.189 151.715 238.353L130.975 246.207C130.541 246.371 130.05 246.15 129.886 245.716L129.821 245.545C129.657 245.111 129.87 244.62 130.312 244.456Z" fill="#6FD5DF"/>
<path d="M130.312 244.456L151.053 236.602C151.486 236.438 151.977 236.659 152.141 237.093L152.206 237.265C152.37 237.698 152.149 238.189 151.715 238.353L130.975 246.207C130.541 246.371 130.05 246.15 129.886 245.716L129.821 245.545C129.657 245.111 129.87 244.62 130.312 244.456Z" fill="url(#paint14_linear)"/>
<path d="M138.101 252.695L157.647 250.855C160.585 250.576 163.186 252.736 163.465 255.674L168.112 305.149C168.39 308.086 166.23 310.688 163.293 310.966L143.746 312.807C140.809 313.085 138.207 310.925 137.929 307.988L133.282 258.513C133.012 255.575 135.164 252.974 138.101 252.695Z" fill="#6FD5DF"/>
<path d="M138.101 252.695L157.647 250.855C160.585 250.576 163.186 252.736 163.465 255.674L168.112 305.149C168.39 308.086 166.23 310.688 163.293 310.966L143.746 312.807C140.809 313.085 138.207 310.925 137.929 307.988L133.282 258.513C133.012 255.575 135.164 252.974 138.101 252.695Z" fill="url(#paint15_linear)"/>
<path d="M138.044 252.638L157.705 250.789C160.609 250.519 163.186 252.646 163.465 255.559L168.005 303.873C168.275 306.777 166.148 309.355 163.235 309.633L143.575 311.482C140.67 311.752 138.093 309.625 137.815 306.712L133.274 258.398C133.004 255.494 135.131 252.916 138.044 252.638Z" fill="#6FD5DF"/>
<path d="M139.23 253.89L156.927 252.229C159.537 251.984 161.853 253.898 162.098 256.508L166.173 299.88C166.418 302.49 164.504 304.805 161.894 305.051L144.196 306.712C141.586 306.957 139.271 305.043 139.025 302.433L134.951 259.061C134.705 256.451 136.62 254.135 139.23 253.89Z" fill="white"/>
<path d="M186.856 195.038C185.482 195.063 184.345 193.966 184.312 192.592C184.295 191.831 184.631 191.111 185.22 190.62C189.049 187.437 198.573 183.183 207.254 189.802C208.391 190.595 208.669 192.15 207.875 193.287C207.082 194.425 205.527 194.703 204.39 193.909C204.333 193.868 204.275 193.827 204.218 193.778C196.56 187.928 188.746 194.195 188.411 194.465C187.969 194.825 187.421 195.03 186.856 195.038Z" fill="#6FD5DF"/>
<path d="M180.925 186.979C180.262 186.987 179.624 186.725 179.157 186.251C178.192 185.277 178.192 183.698 179.157 182.725C179.305 182.585 193.729 168.382 212.187 181.587C213.316 182.389 213.586 183.952 212.785 185.089C211.983 186.218 210.42 186.488 209.291 185.678C194.351 175.001 183.183 185.809 182.716 186.275C182.234 186.742 181.587 186.995 180.925 186.979Z" fill="#6FD5DF"/>
<path d="M218.283 177.603C217.751 177.603 217.244 177.439 216.81 177.128C194.588 160.904 175.68 176.351 174.886 177.022C173.806 177.881 172.227 177.701 171.368 176.621C170.542 175.582 170.673 174.076 171.663 173.193C171.884 173.005 194.302 154.505 219.764 173.086C220.876 173.913 221.114 175.475 220.287 176.588C219.813 177.226 219.076 177.603 218.283 177.603Z" fill="#6FD5DF"/>
<defs>
<linearGradient id="paint0_linear" x1="203.384" y1="228.718" x2="151.904" y2="282.055" gradientUnits="userSpaceOnUse">
<stop stop-opacity="0"/>
<stop offset="0.99"/>
</linearGradient>
<linearGradient id="paint1_linear" x1="332.486" y1="258.322" x2="325.81" y2="238.816" gradientUnits="userSpaceOnUse">
<stop stop-opacity="0"/>
<stop offset="0.99"/>
</linearGradient>
<linearGradient id="paint2_linear" x1="385.297" y1="224.229" x2="291.247" y2="227.69" gradientUnits="userSpaceOnUse">
<stop stop-opacity="0"/>
<stop offset="0.99"/>
</linearGradient>
<linearGradient id="paint3_linear" x1="324.802" y1="200.096" x2="334.195" y2="278.453" gradientUnits="userSpaceOnUse">
<stop offset="0.02" stop-color="white" stop-opacity="0"/>
<stop offset="0.32" stop-color="white" stop-opacity="0.39"/>
<stop offset="0.68" stop-color="white" stop-opacity="0.68"/>
<stop offset="1" stop-color="white"/>
</linearGradient>
<linearGradient id="paint4_linear" x1="327.927" y1="255.869" x2="351.22" y2="264.583" gradientUnits="userSpaceOnUse">
<stop stop-opacity="0"/>
<stop offset="0.99"/>
</linearGradient>
<linearGradient id="paint5_linear" x1="345.327" y1="257.028" x2="334.02" y2="250.049" gradientUnits="userSpaceOnUse">
<stop stop-opacity="0"/>
<stop offset="0.99"/>
</linearGradient>
<linearGradient id="paint6_linear" x1="81.4661" y1="232.908" x2="86.5225" y2="218.123" gradientUnits="userSpaceOnUse">
<stop stop-opacity="0"/>
<stop offset="0.99"/>
</linearGradient>
<linearGradient id="paint7_linear" x1="41.4233" y1="207.059" x2="112.711" y2="209.677" gradientUnits="userSpaceOnUse">
<stop stop-opacity="0"/>
<stop offset="0.99"/>
</linearGradient>
<linearGradient id="paint8_linear" x1="87.2733" y1="188.764" x2="80.1551" y2="248.156" gradientUnits="userSpaceOnUse">
<stop offset="0.02" stop-color="white" stop-opacity="0"/>
<stop offset="0.32" stop-color="white" stop-opacity="0.39"/>
<stop offset="0.68" stop-color="white" stop-opacity="0.68"/>
<stop offset="1" stop-color="white"/>
</linearGradient>
<linearGradient id="paint9_linear" x1="84.9103" y1="231.041" x2="67.2539" y2="237.643" gradientUnits="userSpaceOnUse">
<stop stop-opacity="0"/>
<stop offset="0.99"/>
</linearGradient>
<linearGradient id="paint10_linear" x1="71.7338" y1="231.949" x2="80.3084" y2="226.664" gradientUnits="userSpaceOnUse">
<stop stop-opacity="0"/>
<stop offset="0.99"/>
</linearGradient>
<linearGradient id="paint11_linear" x1="244.113" y1="169.089" x2="244.361" y2="259.709" gradientUnits="userSpaceOnUse">
<stop stop-opacity="0"/>
<stop offset="0.99"/>
</linearGradient>
<linearGradient id="paint12_linear" x1="259.754" y1="202.842" x2="256.149" y2="229.122" gradientUnits="userSpaceOnUse">
<stop stop-opacity="0"/>
<stop offset="0.99"/>
</linearGradient>
<linearGradient id="paint13_linear" x1="111.459" y1="215.594" x2="152.383" y2="288.812" gradientUnits="userSpaceOnUse">
<stop stop-opacity="0"/>
<stop offset="0.99"/>
</linearGradient>
<linearGradient id="paint14_linear" x1="137.834" y1="233.355" x2="146.795" y2="256.173" gradientUnits="userSpaceOnUse">
<stop stop-opacity="0"/>
<stop offset="0.99"/>
</linearGradient>
<linearGradient id="paint15_linear" x1="152.45" y1="298.837" x2="155.331" y2="326.778" gradientUnits="userSpaceOnUse">
<stop stop-opacity="0"/>
<stop offset="0.99"/>
</linearGradient>
</defs>
</svg>
