<?xml version="1.0" encoding="utf-8"?>
<!-- Generator: Adobe Illustrator 24.0.1, SVG Export Plug-In . SVG Version: 6.00 Build 0)  -->
<svg version="1.1" xmlns="http://www.w3.org/2000/svg" xmlns:xlink="http://www.w3.org/1999/xlink" x="0px" y="0px"
	 viewBox="0 0 210 210" style="enable-background:new 0 0 210 210;" xml:space="preserve">
<style type="text/css">
	.st0{fill:#FFAC9D;}
	.st1{fill:#CC887F;}
	.st2{fill:#D68950;}
	.st3{fill:#FFA65B;}
	.st4{fill:none;stroke:#765E69;stroke-width:1.8333;stroke-miterlimit:10;}
	.st5{fill:none;stroke:#765E69;stroke-miterlimit:10;}
	.st6{fill:#D35450;}
	.st7{fill:#FC6A5A;}
	.st8{fill:#FFFFFF;}
	.st9{fill:#352C38;}
	.st10{fill:none;stroke:#765E69;stroke-width:1.4341;stroke-miterlimit:10;}
	.st11{fill:#A9C7DB;stroke:#765E69;stroke-width:1.4341;stroke-miterlimit:10;}
</style>
<g id="BACKGROUND">
</g>
<g id="OBJECTS">
	<g>
		<g>
			<g>
				<path class="st0" d="M125.73,151.9c-8.48-4.63-6.17-26.99-6.17-26.99l-12.7,0.82v-0.82l-1.36,0.41l-1.36-0.41v0.82l-12.7-0.82
					c0,0,2.31,22.36-6.17,26.99c-8.48,4.63-58.6,6.94-53.21,58.6h72.08h2.72h72.08C184.33,158.84,134.21,156.53,125.73,151.9z"/>
				<path class="st1" d="M89.66,146.13c10.15-1.51,20.29-3.07,30.42-4.68c-1.43-7.71-0.51-16.54-0.51-16.54l-12.7,0.82v-0.82
					l-1.36,0.41l-1.36-0.41v0.82l-12.7-0.82C91.44,124.91,92.78,137.9,89.66,146.13z"/>
			</g>
			<g>
				<path class="st2" d="M128.37,151.5c-4.23-2.31-5.8-9.01-6.29-15.18c-3.73,1.41-11.18,2.23-15.97,2.23
					c-5.74,0-13.01-1.18-17.12-3.15c-0.42,6.41-1.91,13.67-6.36,16.09c-8.54,4.66-57,6.99-51.56,59h72.57h2.74h72.57
					C184.37,158.49,136.91,156.16,128.37,151.5z"/>
				<path class="st3" d="M105.43,163.55c11.66,0,22.12-3.88,29.26-10.01c-2.6-0.74-4.66-1.36-5.9-2.04
					c-4.23-2.31-5.8-9.01-6.29-15.18c-3.73,1.41-11.18,2.23-15.97,2.23c-5.74,0-13.01-1.18-17.12-3.15
					c-0.42,6.41-1.91,13.67-6.36,16.09c-1.35,0.74-3.69,1.41-6.66,2.24C83.53,159.76,93.89,163.55,105.43,163.55z"/>
				<g>
					<polyline class="st4" points="51.36,204.34 59.61,196.55 67.4,204.34 					"/>
					<polyline class="st4" points="144.16,204.04 153.57,196.55 161.36,204.34 					"/>
					<polyline class="st4" points="128.65,204.08 137.53,196.55 145.32,204.34 					"/>
					<polyline class="st4" points="113.69,204.34 121.94,196.55 129.73,204.34 					"/>
					<polyline class="st4" points="97.32,204.18 106.36,196.55 114.79,204.13 					"/>
					<polyline class="st4" points="82.53,204.34 90.78,196.55 98.57,204.34 					"/>
					<polyline class="st4" points="66.29,204.18 75.19,196.55 83.52,204.04 					"/>
				</g>
				<g>
					<polyline class="st5" points="51.36,196.68 59.61,188.89 67.4,196.68 					"/>
					<polyline class="st5" points="144.16,196.37 153.57,188.89 161.36,196.68 					"/>
					<polyline class="st5" points="128.65,196.42 137.53,188.89 145.32,196.68 					"/>
					<polyline class="st5" points="113.69,196.68 121.94,188.89 129.73,196.68 					"/>
					<polyline class="st5" points="97.32,196.52 106.36,188.89 114.79,196.47 					"/>
					<polyline class="st5" points="82.53,196.68 90.78,188.89 98.57,196.68 					"/>
					<polyline class="st5" points="66.29,196.52 75.19,188.89 83.52,196.37 					"/>
				</g>
				<path class="st3" d="M53.86,191.8c0-10.6-1.28-20.31-3.4-27.83c-12,7.79-22.02,21.33-19.39,46.53h21.37
					C53.35,204.84,53.86,198.5,53.86,191.8z"/>
				<path class="st3" d="M159.38,163.56c-2.19,7.58-3.52,17.44-3.52,28.24c0,6.7,0.51,13.04,1.42,18.7h21.65
					C181.61,184.84,171.42,171.28,159.38,163.56z"/>
			</g>
		</g>
		<g>
			<g>
				<path class="st1" d="M80.66,92.17c-2.5-7.75-8.42-5.96-8.97-5.77c-0.58,0.07-6.7,0.98-5.64,9.05
					c1.06,8.13,5.78,12.53,10.2,11.24C80.8,105.97,83.18,99.97,80.66,92.17z"/>
				<path class="st1" d="M130.56,92.17c2.5-7.75,8.42-5.96,8.97-5.77c0.58,0.07,6.7,0.98,5.64,9.05
					c-1.06,8.13-5.78,12.53-10.2,11.24C130.43,105.97,128.05,99.97,130.56,92.17z"/>
				<path class="st0" d="M74.6,80.43c3.1-33.99,28.94-32.09,31.37-31.83c2.44-0.26,28.28-2.16,31.37,31.83
					c3.12,34.19-12.11,56.52-31.37,55.3C86.71,136.95,71.48,114.62,74.6,80.43z"/>
			</g>
			<g>
				<path class="st6" d="M73.36,56.55c0,0-7,4.5-2,20l3,17.5l2.5,0.5c0,0-1-26.5,7.5-32.5S73.36,56.55,73.36,56.55z"/>
				<path class="st7" d="M126.86,59.05c0,0-33.5,19.5-51.5,4s1-23.5,8.5-22.5c0,0-2.5-8.5,7.5-9.5s8,9,23,9s22.5,1,21,13.5
					c0,0,7.5-4.5,10,4s-7,36.5-7,36.5l-1,4.5h-2.5v-24C134.86,74.55,125.36,77.55,126.86,59.05z"/>
				<path class="st6" d="M145.36,57.55c-2.5-8.5-10-4-10-4c0.86-7.2-1.26-10.58-6.08-12.15c-1,7.2-3.32,14.16-7.48,20.25
					c3.14-1.48,5.06-2.59,5.06-2.59c-1.5,18.5,8,15.5,8,15.5v24h2.5l1-4.5C138.36,94.05,147.86,66.05,145.36,57.55z"/>
			</g>
			<g>
				<g>
					<path class="st1" d="M110.43,84.41c0.84,3.12,1.38,6.28,1.83,9.44c0.21,1.58,0.42,3.17,0.56,4.76
						c0.17,1.59,0.28,3.18,0.38,4.78l0.03,0.43l-0.31,0.19c-1.02,0.63-2.05,1.23-3.09,1.82c-1.05,0.58-2.1,1.16-3.19,1.68
						c0.88-0.83,1.8-1.6,2.72-2.37c0.93-0.76,1.87-1.5,2.82-2.23l-0.28,0.62c-0.26-1.58-0.49-3.16-0.68-4.75
						c-0.21-1.58-0.35-3.18-0.49-4.77C110.45,90.84,110.29,87.64,110.43,84.41z"/>
				</g>
				<path class="st8" d="M119.15,113.63c-6.15,5.98-16.57,5.65-24.47,0.32"/>
				<g>
					<path class="st9" d="M130.34,81.89c-1.45-0.81-2.79-1.54-4.14-2.12c-1.34-0.58-2.67-0.98-3.98-1.09
						c-1.31-0.12-2.62,0.02-3.94,0.54c-0.69,0.17-1.32,0.57-2.03,0.86c-0.69,0.34-1.32,0.79-2.11,1.13
						c0.34-0.74,0.76-1.48,1.27-2.15c0.59-0.59,1.12-1.3,1.9-1.73c0.38-0.23,0.73-0.52,1.15-0.67c0.42-0.17,0.85-0.32,1.28-0.47
						c0.89-0.18,1.81-0.32,2.72-0.21c1.82,0.16,3.5,0.93,4.84,1.97C128.62,79.03,129.73,80.33,130.34,81.89z"/>
				</g>
				<g>
					<path class="st9" d="M98.15,81.89c-1.45-0.81-2.79-1.54-4.14-2.12c-1.34-0.58-2.67-0.98-3.98-1.09
						c-1.31-0.12-2.62,0.02-3.94,0.54c-0.69,0.17-1.32,0.57-2.03,0.86c-0.69,0.34-1.32,0.79-2.11,1.13
						c0.34-0.74,0.76-1.48,1.27-2.15c0.59-0.59,1.12-1.3,1.9-1.73c0.38-0.23,0.73-0.52,1.15-0.67c0.42-0.17,0.85-0.32,1.28-0.47
						c0.89-0.18,1.81-0.32,2.72-0.21c1.82,0.16,3.5,0.93,4.84,1.97C96.43,79.03,97.54,80.33,98.15,81.89z"/>
				</g>
				<path class="st10" d="M71.97,85.48l8.7,6.69l21.85,0.69c0,0,5.63-7.9,10.32,0h22.52l6.77-6.34"/>
				<circle class="st11" cx="91.25" cy="92.86" r="11.26"/>
				<circle class="st11" cx="124.1" cy="92.86" r="11.26"/>
				<g>
					<path class="st9" d="M97.13,94.21c-0.42-1.44-0.99-2.82-1.9-3.86c-0.9-1.04-2.14-1.64-3.49-1.61
						c-0.68-0.04-1.34,0.08-1.95,0.29c-0.6,0.24-1.11,0.64-1.53,1.16c-0.83,1.07-1.21,2.53-1.39,4.02
						c-0.31-1.47-0.22-3.11,0.62-4.54c0.42-0.72,1.08-1.3,1.85-1.68c0.78-0.33,1.62-0.47,2.43-0.45c1.64-0.03,3.34,0.87,4.2,2.24
						C96.88,91.12,97.2,92.71,97.13,94.21z"/>
				</g>
				<g>
					<path class="st9" d="M126.06,93.74c-0.42-1.44-0.99-2.82-1.9-3.86c-0.9-1.04-2.14-1.64-3.49-1.61
						c-0.68-0.04-1.34,0.08-1.95,0.29c-0.6,0.24-1.11,0.64-1.53,1.16c-0.83,1.07-1.21,2.53-1.39,4.02
						c-0.31-1.47-0.22-3.11,0.62-4.54c0.42-0.72,1.08-1.3,1.85-1.68c0.78-0.33,1.62-0.47,2.43-0.45c1.64-0.03,3.34,0.87,4.2,2.24
						C125.81,90.65,126.13,92.24,126.06,93.74z"/>
				</g>
			</g>
		</g>
	</g>
</g>
</svg>
